<svg width="30" height="30" viewBox="0 0 30 30" fill="none" xmlns="http://www.w3.org/2000/svg">
<path d="M15 27.5C21.9035 27.5 27.5 21.9035 27.5 15C27.5 8.09644 21.9035 2.5 15 2.5C8.09644 2.5 2.5 8.09644 2.5 15C2.5 21.9035 8.09644 27.5 15 27.5Z" fill="white"/>
<path d="M24.1624 23.4875C22.6124 19.9625 19.0999 17.5 14.9999 17.5C10.8999 17.5 7.3874 19.9625 5.8374 23.4875C8.1249 25.95 11.3749 27.5 14.9999 27.5C18.6249 27.5 21.8749 25.95 24.1624 23.4875Z" fill="white"/>
<path d="M24.1624 23.4875C22.6124 19.9625 19.0999 17.5 14.9999 17.5C10.8999 17.5 7.3874 19.9625 5.8374 23.4875" stroke="#3E8DED" stroke-width="1.5" stroke-miterlimit="10" stroke-linecap="square"/>
<path d="M15 17.5C17.7614 17.5 20 15.2614 20 12.5C20 9.73857 17.7614 7.5 15 7.5C12.2386 7.5 10 9.73857 10 12.5C10 15.2614 12.2386 17.5 15 17.5Z" fill="white"/>
<path d="M15 17.5C17.7614 17.5 20 15.2614 20 12.5C20 9.73857 17.7614 7.5 15 7.5C12.2386 7.5 10 9.73857 10 12.5C10 15.2614 12.2386 17.5 15 17.5Z" stroke="#3E8DED" stroke-width="1.5" stroke-miterlimit="10" stroke-linecap="square"/>
</svg>
