<svg width="50" height="50" viewBox="0 0 50 50" fill="none" xmlns="http://www.w3.org/2000/svg">
<path d="M25 45.8333C36.5058 45.8333 45.8333 36.5058 45.8333 25C45.8333 13.494 36.5058 4.16663 25 4.16663C13.4941 4.16663 4.16667 13.494 4.16667 25C4.16667 36.5058 13.4941 45.8333 25 45.8333Z" fill="#7AB8FD"/>
<path d="M40.2706 39.1458C37.6873 33.2708 31.8331 29.1666 24.9998 29.1666C18.1665 29.1666 12.3123 33.2708 9.729 39.1458C13.5415 43.25 18.9582 45.8333 24.9998 45.8333C31.0415 45.8333 36.4581 43.25 40.2706 39.1458Z" fill="#7AB8FD"/>
<path d="M40.2706 39.1458C37.6873 33.2708 31.8331 29.1666 24.9998 29.1666C18.1665 29.1666 12.3123 33.2708 9.729 39.1458" stroke="white" stroke-width="2" stroke-miterlimit="10" stroke-linecap="square"/>
<path d="M25 29.1667C29.6023 29.1667 33.3333 25.4356 33.3333 20.8333C33.3333 16.231 29.6023 12.5 25 12.5C20.3976 12.5 16.6667 16.231 16.6667 20.8333C16.6667 25.4356 20.3976 29.1667 25 29.1667Z" fill="#7AB8FD"/>
<path d="M25 29.1667C29.6023 29.1667 33.3333 25.4356 33.3333 20.8333C33.3333 16.231 29.6023 12.5 25 12.5C20.3976 12.5 16.6667 16.231 16.6667 20.8333C16.6667 25.4356 20.3976 29.1667 25 29.1667Z" stroke="white" stroke-width="2" stroke-miterlimit="10" stroke-linecap="square"/>
</svg>
