<svg width="447" height="68" viewBox="0 0 447 68" fill="none" xmlns="http://www.w3.org/2000/svg">
<g filter="url(#filter0_d)">
<rect x="4" width="439" height="56" rx="10" fill="#171717"/>
</g>
<path d="M118.832 32.3477C119.031 35.3359 121.516 37.2812 125.102 37.2812C128.992 37.2812 131.43 35.3477 131.43 32.2539C131.43 29.8281 130.012 28.4805 126.508 27.6016L124.738 27.1328C122.441 26.5352 121.504 25.7734 121.504 24.4961C121.504 22.8438 123.027 21.707 125.219 21.707C127.422 21.707 128.887 22.8203 129.074 24.6367H131.184C131.09 21.8008 128.652 19.8086 125.289 19.8086C121.773 19.8086 119.312 21.7773 119.312 24.5898C119.312 26.8867 120.695 28.2578 123.812 29.0547L125.98 29.6172C128.254 30.2031 129.25 31.082 129.25 32.5117C129.25 34.1758 127.586 35.3828 125.301 35.3828C122.887 35.3828 121.152 34.1758 120.953 32.3477H118.832ZM133.68 37H135.719V24.8125H133.68V37ZM134.699 22.7617C135.402 22.7617 135.977 22.1875 135.977 21.4961C135.977 20.793 135.402 20.2305 134.699 20.2305C134.008 20.2305 133.434 20.793 133.434 21.4961C133.434 22.1875 134.008 22.7617 134.699 22.7617ZM143.43 35.3008C141.332 35.3008 139.961 33.5898 139.961 30.8594C139.961 28.1289 141.332 26.3945 143.43 26.3945C145.551 26.3945 146.969 28.1758 146.969 30.8594C146.969 33.543 145.551 35.3008 143.43 35.3008ZM143.5 41.5938C146.863 41.5938 149.008 39.6602 149.008 36.7539V24.8125H147.062V26.8633H147.027C146.219 25.4453 144.789 24.6016 143.066 24.6016C139.914 24.6016 137.875 27.0391 137.875 30.8594C137.875 34.6445 139.914 37.0938 143.02 37.0938C144.73 37.0938 146.172 36.2266 146.922 34.9023H146.969V36.8242C146.969 38.6406 145.691 39.8594 143.582 39.8594C142.059 39.8594 140.852 39.1211 140.453 38.0078H138.355C138.695 40.082 140.816 41.5938 143.5 41.5938ZM151.668 37H153.707V29.8281C153.707 27.7656 154.961 26.4062 156.883 26.4062C158.758 26.4062 159.684 27.4844 159.684 29.4531V37H161.723V29.0898C161.723 26.3242 160.176 24.6016 157.504 24.6016C155.617 24.6016 154.316 25.4453 153.637 26.7578H153.59V24.8125H151.668V37ZM169.352 37H171.391V24.8125H169.352V37ZM170.371 22.7617C171.074 22.7617 171.648 22.1875 171.648 21.4961C171.648 20.793 171.074 20.2305 170.371 20.2305C169.68 20.2305 169.105 20.793 169.105 21.4961C169.105 22.1875 169.68 22.7617 170.371 22.7617ZM174.145 37H176.184V29.8281C176.184 27.7656 177.438 26.4062 179.359 26.4062C181.234 26.4062 182.16 27.4844 182.16 29.4531V37H184.199V29.0898C184.199 26.3242 182.652 24.6016 179.98 24.6016C178.094 24.6016 176.793 25.4453 176.113 26.7578H176.066V24.8125H174.145V37ZM207.227 24.8125H205.211L202.773 34.7266H202.727L199.961 24.8125H197.992L195.238 34.7266H195.191L192.754 24.8125H190.727L194.137 37H196.211L198.953 27.5664H199L201.754 37H203.828L207.227 24.8125ZM209.008 37H211.047V24.8125H209.008V37ZM210.027 22.7617C210.73 22.7617 211.305 22.1875 211.305 21.4961C211.305 20.793 210.73 20.2305 210.027 20.2305C209.336 20.2305 208.762 20.793 208.762 21.4961C208.762 22.1875 209.336 22.7617 210.027 22.7617ZM214.457 21.8711V24.8125H212.641V26.4883H214.457V33.8359C214.457 36.1797 215.324 37.0938 217.562 37.0938C218.043 37.0938 218.605 37.0586 218.852 37V35.2891C218.711 35.3125 218.242 35.3477 218.008 35.3477C216.965 35.3477 216.496 34.8438 216.496 33.7305V26.4883H218.863V24.8125H216.496V21.8711H214.457ZM221.148 37H223.188V29.8984C223.188 27.7891 224.441 26.4062 226.469 26.4062C228.379 26.4062 229.352 27.5664 229.352 29.5V37H231.391V29.125C231.391 26.4062 229.773 24.6016 227.102 24.6016C225.25 24.6016 223.914 25.3984 223.234 26.7578H223.188V20.0898H221.148V37ZM250.211 37H252.426L246.191 20.0898H244.105L237.871 37H240.086L241.785 32.1602H248.512L250.211 37ZM245.113 22.6562H245.184L247.891 30.3672H242.406L245.113 22.6562ZM259.961 24.6016C258.191 24.6016 256.773 25.5039 256.023 26.875H255.977V24.8125H254.043V41.0664H256.082V35.0195H256.129C256.855 36.3555 258.262 37.2109 260.008 37.2109C263.078 37.2109 265.176 34.7266 265.176 30.9062C265.176 27.0859 263.066 24.6016 259.961 24.6016ZM259.562 35.418C257.477 35.418 256.07 33.625 256.07 30.9062C256.07 28.1992 257.477 26.3945 259.562 26.3945C261.73 26.3945 263.09 28.1523 263.09 30.9062C263.09 33.6719 261.73 35.418 259.562 35.418ZM273.156 24.6016C271.387 24.6016 269.969 25.5039 269.219 26.875H269.172V24.8125H267.238V41.0664H269.277V35.0195H269.324C270.051 36.3555 271.457 37.2109 273.203 37.2109C276.273 37.2109 278.371 34.7266 278.371 30.9062C278.371 27.0859 276.262 24.6016 273.156 24.6016ZM272.758 35.418C270.672 35.418 269.266 33.625 269.266 30.9062C269.266 28.1992 270.672 26.3945 272.758 26.3945C274.926 26.3945 276.285 28.1523 276.285 30.9062C276.285 33.6719 274.926 35.418 272.758 35.418ZM280.539 37H282.578V20.0898H280.539V37ZM290.219 26.3711C292.141 26.3711 293.418 27.8242 293.465 29.8633H286.844C286.973 27.8359 288.309 26.3711 290.219 26.3711ZM293.418 33.5078C293.078 34.6562 291.941 35.4414 290.395 35.4414C288.203 35.4414 286.832 33.9062 286.832 31.5742V31.457H295.574V30.6836C295.574 26.9922 293.547 24.6016 290.254 24.6016C286.891 24.6016 284.734 27.168 284.734 30.9531C284.734 34.7852 286.855 37.2109 290.348 37.2109C293.008 37.2109 295.07 35.6406 295.422 33.5078H293.418Z" fill="#FBFBFB"/>
<path d="M54.0457 41C50.3249 40.9785 47.2472 33.3832 47.2472 29.5151C47.2472 23.1966 51.9872 21.8133 53.8139 21.8133C54.6372 21.8133 55.5162 22.1365 56.2916 22.4226C56.8338 22.6222 57.3945 22.8282 57.7064 22.8282C57.893 22.8282 58.3329 22.653 58.7213 22.4992C59.5496 22.1695 60.5802 21.7596 61.7804 21.7596C61.7826 21.7596 61.7855 21.7596 61.7876 21.7596C62.6838 21.7596 65.401 21.9563 67.0347 24.4096L67.4174 24.9847L66.8666 25.4003C66.0799 25.9939 64.6443 27.0768 64.6443 29.2219C64.6443 31.7625 66.2701 32.7395 67.0511 33.2094C67.3959 33.4169 67.7528 33.6307 67.7528 34.0985C67.7528 34.4039 65.3152 40.9621 61.7754 40.9621C60.9093 40.9621 60.297 40.7017 59.757 40.4721C59.2105 40.2397 58.7391 40.0394 57.9602 40.0394C57.5654 40.0394 57.0661 40.2261 56.5376 40.4242C55.8153 40.6938 54.9977 41 54.07 41H54.0457Z" fill="white"/>
<path d="M62.1555 16C62.2476 19.324 59.8704 21.6301 57.496 21.4854C57.1048 18.8328 59.8701 16 62.1555 16Z" fill="white"/>
<defs>
<filter id="filter0_d" x="0" y="0" width="447" height="68" filterUnits="userSpaceOnUse" color-interpolation-filters="sRGB">
<feFlood flood-opacity="0" result="BackgroundImageFix"/>
<feColorMatrix in="SourceAlpha" type="matrix" values="0 0 0 0 0 0 0 0 0 0 0 0 0 0 0 0 0 0 127 0"/>
<feOffset dy="8"/>
<feGaussianBlur stdDeviation="2"/>
<feColorMatrix type="matrix" values="0 0 0 0 0 0 0 0 0 0 0 0 0 0 0 0 0 0 0.25 0"/>
<feBlend mode="normal" in2="BackgroundImageFix" result="effect1_dropShadow"/>
<feBlend mode="normal" in="SourceGraphic" in2="effect1_dropShadow" result="shape"/>
</filter>
</defs>
</svg>
