<svg width="30" height="30" viewBox="0 0 30 30" fill="none" xmlns="http://www.w3.org/2000/svg">
<path d="M27.5 6.25H2.5V23.75H27.5V6.25Z" fill="#B5C3CC"/>
<path d="M22.5 6.25C22.5 9.0125 24.7375 11.25 27.5 11.25V6.25H22.5Z" fill="#B5C3CC"/>
<path d="M22.5 6.25C22.5 9.0125 24.7375 11.25 27.5 11.25" stroke="white" stroke-linejoin="round"/>
<path d="M22.5 23.75C22.5 20.9875 24.7375 18.75 27.5 18.75V23.75H22.5Z" fill="#B5C3CC"/>
<path d="M22.5 23.75C22.5 20.9875 24.7375 18.75 27.5 18.75" stroke="white" stroke-linejoin="round"/>
<path d="M7.5 6.25C7.5 9.0125 5.2625 11.25 2.5 11.25V6.25H7.5Z" fill="#B5C3CC"/>
<path d="M7.5 6.25C7.5 9.0125 5.2625 11.25 2.5 11.25" stroke="white" stroke-linejoin="round"/>
<path d="M7.5 23.75C7.5 20.9875 5.2625 18.75 2.5 18.75V23.75H7.5Z" fill="#B5C3CC"/>
<path d="M7.5 23.75C7.5 20.9875 5.2625 18.75 2.5 18.75" stroke="white" stroke-linejoin="round"/>
<path d="M15 20V18.7375" stroke="white" stroke-linecap="round" stroke-linejoin="round"/>
<path d="M15 11.2625V10" stroke="white" stroke-linecap="round" stroke-linejoin="round"/>
<path d="M17.5 12.8376C17.2875 12.0626 16.6 11.4626 15.725 11.3001C14.85 11.1376 13.9375 11.4376 13.425 12.0501C13.3625 12.1251 12.7875 12.8251 13.0625 13.5751C13.2375 14.0501 13.65 14.3126 14.225 14.6626C14.85 15.0501 15.025 14.9876 15.975 15.4751C16.9375 15.9751 17.1 16.2251 17.175 16.3501C17.45 16.8751 17.2625 17.4001 17.225 17.5001C16.9625 18.1751 16.2375 18.4501 15.975 18.5626C15.8625 18.6126 14.8125 18.9876 13.775 18.5126C13.2 18.2501 12.9 17.8501 12.8 17.7251C12.6375 17.4876 12.55 17.2751 12.5 17.1126" stroke="white" stroke-linecap="round" stroke-linejoin="round"/>
</svg>
