<svg width="50" height="50" viewBox="0 0 50 50" fill="none" xmlns="http://www.w3.org/2000/svg">
<path fill-rule="evenodd" clip-rule="evenodd" d="M10.4166 10.4166C11.5672 10.4166 12.5 11.3494 12.5 12.5V18.75C12.5 19.9005 11.5672 18.75 10.4166 18.75C9.26606 18.75 8.33331 19.9005 8.33331 18.75V12.5C8.33331 11.3494 9.26606 10.4166 10.4166 10.4166Z" fill="white"/>
<path d="M45.8334 37.5C45.8334 39.8013 43.9679 41.6667 41.6667 41.6667H8.33335C6.03217 41.6667 4.16669 39.8013 4.16669 37.5V18.75C4.16669 16.4489 6.03217 14.5834 8.33335 14.5834H12.8575C13.9625 14.5834 15.0224 14.1444 15.8038 13.363L19.613 9.55377C20.3944 8.77235 21.4542 8.33337 22.5592 8.33337H27.4409C28.5459 8.33337 29.6056 8.77235 30.3871 9.55377L34.1963 13.363C34.9777 14.1444 36.0375 14.5834 37.1425 14.5834H41.6667C43.9679 14.5834 45.8334 16.4489 45.8334 18.75V37.5Z" fill="white"/>
<path d="M25 35.4167C29.6024 35.4167 33.3334 31.6857 33.3334 27.0833C33.3334 22.481 29.6024 18.75 25 18.75C20.3976 18.75 16.6667 22.481 16.6667 27.0833C16.6667 31.6857 20.3976 35.4167 25 35.4167Z" fill="white"/>
<path d="M16.6667 27.0834H4.16669" stroke="#505050" stroke-width="3" stroke-linejoin="round"/>
<path d="M45.8333 27.0834H33.3333" stroke="#505050" stroke-width="3" stroke-linejoin="round"/>
<path d="M25 35.4167C29.6024 35.4167 33.3334 31.6857 33.3334 27.0833C33.3334 22.481 29.6024 18.75 25 18.75C20.3976 18.75 16.6667 22.481 16.6667 27.0833C16.6667 31.6857 20.3976 35.4167 25 35.4167Z" stroke="#505050" stroke-width="3" stroke-linecap="round"/>
</svg>
