<svg width="60" height="60" viewBox="0 0 70 70" fill="none" xmlns="http://www.w3.org/2000/svg">
<circle cx="35" cy="35" r="34" fill="#262626" fill-opacity="0.6"/>
<circle cx="35" cy="35" r="34.375" stroke="white" stroke-opacity="0.6" stroke-width="0.75"/>
<path fill-rule="evenodd" clip-rule="evenodd" d="M22.0573 22.0573C22.578 21.5366 23.4222 21.5366 23.9429 22.0573L47.9429 46.0573C48.4635 46.5779 48.4635 47.4222 47.9429 47.9429C47.4222 48.4635 46.5779 48.4635 46.0573 47.9429L22.0573 23.9429C21.5366 23.4222 21.5366 22.578 22.0573 22.0573Z" fill="white"/>
<path fill-rule="evenodd" clip-rule="evenodd" d="M47.9429 22.0573C48.4635 22.578 48.4635 23.4222 47.9429 23.9429L23.9429 47.9429C23.4222 48.4635 22.578 48.4635 22.0573 47.9429C21.5366 47.4222 21.5366 46.5779 22.0573 46.0573L46.0573 22.0573C46.5779 21.5366 47.4222 21.5366 47.9429 22.0573Z" fill="white"/>
</svg>
