<svg width="29" height="28" viewBox="0 0 29 28" fill="none" xmlns="http://www.w3.org/2000/svg">
<path fill-rule="evenodd" clip-rule="evenodd" d="M3.64284 8.54934V22.302C3.64284 22.9648 3.89455 23.6004 4.3426 24.0691C4.79066 24.5377 5.39835 24.801 6.03199 24.801H25.1452C25.459 24.801 25.7696 24.7364 26.0595 24.6108C26.3494 24.4852 26.6128 24.3011 26.8346 24.0691C27.0565 23.837 27.2324 23.5615 27.3525 23.2583C27.4726 22.9551 27.5344 22.6302 27.5344 22.302V8.54934L19.0128 14.7887C18.0088 15.5236 16.813 15.9178 15.5875 15.9178C14.362 15.9178 13.1662 15.5236 12.1621 14.7887L3.64284 8.54934ZM27.4875 6.804C27.3779 6.23886 27.0848 5.73078 26.6579 5.3659C26.2309 5.00102 25.6965 4.80179 25.1452 4.802H6.03199C5.48037 4.8019 4.94571 5.00146 4.51876 5.3668C4.09181 5.73215 3.79887 6.24077 3.68968 6.80634L12.8358 13.531C13.6402 14.1218 14.5991 14.4388 15.5819 14.4388C16.5647 14.4388 17.5237 14.1218 18.328 13.531L27.4875 6.804Z" fill="#4885F9"/>
</svg>
