<svg width="447" height="68" viewBox="0 0 447 68" fill="none" xmlns="http://www.w3.org/2000/svg">
<g filter="url(#filter0_d)">
<rect x="4" width="439" height="56" rx="10" fill="#1877F2"/>
</g>
<path d="M118.832 32.3477C119.031 35.3359 121.516 37.2812 125.102 37.2812C128.992 37.2812 131.43 35.3477 131.43 32.2539C131.43 29.8281 130.012 28.4805 126.508 27.6016L124.738 27.1328C122.441 26.5352 121.504 25.7734 121.504 24.4961C121.504 22.8438 123.027 21.707 125.219 21.707C127.422 21.707 128.887 22.8203 129.074 24.6367H131.184C131.09 21.8008 128.652 19.8086 125.289 19.8086C121.773 19.8086 119.312 21.7773 119.312 24.5898C119.312 26.8867 120.695 28.2578 123.812 29.0547L125.98 29.6172C128.254 30.2031 129.25 31.082 129.25 32.5117C129.25 34.1758 127.586 35.3828 125.301 35.3828C122.887 35.3828 121.152 34.1758 120.953 32.3477H118.832ZM133.68 37H135.719V24.8125H133.68V37ZM134.699 22.7617C135.402 22.7617 135.977 22.1875 135.977 21.4961C135.977 20.793 135.402 20.2305 134.699 20.2305C134.008 20.2305 133.434 20.793 133.434 21.4961C133.434 22.1875 134.008 22.7617 134.699 22.7617ZM143.43 35.3008C141.332 35.3008 139.961 33.5898 139.961 30.8594C139.961 28.1289 141.332 26.3945 143.43 26.3945C145.551 26.3945 146.969 28.1758 146.969 30.8594C146.969 33.543 145.551 35.3008 143.43 35.3008ZM143.5 41.5938C146.863 41.5938 149.008 39.6602 149.008 36.7539V24.8125H147.062V26.8633H147.027C146.219 25.4453 144.789 24.6016 143.066 24.6016C139.914 24.6016 137.875 27.0391 137.875 30.8594C137.875 34.6445 139.914 37.0938 143.02 37.0938C144.73 37.0938 146.172 36.2266 146.922 34.9023H146.969V36.8242C146.969 38.6406 145.691 39.8594 143.582 39.8594C142.059 39.8594 140.852 39.1211 140.453 38.0078H138.355C138.695 40.082 140.816 41.5938 143.5 41.5938ZM151.668 37H153.707V29.8281C153.707 27.7656 154.961 26.4062 156.883 26.4062C158.758 26.4062 159.684 27.4844 159.684 29.4531V37H161.723V29.0898C161.723 26.3242 160.176 24.6016 157.504 24.6016C155.617 24.6016 154.316 25.4453 153.637 26.7578H153.59V24.8125H151.668V37ZM169.352 37H171.391V24.8125H169.352V37ZM170.371 22.7617C171.074 22.7617 171.648 22.1875 171.648 21.4961C171.648 20.793 171.074 20.2305 170.371 20.2305C169.68 20.2305 169.105 20.793 169.105 21.4961C169.105 22.1875 169.68 22.7617 170.371 22.7617ZM174.145 37H176.184V29.8281C176.184 27.7656 177.438 26.4062 179.359 26.4062C181.234 26.4062 182.16 27.4844 182.16 29.4531V37H184.199V29.0898C184.199 26.3242 182.652 24.6016 179.98 24.6016C178.094 24.6016 176.793 25.4453 176.113 26.7578H176.066V24.8125H174.145V37ZM207.227 24.8125H205.211L202.773 34.7266H202.727L199.961 24.8125H197.992L195.238 34.7266H195.191L192.754 24.8125H190.727L194.137 37H196.211L198.953 27.5664H199L201.754 37H203.828L207.227 24.8125ZM209.008 37H211.047V24.8125H209.008V37ZM210.027 22.7617C210.73 22.7617 211.305 22.1875 211.305 21.4961C211.305 20.793 210.73 20.2305 210.027 20.2305C209.336 20.2305 208.762 20.793 208.762 21.4961C208.762 22.1875 209.336 22.7617 210.027 22.7617ZM214.457 21.8711V24.8125H212.641V26.4883H214.457V33.8359C214.457 36.1797 215.324 37.0938 217.562 37.0938C218.043 37.0938 218.605 37.0586 218.852 37V35.2891C218.711 35.3125 218.242 35.3477 218.008 35.3477C216.965 35.3477 216.496 34.8438 216.496 33.7305V26.4883H218.863V24.8125H216.496V21.8711H214.457ZM221.148 37H223.188V29.8984C223.188 27.7891 224.441 26.4062 226.469 26.4062C228.379 26.4062 229.352 27.5664 229.352 29.5V37H231.391V29.125C231.391 26.4062 229.773 24.6016 227.102 24.6016C225.25 24.6016 223.914 25.3984 223.234 26.7578H223.188V20.0898H221.148V37ZM241.328 37V29.6758H248.816V27.8008H241.328V21.9883H249.484V20.0898H239.219V37H241.328ZM254.781 35.4766C253.316 35.4766 252.344 34.7148 252.344 33.5547C252.344 32.4062 253.281 31.6797 254.922 31.5742L258.18 31.375V32.3711C258.18 34.1289 256.703 35.4766 254.781 35.4766ZM254.324 37.2109C255.965 37.2109 257.512 36.2969 258.238 34.9023H258.285V37H260.219V28.5742C260.219 26.1484 258.414 24.6016 255.555 24.6016C252.672 24.6016 250.867 26.2188 250.727 28.3281H252.695C252.953 27.1328 253.938 26.3945 255.508 26.3945C257.195 26.3945 258.18 27.2852 258.18 28.7734V29.793L254.688 29.9922C251.875 30.1562 250.27 31.4688 250.27 33.5547C250.27 35.7461 251.898 37.2109 254.324 37.2109ZM272.934 28.8086C272.676 26.6172 270.859 24.6016 267.812 24.6016C264.449 24.6016 262.211 27.0625 262.211 30.9062C262.211 34.832 264.461 37.2109 267.836 37.2109C270.602 37.2109 272.641 35.5 272.957 33.0742H270.953C270.602 34.5391 269.512 35.418 267.848 35.418C265.738 35.418 264.285 33.7422 264.285 30.9062C264.285 28.1406 265.715 26.3945 267.824 26.3945C269.617 26.3945 270.648 27.4844 270.941 28.8086H272.934ZM279.719 26.3711C281.641 26.3711 282.918 27.8242 282.965 29.8633H276.344C276.473 27.8359 277.809 26.3711 279.719 26.3711ZM282.918 33.5078C282.578 34.6562 281.441 35.4414 279.895 35.4414C277.703 35.4414 276.332 33.9062 276.332 31.5742V31.457H285.074V30.6836C285.074 26.9922 283.047 24.6016 279.754 24.6016C276.391 24.6016 274.234 27.168 274.234 30.9531C274.234 34.7852 276.355 37.2109 279.848 37.2109C282.508 37.2109 284.57 35.6406 284.922 33.5078H282.918ZM293.195 37.2109C296.312 37.2109 298.375 34.7383 298.375 30.9062C298.375 27.0859 296.301 24.6016 293.23 24.6016C291.508 24.6016 290.09 25.457 289.328 26.8516H289.281V20.0898H287.242V37H289.188V34.9375H289.234C290.02 36.3438 291.414 37.2109 293.195 37.2109ZM292.797 26.3945C294.953 26.3945 296.289 28.1406 296.289 30.9062C296.289 33.6953 294.953 35.418 292.797 35.418C290.734 35.418 289.27 33.625 289.27 30.9062C289.27 28.1992 290.734 26.3945 292.797 26.3945ZM305.5 37.2109C308.863 37.2109 311.137 34.7852 311.137 30.9062C311.137 27.0156 308.863 24.6016 305.5 24.6016C302.125 24.6016 299.852 27.0156 299.852 30.9062C299.852 34.7852 302.125 37.2109 305.5 37.2109ZM305.5 35.418C303.344 35.418 301.926 33.7773 301.926 30.9062C301.926 28.0352 303.344 26.3945 305.5 26.3945C307.656 26.3945 309.062 28.0352 309.062 30.9062C309.062 33.7773 307.656 35.418 305.5 35.418ZM318.25 37.2109C321.613 37.2109 323.887 34.7852 323.887 30.9062C323.887 27.0156 321.613 24.6016 318.25 24.6016C314.875 24.6016 312.602 27.0156 312.602 30.9062C312.602 34.7852 314.875 37.2109 318.25 37.2109ZM318.25 35.418C316.094 35.418 314.676 33.7773 314.676 30.9062C314.676 28.0352 316.094 26.3945 318.25 26.3945C320.406 26.3945 321.812 28.0352 321.812 30.9062C321.812 33.7773 320.406 35.418 318.25 35.418ZM328.094 30.2266V20.0898H326.055V37H328.094V32.4062L329.23 31.3281L333.754 37H336.121L330.672 30.0742L335.957 24.8125H333.484L328.094 30.2266Z" fill="white"/>
<path d="M73.3331 28C73.3331 20.268 67.3636 14 59.9999 14C52.6361 14 46.6666 20.268 46.6666 28C46.6666 34.9878 51.5424 40.7797 57.9166 41.8299V32.0469H54.5312V28H57.9166V24.9156C57.9166 21.4069 59.9071 19.4688 62.9527 19.4688C64.4115 19.4688 65.9374 19.7422 65.9374 19.7422V23.1875H64.2561C62.5997 23.1875 62.0832 24.2667 62.0832 25.3738V28H65.7811L65.19 32.0469H62.0832V41.8299C68.4574 40.7797 73.3331 34.9878 73.3331 28Z" fill="white"/>
<path d="M65.1902 32.0468L65.7813 28H62.0834V25.3738C62.0834 24.2667 62.6 23.1875 64.2563 23.1875H65.9376V19.7422C65.9376 19.7422 64.4117 19.4688 62.953 19.4688C59.9073 19.4688 57.9168 21.4069 57.9168 24.9156V28H54.5314V32.0468H57.9168V41.8299C58.606 41.9433 59.3025 42.0001 60.0001 41.9999C60.7089 41.9999 61.4046 41.9417 62.0834 41.8299V32.0468H65.1902Z" fill="#1877F2"/>
<defs>
<filter id="filter0_d" x="0" y="0" width="500" height="68" filterUnits="userSpaceOnUse" color-interpolation-filters="sRGB">
<feFlood flood-opacity="0" result="BackgroundImageFix"/>
<feColorMatrix in="SourceAlpha" type="matrix" values="0 0 0 0 0 0 0 0 0 0 0 0 0 0 0 0 0 0 127 0"/>
<feOffset dy="8"/>
<feGaussianBlur stdDeviation="2"/>
<feColorMatrix type="matrix" values="0 0 0 0 0 0 0 0 0 0 0 0 0 0 0 0 0 0 0.25 0"/>
<feBlend mode="normal" in2="BackgroundImageFix" result="effect1_dropShadow"/>
<feBlend mode="normal" in="SourceGraphic" in2="effect1_dropShadow" result="shape"/>
</filter>
</defs>
</svg>
