<svg width="32" height="32" viewBox="0 0 20 20" fill="none" xmlns="http://www.w3.org/2000/svg">
<path d="M9.89996 12.8917C9.48329 11.2333 7.81663 10 5.83329 10C3.53329 10 1.66663 11.6583 1.66663 13.7C3.30829 14.075 4.74163 14.1667 5.83329 14.1667C7.04163 14.1667 8.10829 14.05 8.99996 13.9C9.24163 13.525 9.54163 13.1833 9.89996 12.8917Z" fill="#fff"/>
<path d="M5.83333 7.5C6.98393 7.5 7.91667 6.56725 7.91667 5.41666C7.91667 4.26607 6.98393 3.33333 5.83333 3.33333C4.68274 3.33333 3.75 4.26607 3.75 5.41666C3.75 6.56725 4.68274 7.5 5.83333 7.5Z" fill="#fff"/>
<path d="M8.33337 16.1083C10.3 16.55 12.025 16.6667 13.3334 16.6667C15.3584 16.6667 17.0667 16.4 18.3334 16.1083C18.3334 13.65 16.0917 11.6667 13.3334 11.6667C10.575 11.6667 8.33337 13.6583 8.33337 16.1083Z" fill="#fff"/>
<path d="M13.3334 9.16667C14.7141 9.16667 15.8334 8.04738 15.8334 6.66667C15.8334 5.28596 14.7141 4.16667 13.3334 4.16667C11.9526 4.16667 10.8334 5.28596 10.8334 6.66667C10.8334 8.04738 11.9526 9.16667 13.3334 9.16667Z" fill="#fff"/>
</svg>
