<svg width="455" height="72" viewBox="0 0 455 72" fill="none" xmlns="http://www.w3.org/2000/svg">
<g filter="url(#filter0_d)">
<rect x="8" width="439" height="56" rx="10" fill="#FF3C3C" fill-opacity="0.98"/>
</g>
<path d="M121.832 32.3477C122.031 35.3359 124.516 37.2812 128.102 37.2812C131.992 37.2812 134.43 35.3477 134.43 32.2539C134.43 29.8281 133.012 28.4805 129.508 27.6016L127.738 27.1328C125.441 26.5352 124.504 25.7734 124.504 24.4961C124.504 22.8438 126.027 21.707 128.219 21.707C130.422 21.707 131.887 22.8203 132.074 24.6367H134.184C134.09 21.8008 131.652 19.8086 128.289 19.8086C124.773 19.8086 122.312 21.7773 122.312 24.5898C122.312 26.8867 123.695 28.2578 126.812 29.0547L128.98 29.6172C131.254 30.2031 132.25 31.082 132.25 32.5117C132.25 34.1758 130.586 35.3828 128.301 35.3828C125.887 35.3828 124.152 34.1758 123.953 32.3477H121.832ZM136.68 37H138.719V24.8125H136.68V37ZM137.699 22.7617C138.402 22.7617 138.977 22.1875 138.977 21.4961C138.977 20.793 138.402 20.2305 137.699 20.2305C137.008 20.2305 136.434 20.793 136.434 21.4961C136.434 22.1875 137.008 22.7617 137.699 22.7617ZM146.43 35.3008C144.332 35.3008 142.961 33.5898 142.961 30.8594C142.961 28.1289 144.332 26.3945 146.43 26.3945C148.551 26.3945 149.969 28.1758 149.969 30.8594C149.969 33.543 148.551 35.3008 146.43 35.3008ZM146.5 41.5938C149.863 41.5938 152.008 39.6602 152.008 36.7539V24.8125H150.062V26.8633H150.027C149.219 25.4453 147.789 24.6016 146.066 24.6016C142.914 24.6016 140.875 27.0391 140.875 30.8594C140.875 34.6445 142.914 37.0938 146.02 37.0938C147.73 37.0938 149.172 36.2266 149.922 34.9023H149.969V36.8242C149.969 38.6406 148.691 39.8594 146.582 39.8594C145.059 39.8594 143.852 39.1211 143.453 38.0078H141.355C141.695 40.082 143.816 41.5938 146.5 41.5938ZM154.668 37H156.707V29.8281C156.707 27.7656 157.961 26.4062 159.883 26.4062C161.758 26.4062 162.684 27.4844 162.684 29.4531V37H164.723V29.0898C164.723 26.3242 163.176 24.6016 160.504 24.6016C158.617 24.6016 157.316 25.4453 156.637 26.7578H156.59V24.8125H154.668V37ZM172.352 37H174.391V24.8125H172.352V37ZM173.371 22.7617C174.074 22.7617 174.648 22.1875 174.648 21.4961C174.648 20.793 174.074 20.2305 173.371 20.2305C172.68 20.2305 172.105 20.793 172.105 21.4961C172.105 22.1875 172.68 22.7617 173.371 22.7617ZM177.145 37H179.184V29.8281C179.184 27.7656 180.438 26.4062 182.359 26.4062C184.234 26.4062 185.16 27.4844 185.16 29.4531V37H187.199V29.0898C187.199 26.3242 185.652 24.6016 182.98 24.6016C181.094 24.6016 179.793 25.4453 179.113 26.7578H179.066V24.8125H177.145V37ZM210.227 24.8125H208.211L205.773 34.7266H205.727L202.961 24.8125H200.992L198.238 34.7266H198.191L195.754 24.8125H193.727L197.137 37H199.211L201.953 27.5664H202L204.754 37H206.828L210.227 24.8125ZM212.008 37H214.047V24.8125H212.008V37ZM213.027 22.7617C213.73 22.7617 214.305 22.1875 214.305 21.4961C214.305 20.793 213.73 20.2305 213.027 20.2305C212.336 20.2305 211.762 20.793 211.762 21.4961C211.762 22.1875 212.336 22.7617 213.027 22.7617ZM217.457 21.8711V24.8125H215.641V26.4883H217.457V33.8359C217.457 36.1797 218.324 37.0938 220.562 37.0938C221.043 37.0938 221.605 37.0586 221.852 37V35.2891C221.711 35.3125 221.242 35.3477 221.008 35.3477C219.965 35.3477 219.496 34.8438 219.496 33.7305V26.4883H221.863V24.8125H219.496V21.8711H217.457ZM224.148 37H226.188V29.8984C226.188 27.7891 227.441 26.4062 229.469 26.4062C231.379 26.4062 232.352 27.5664 232.352 29.5V37H234.391V29.125C234.391 26.4062 232.773 24.6016 230.102 24.6016C228.25 24.6016 226.914 25.3984 226.234 26.7578H226.188V20.0898H224.148V37ZM256.48 30.0039V28.3984H249.602V30.25H254.371V30.5547C254.371 33.3906 252.309 35.3359 249.309 35.3359C245.863 35.3359 243.73 32.6992 243.73 28.4453C243.73 24.2617 245.828 21.7539 249.309 21.7539C251.688 21.7539 253.457 23.0547 254.16 25.3398H256.375C255.742 21.9766 252.965 19.8086 249.309 19.8086C244.574 19.8086 241.562 23.1719 241.562 28.457C241.562 33.8359 244.586 37.2812 249.309 37.2812C253.82 37.2812 256.48 34.5742 256.48 30.0039ZM263.922 37.2109C267.285 37.2109 269.559 34.7852 269.559 30.9062C269.559 27.0156 267.285 24.6016 263.922 24.6016C260.547 24.6016 258.273 27.0156 258.273 30.9062C258.273 34.7852 260.547 37.2109 263.922 37.2109ZM263.922 35.418C261.766 35.418 260.348 33.7773 260.348 30.9062C260.348 28.0352 261.766 26.3945 263.922 26.3945C266.078 26.3945 267.484 28.0352 267.484 30.9062C267.484 33.7773 266.078 35.418 263.922 35.418ZM276.672 37.2109C280.035 37.2109 282.309 34.7852 282.309 30.9062C282.309 27.0156 280.035 24.6016 276.672 24.6016C273.297 24.6016 271.023 27.0156 271.023 30.9062C271.023 34.7852 273.297 37.2109 276.672 37.2109ZM276.672 35.418C274.516 35.418 273.098 33.7773 273.098 30.9062C273.098 28.0352 274.516 26.3945 276.672 26.3945C278.828 26.3945 280.234 28.0352 280.234 30.9062C280.234 33.7773 278.828 35.418 276.672 35.418ZM289.328 35.3008C287.23 35.3008 285.859 33.5898 285.859 30.8594C285.859 28.1289 287.23 26.3945 289.328 26.3945C291.449 26.3945 292.867 28.1758 292.867 30.8594C292.867 33.543 291.449 35.3008 289.328 35.3008ZM289.398 41.5938C292.762 41.5938 294.906 39.6602 294.906 36.7539V24.8125H292.961V26.8633H292.926C292.117 25.4453 290.688 24.6016 288.965 24.6016C285.812 24.6016 283.773 27.0391 283.773 30.8594C283.773 34.6445 285.812 37.0938 288.918 37.0938C290.629 37.0938 292.07 36.2266 292.82 34.9023H292.867V36.8242C292.867 38.6406 291.59 39.8594 289.48 39.8594C287.957 39.8594 286.75 39.1211 286.352 38.0078H284.254C284.594 40.082 286.715 41.5938 289.398 41.5938ZM297.672 37H299.711V20.0898H297.672V37ZM307.352 26.3711C309.273 26.3711 310.551 27.8242 310.598 29.8633H303.977C304.105 27.8359 305.441 26.3711 307.352 26.3711ZM310.551 33.5078C310.211 34.6562 309.074 35.4414 307.527 35.4414C305.336 35.4414 303.965 33.9062 303.965 31.5742V31.457H312.707V30.6836C312.707 26.9922 310.68 24.6016 307.387 24.6016C304.023 24.6016 301.867 27.168 301.867 30.9531C301.867 34.7852 303.988 37.2109 307.48 37.2109C310.141 37.2109 312.203 35.6406 312.555 33.5078H310.551Z" fill="#FBFBFB"/>
<path d="M60.75 40.5C53.45 40.5 47.5 34.8875 47.5 28C47.5 21.1125 53.45 15.5 60.75 15.5C64 15.5 67.125 16.6 69.1125 18.4375C69.8 19.075 69.8125 20.125 69.1375 20.775C68.4625 21.425 67.3625 21.4375 66.6625 20.8C65.325 19.5625 63.05 18.8 60.7375 18.8C55.3625 18.8 50.9875 22.925 50.9875 28C50.9875 33.075 55.3625 37.2 60.7375 37.2C65.5125 37.2 67.9125 34.0125 68.7125 30.725H60.4375C59.475 30.725 58.6875 29.9875 58.6875 29.075C58.6875 28.1625 59.475 27.425 60.4375 27.425H70.7375C71.225 27.425 71.6875 27.6125 72.0125 27.95C72.3375 28.2875 72.5125 28.7375 72.475 29.1875C71.975 35.9625 67.2625 40.5 60.75 40.5Z" fill="white"/>
<defs>
<filter id="filter0_d" x="0" y="0" width="455" height="72" filterUnits="userSpaceOnUse" color-interpolation-filters="sRGB">
<feFlood flood-opacity="0" result="BackgroundImageFix"/>
<feColorMatrix in="SourceAlpha" type="matrix" values="0 0 0 0 0 0 0 0 0 0 0 0 0 0 0 0 0 0 127 0"/>
<feOffset dy="8"/>
<feGaussianBlur stdDeviation="4"/>
<feColorMatrix type="matrix" values="0 0 0 0 0 0 0 0 0 0 0 0 0 0 0 0 0 0 0.1 0"/>
<feBlend mode="normal" in2="BackgroundImageFix" result="effect1_dropShadow"/>
<feBlend mode="normal" in="SourceGraphic" in2="effect1_dropShadow" result="shape"/>
</filter>
</defs>
</svg>
