<svg width="30" height="30" viewBox="0 0 30 30" fill="none" xmlns="http://www.w3.org/2000/svg">
<path fill-rule="evenodd" clip-rule="evenodd" d="M6.25 11.1125L15 3.75L23.75 11.1125V26.25C23.75 26.9375 23.1875 27.5 22.5 27.5H7.5C6.8125 27.5 6.25 26.9375 6.25 26.25V11.1125Z" fill="white"/>
<path fill-rule="evenodd" clip-rule="evenodd" d="M10 3.125V7.9625L6.25 11.1125V3.125C6.25 2.775 6.525 2.5 6.875 2.5H9.375C9.725 2.5 10 2.775 10 3.125Z" fill="white"/>
<path fill-rule="evenodd" clip-rule="evenodd" d="M15.8051 2.79386C15.3399 2.40205 14.6601 2.40205 14.1947 2.79386L2.31975 12.7939C1.79175 13.2385 1.72412 14.0271 2.16887 14.5551C2.6135 15.0832 3.40212 15.1509 3.93012 14.7061L15 5.38417L26.0698 14.7061C26.5979 15.1509 27.3864 15.0832 27.8311 14.5551C28.2758 14.0271 28.2082 13.2385 27.6801 12.7939L15.8051 2.79386Z" fill="white"/>
</svg>
