<svg width="1218" height="232" viewBox="0 0 1218 232" fill="none" xmlns="http://www.w3.org/2000/svg">
<rect width="1218" height="232" fill="url(#paint0_linear_1798:70)"/>
<path d="M48.4396 145.334L56.8674 115.365L25.4341 107.33L17.0064 137.299L48.4396 145.334Z" fill="#FF8E9A"/>
<path d="M125.499 114.545L137.817 128.064L119.389 131.479L125.499 114.545Z" fill="#FFFF44"/>
<path d="M236.559 129.019C248.828 129.019 258.774 119.536 258.774 107.839C258.774 96.1424 248.828 86.6602 236.559 86.6602C224.29 86.6602 214.345 96.1424 214.345 107.839C214.345 119.536 224.29 129.019 236.559 129.019Z" stroke="#D0B5F9" stroke-width="5"/>
<path d="M75.1128 218.508C84.2711 218.508 91.6954 211.43 91.6954 202.699C91.6954 193.967 84.2711 186.889 75.1128 186.889C65.9544 186.889 58.5301 193.967 58.5301 202.699C58.5301 211.43 65.9544 218.508 75.1128 218.508Z" stroke="#F78EFF" stroke-width="5"/>
<path d="M56.6011 12V27.7818" stroke="#4BE0FF" stroke-width="3"/>
<path d="M31.9506 20.6594L44.6304 30.8071" stroke="#4BE0FF" stroke-width="3.00031"/>
<path d="M44.1639 67.1023L51.1596 52.7991" stroke="#4BE0FF" stroke-width="3"/>
<path d="M70.5024 67.1025L63.5067 52.7993" stroke="#4BE0FF" stroke-width="3"/>
<path d="M80.995 20.6626L68.3145 30.807" stroke="#4BE0FF" stroke-width="3"/>
<path d="M86.3489 48.9581L70.6975 43.8201" stroke="#4BE0FF" stroke-width="3"/>
<path d="M27.3692 48.9576L43.0206 43.8196" stroke="#4BE0FF" stroke-width="3"/>
<path d="M182.174 43.8482L160.44 34.6212L150.762 55.3423L172.496 64.5693L182.174 43.8482Z" fill="#51F9C6"/>
<path d="M198.397 179.785L158.534 185.975L182.45 215.14L198.397 179.785ZM201.478 177.492L182.928 218.619L155.106 184.692L201.478 177.492Z" fill="#74ECFF"/>
<path d="M284.962 14.7676L262.839 26.9117L275.763 48.1813L297.886 36.0372L284.962 14.7676Z" stroke="#FFFF44" stroke-width="3"/>
<path d="M276.608 214.034C284.902 214.034 291.626 207.623 291.626 199.716C291.626 191.808 284.902 185.397 276.608 185.397C268.313 185.397 261.589 191.808 261.589 199.716C261.589 207.623 268.313 214.034 276.608 214.034Z" fill="#C78FFF"/>
<path d="M310.423 93.7066L351.833 115.037L314.032 138.448L310.423 93.7066Z" fill="#FF8E9A"/>
<path d="M859.787 137.491L867.34 109.024L837.723 102.053L830.17 130.519L859.787 137.491Z" stroke="#4BE0FF" stroke-width="3"/>
<path d="M1012.38 22.6685L1018.49 39.6026L1000.06 36.1875L1012.38 22.6685Z" fill="#FFFF44"/>
<path d="M948.252 111.717C961.212 111.717 971.718 101.701 971.718 89.3449C971.718 76.9889 961.212 66.9724 948.252 66.9724C935.292 66.9724 924.786 76.9889 924.786 89.3449C924.786 101.701 935.292 111.717 948.252 111.717Z" stroke="#6B61E4" stroke-width="5"/>
<path d="M866.277 213.139C875.435 213.139 882.86 206.061 882.86 197.329C882.86 188.598 875.435 181.519 866.277 181.519C857.119 181.519 849.694 188.598 849.694 197.329C849.694 206.061 857.119 213.139 866.277 213.139Z" stroke="#F78EFF" stroke-width="5"/>
<path d="M1104.43 12V27.7818" stroke="#51F9C6" stroke-width="3"/>
<path d="M1129.08 20.6621L1116.4 30.8065" stroke="#51F9C6" stroke-width="3"/>
<path d="M1116.87 67.1025L1109.87 52.7993" stroke="#51F9C6" stroke-width="3"/>
<path d="M1090.53 67.1023L1097.53 52.7991" stroke="#51F9C6" stroke-width="3"/>
<path d="M1080.04 20.6623L1092.72 30.8066" stroke="#51F9C6" stroke-width="3"/>
<path d="M1074.68 48.9576L1090.33 43.8196" stroke="#51F9C6" stroke-width="3"/>
<path d="M1133.66 48.9575L1118.01 43.8195" stroke="#51F9C6" stroke-width="3"/>
<path d="M872.534 46.8784L869.906 23.1338L845.001 25.6395L847.629 49.3841L872.534 46.8784Z" fill="#FF8E9A"/>
<path d="M959.55 170.08L951.663 207.916L988.532 197.26L959.55 170.08ZM958.385 166.49L992.1 198.109L949.21 210.505L958.385 166.49Z" fill="#D0B5F9"/>
<path d="M1045.5 140.137L1022.62 149.85L1012.43 128.038L1035.31 118.325L1045.5 140.137Z" fill="#51F9C6"/>
<path d="M1083.42 219.403C1094.82 219.403 1104.07 210.589 1104.07 199.716C1104.07 188.842 1094.82 180.028 1083.42 180.028C1072.01 180.028 1062.77 188.842 1062.77 199.716C1062.77 210.589 1072.01 219.403 1083.42 219.403Z" fill="#FFFF44"/>
<path d="M1139.1 100.881L1135.49 145.623L1097.69 122.212L1139.1 100.881Z" fill="#FCA1FF"/>
<path d="M588 91C607.33 91 623 75.33 623 56C623 36.67 607.33 21 588 21C568.67 21 553 36.67 553 56C553 75.33 568.67 91 588 91Z" fill="#3672F8"/>
<path d="M588.036 60.8546L591.52 74.8245L595.039 67.7865L602.077 71.3055L596.796 57.265C596.45 57.2494 596.104 57.306 595.781 57.4314C595.458 57.5567 595.165 57.748 594.92 57.993C594.675 58.238 594.484 58.5314 594.358 58.8544C594.233 59.1774 594.176 59.523 594.192 59.8691V59.8869C594.218 60.4015 594.083 60.9114 593.808 61.3466C593.532 61.7818 593.128 62.1211 592.652 62.3177C592.176 62.5144 591.651 62.5588 591.148 62.4449C590.646 62.3311 590.191 62.0645 589.846 61.6817C589.615 61.4301 589.335 61.2273 589.024 61.0852C588.713 60.9432 588.377 60.8648 588.036 60.8546V60.8546Z" stroke="#F8F8F8" stroke-width="2" stroke-linecap="round" stroke-linejoin="round"/>
<path d="M586.153 61.6811C585.808 62.0639 585.353 62.3305 584.851 62.4443C584.348 62.5582 583.823 62.5138 583.347 62.3171C582.87 62.1205 582.467 61.7812 582.191 61.346C581.915 60.9108 581.781 60.4009 581.807 59.8863V59.8685C581.822 59.5226 581.766 59.1773 581.64 58.8546C581.515 58.5318 581.324 58.2386 581.079 57.9937C580.835 57.7488 580.542 57.5576 580.219 57.4321C579.896 57.3066 579.551 57.2497 579.205 57.265L573.924 71.3055L580.962 67.7865L584.481 74.8246L587.965 60.8546C587.623 60.8644 587.287 60.9425 586.976 61.0845C586.664 61.2264 586.384 61.4293 586.153 61.6811V61.6811Z" stroke="#F8F8F8" stroke-width="2" stroke-linecap="round" stroke-linejoin="round"/>
<path d="M589.848 40.4619C590.193 40.0791 590.647 39.8125 591.15 39.6987C591.652 39.5848 592.178 39.6293 592.654 39.8259C593.13 40.0226 593.534 40.3618 593.81 40.797C594.085 41.2322 594.219 41.7421 594.194 42.2567C594.176 42.6041 594.232 42.9513 594.356 43.276C594.481 43.6008 594.672 43.896 594.917 44.1428C595.162 44.3895 595.456 44.5824 595.78 44.709C596.104 44.8356 596.45 44.8932 596.798 44.878C597.313 44.8519 597.823 44.9859 598.258 45.2614C598.694 45.537 599.033 45.9406 599.23 46.4169C599.427 46.8932 599.472 47.4188 599.358 47.9214C599.244 48.4241 598.977 48.8792 598.595 49.2242C598.337 49.458 598.131 49.7432 597.99 50.0613C597.849 50.3795 597.777 50.7235 597.777 51.0715C597.777 51.4194 597.849 51.7635 597.99 52.0817C598.131 52.3998 598.337 52.685 598.595 52.9188C598.976 53.2643 599.241 53.7191 599.354 54.2211C599.467 54.7231 599.422 55.2477 599.226 55.7233C599.03 56.1989 598.691 56.6022 598.257 56.8781C597.823 57.1541 597.314 57.2892 596.8 57.265C596.451 57.2473 596.102 57.303 595.775 57.4284C595.449 57.5538 595.153 57.7462 594.905 57.9932C594.658 58.2401 594.465 58.5362 594.339 58.8622C594.213 59.1883 594.157 59.5371 594.174 59.8863C594.199 60.4008 594.065 60.9107 593.789 61.346C593.514 61.7812 593.11 62.1204 592.634 62.3171C592.157 62.5137 591.632 62.5582 591.13 62.4443C590.627 62.3304 590.172 62.0638 589.827 61.6811C589.594 61.4235 589.308 61.2176 588.99 61.0767C588.672 60.9358 588.328 60.863 587.98 60.863C587.632 60.863 587.288 60.9358 586.97 61.0767C586.652 61.2176 586.367 61.4235 586.133 61.6811C585.787 62.0624 585.332 62.3277 584.83 62.4407C584.328 62.5537 583.804 62.509 583.328 62.3126C582.853 62.1162 582.449 61.7777 582.173 61.3434C581.897 60.9091 581.762 60.4002 581.787 59.8863C581.804 59.5375 581.747 59.1891 581.622 58.8634C581.496 58.5377 581.303 58.2419 581.056 57.9951C580.81 57.7482 580.514 57.5557 580.188 57.43C579.862 57.3042 579.514 57.248 579.165 57.265C578.651 57.2906 578.141 57.1564 577.706 56.8807C577.27 56.605 576.931 56.2013 576.734 55.7251C576.538 55.2489 576.493 54.7235 576.607 54.2211C576.721 53.7186 576.988 53.2637 577.37 52.9188C577.628 52.685 577.834 52.3998 577.975 52.0817C578.116 51.7635 578.189 51.4194 578.189 51.0715C578.189 50.7235 578.116 50.3795 577.975 50.0613C577.834 49.7432 577.628 49.458 577.37 49.2242C576.99 48.8764 576.727 48.4199 576.616 47.9169C576.505 47.4138 576.552 46.8888 576.75 46.4135C576.949 45.9381 577.289 45.5356 577.725 45.2608C578.161 44.986 578.67 44.8523 579.185 44.878C579.532 44.8955 579.88 44.8403 580.204 44.7159C580.529 44.5914 580.825 44.4005 581.071 44.1554C581.318 43.9103 581.511 43.6163 581.638 43.2923C581.764 42.9683 581.822 42.6214 581.807 42.2739C581.778 41.7582 581.91 41.2462 582.184 40.8085C582.459 40.3709 582.862 40.0291 583.339 39.8303C583.816 39.6315 584.342 39.5855 584.846 39.6987C585.35 39.8118 585.807 40.0784 586.153 40.4619C586.385 40.7232 586.669 40.9324 586.987 41.0757C587.306 41.219 587.651 41.2931 588 41.2931C588.35 41.2931 588.695 41.219 589.013 41.0757C589.332 40.9324 589.616 40.7232 589.848 40.4619V40.4619Z" stroke="#F8F8F8" stroke-width="2" stroke-linecap="round" stroke-linejoin="round"/>
<path d="M588.001 55.4701C588.871 55.4701 589.721 55.2121 590.444 54.7287C591.168 54.2453 591.732 53.5583 592.065 52.7545C592.398 51.9506 592.485 51.0661 592.315 50.2128C592.145 49.3594 591.726 48.5756 591.111 47.9604C590.496 47.3453 589.712 46.9264 588.858 46.7567C588.005 46.587 587.12 46.6742 586.317 47.0073C585.513 47.3403 584.826 47.9042 584.343 48.6277C583.859 49.3512 583.601 50.2017 583.602 51.0718C583.602 52.2384 584.065 53.3571 584.89 54.1819C585.715 55.0068 586.834 55.4701 588.001 55.4701Z" stroke="#F8F8F8" stroke-width="2" stroke-linecap="round" stroke-linejoin="round"/>
<path d="M455.805 143.488C462.719 143.488 467.543 139.504 468.207 133.215H462.465C461.84 136.555 459.32 138.605 455.824 138.605C451.312 138.605 448.48 134.895 448.48 128.879C448.48 122.941 451.352 119.211 455.805 119.211C459.242 119.211 461.898 121.477 462.445 124.934H468.188C467.738 118.625 462.582 114.328 455.805 114.328C447.641 114.328 442.465 119.816 442.465 128.898C442.465 138 447.602 143.488 455.805 143.488ZM480.98 143.449C487.309 143.449 491.352 139.406 491.352 132.512C491.352 125.715 487.25 121.613 480.98 121.613C474.711 121.613 470.609 125.734 470.609 132.512C470.609 139.387 474.652 143.449 480.98 143.449ZM480.98 139.094C478.168 139.094 476.391 136.73 476.391 132.531C476.391 128.371 478.207 125.969 480.98 125.969C483.754 125.969 485.551 128.371 485.551 132.531C485.551 136.73 483.773 139.094 480.98 139.094ZM494.301 143H500.004V130.988C500.004 128.273 501.625 126.398 504.184 126.398C506.742 126.398 508.031 127.961 508.031 130.695V143H513.734V129.504C513.734 124.602 511.117 121.672 506.469 121.672C503.246 121.672 501.039 123.195 499.926 125.793H499.809V122.062H494.301V143ZM527.016 138.547C524.184 138.547 522.426 136.32 522.426 132.492C522.426 128.684 524.203 126.301 527.016 126.301C529.867 126.301 531.684 128.723 531.684 132.492C531.684 136.281 529.867 138.547 527.016 138.547ZM526.918 150.891C533.188 150.891 537.367 147.707 537.367 142.707V122.062H531.742V125.715H531.645C530.551 123.312 528.188 121.73 525.18 121.73C519.867 121.73 516.586 125.812 516.586 132.453C516.586 138.996 519.965 142.941 525.082 142.941C528.109 142.941 530.57 141.418 531.547 139.191H531.664V142.863C531.664 145.285 530.023 146.926 527.074 146.926C524.906 146.926 523.266 145.93 522.816 144.484H517.23C517.68 148.215 521.41 150.891 526.918 150.891ZM541.098 143H546.801V131.301C546.801 128.352 548.441 126.633 551.254 126.633C552.074 126.633 552.855 126.77 553.324 126.965V121.945C552.934 121.828 552.367 121.73 551.703 121.73C549.242 121.73 547.465 123.176 546.723 125.832H546.605V122.062H541.098V143ZM563.246 139.211C561.312 139.211 560.023 138.234 560.023 136.672C560.023 135.188 561.234 134.23 563.363 134.074L567.777 133.801V135.324C567.777 137.59 565.727 139.211 563.246 139.211ZM561.371 143.332C563.988 143.332 566.586 142.023 567.758 139.797H567.875V143H573.383V128.605C573.383 124.387 569.887 121.613 564.516 121.613C558.969 121.613 555.512 124.406 555.297 128.469H560.512C560.785 126.926 562.133 125.871 564.262 125.871C566.41 125.871 567.777 127.004 567.777 128.957V130.344L562.504 130.656C557.289 130.969 554.359 133.176 554.359 136.984C554.359 140.754 557.387 143.332 561.371 143.332ZM578.598 117.238V122.062H575.648V126.359H578.598V137.355C578.598 141.438 580.512 143.078 585.434 143.078C586.586 143.078 587.562 142.98 588.148 142.844V138.645C587.797 138.703 587.27 138.742 586.762 138.742C585.082 138.742 584.301 137.98 584.301 136.379V126.359H588.168V122.062H584.301V117.238H578.598ZM610.629 122.062H604.926V134.055C604.926 136.828 603.344 138.645 600.805 138.645C598.285 138.645 596.898 137.16 596.898 134.367V122.062H591.195V135.559C591.195 140.441 594.203 143.391 598.734 143.391C601.898 143.391 603.969 141.867 605.004 139.23H605.121V143H610.629V122.062ZM614.477 143H620.18V114.816H614.477V143ZM632.113 139.211C630.18 139.211 628.891 138.234 628.891 136.672C628.891 135.188 630.102 134.23 632.23 134.074L636.645 133.801V135.324C636.645 137.59 634.594 139.211 632.113 139.211ZM630.238 143.332C632.855 143.332 635.453 142.023 636.625 139.797H636.742V143H642.25V128.605C642.25 124.387 638.754 121.613 633.383 121.613C627.836 121.613 624.379 124.406 624.164 128.469H629.379C629.652 126.926 631 125.871 633.129 125.871C635.277 125.871 636.645 127.004 636.645 128.957V130.344L631.371 130.656C626.156 130.969 623.227 133.176 623.227 136.984C623.227 140.754 626.254 143.332 630.238 143.332ZM647.465 117.238V122.062H644.516V126.359H647.465V137.355C647.465 141.438 649.379 143.078 654.301 143.078C655.453 143.078 656.43 142.98 657.016 142.844V138.645C656.664 138.703 656.137 138.742 655.629 138.742C653.949 138.742 653.168 137.98 653.168 136.379V126.359H657.035V122.062H653.168V117.238H647.465ZM660.258 143H665.961V122.062H660.258V143ZM663.109 119.758C664.828 119.758 666.156 118.449 666.156 116.809C666.156 115.148 664.828 113.859 663.109 113.859C661.391 113.859 660.062 115.148 660.062 116.809C660.062 118.449 661.391 119.758 663.109 119.758ZM679.379 143.449C685.707 143.449 689.75 139.406 689.75 132.512C689.75 125.715 685.648 121.613 679.379 121.613C673.109 121.613 669.008 125.734 669.008 132.512C669.008 139.387 673.051 143.449 679.379 143.449ZM679.379 139.094C676.566 139.094 674.789 136.73 674.789 132.531C674.789 128.371 676.605 125.969 679.379 125.969C682.152 125.969 683.949 128.371 683.949 132.531C683.949 136.73 682.172 139.094 679.379 139.094ZM692.699 143H698.402V130.988C698.402 128.273 700.023 126.398 702.582 126.398C705.141 126.398 706.43 127.961 706.43 130.695V143H712.133V129.504C712.133 124.602 709.516 121.672 704.867 121.672C701.645 121.672 699.438 123.195 698.324 125.793H698.207V122.062H692.699V143ZM715.395 128.215C715.395 131.301 717.426 133.371 721.391 134.27L725.258 135.129C727.133 135.578 727.836 136.164 727.836 137.219C727.836 138.586 726.527 139.445 724.359 139.445C722.094 139.445 720.707 138.43 720.434 136.672H714.867C715.18 140.754 718.617 143.449 724.203 143.449C729.73 143.449 733.52 140.734 733.52 136.613C733.52 133.488 731.82 131.828 727.621 130.891L723.617 130.031C721.781 129.602 720.883 128.898 720.883 127.863C720.883 126.516 722.172 125.617 724.145 125.617C726.254 125.617 727.602 126.652 727.719 128.332H732.973C732.895 124.27 729.477 121.613 724.223 121.613C718.852 121.613 715.395 124.23 715.395 128.215Z" fill="white"/>
<path d="M369.914 179V166.49H374.357V164.908H363.713V166.49H368.156V179H369.914ZM376.037 179H377.736V173.082C377.736 171.324 378.781 170.172 380.471 170.172C382.062 170.172 382.873 171.139 382.873 172.75V179H384.572V172.438C384.572 170.172 383.225 168.668 380.998 168.668C379.455 168.668 378.342 169.332 377.775 170.465H377.736V164.908H376.037V179ZM390.803 170.143C392.404 170.143 393.469 171.354 393.508 173.053H387.99C388.098 171.363 389.211 170.143 390.803 170.143ZM393.469 176.09C393.186 177.047 392.238 177.701 390.949 177.701C389.123 177.701 387.98 176.422 387.98 174.479V174.381H395.266V173.736C395.266 170.66 393.576 168.668 390.832 168.668C388.029 168.668 386.232 170.807 386.232 173.961C386.232 177.154 388 179.176 390.91 179.176C393.127 179.176 394.846 177.867 395.139 176.09H393.469ZM396.809 171.646C396.809 173.033 397.688 173.951 399.475 174.41L401.262 174.869C402.404 175.172 402.824 175.562 402.824 176.285C402.824 177.203 401.975 177.789 400.598 177.789C399.221 177.789 398.42 177.223 398.234 176.168H396.535C396.711 177.965 398.264 179.176 400.49 179.176C402.863 179.176 404.533 177.926 404.533 176.158C404.533 174.664 403.791 173.922 401.74 173.404L400.168 173.023C399.016 172.73 398.479 172.262 398.479 171.559C398.479 170.67 399.299 170.055 400.539 170.055C401.789 170.055 402.58 170.66 402.697 171.637H404.318C404.24 169.918 402.697 168.668 400.598 168.668C398.361 168.668 396.809 169.908 396.809 171.646ZM410.373 170.143C411.975 170.143 413.039 171.354 413.078 173.053H407.561C407.668 171.363 408.781 170.143 410.373 170.143ZM413.039 176.09C412.756 177.047 411.809 177.701 410.52 177.701C408.693 177.701 407.551 176.422 407.551 174.479V174.381H414.836V173.736C414.836 170.66 413.146 168.668 410.402 168.668C407.6 168.668 405.803 170.807 405.803 173.961C405.803 177.154 407.57 179.176 410.48 179.176C412.697 179.176 414.416 177.867 414.709 176.09H413.039ZM428.996 168.844H427.297V174.811C427.297 176.539 426.301 177.672 424.65 177.672C423.078 177.672 422.307 176.783 422.307 175.133V168.844H420.607V175.436C420.607 177.74 421.906 179.176 424.123 179.176C425.686 179.176 426.74 178.521 427.346 177.35H427.385V179H428.996V168.844ZM431.027 171.646C431.027 173.033 431.906 173.951 433.693 174.41L435.48 174.869C436.623 175.172 437.043 175.562 437.043 176.285C437.043 177.203 436.193 177.789 434.816 177.789C433.439 177.789 432.639 177.223 432.453 176.168H430.754C430.93 177.965 432.482 179.176 434.709 179.176C437.082 179.176 438.752 177.926 438.752 176.158C438.752 174.664 438.01 173.922 435.959 173.404L434.387 173.023C433.234 172.73 432.697 172.262 432.697 171.559C432.697 170.67 433.518 170.055 434.758 170.055C436.008 170.055 436.799 170.66 436.916 171.637H438.537C438.459 169.918 436.916 168.668 434.816 168.668C432.58 168.668 431.027 169.908 431.027 171.646ZM444.592 170.143C446.193 170.143 447.258 171.354 447.297 173.053H441.779C441.887 171.363 443 170.143 444.592 170.143ZM447.258 176.09C446.975 177.047 446.027 177.701 444.738 177.701C442.912 177.701 441.77 176.422 441.77 174.479V174.381H449.055V173.736C449.055 170.66 447.365 168.668 444.621 168.668C441.818 168.668 440.021 170.807 440.021 173.961C440.021 177.154 441.789 179.176 444.699 179.176C446.916 179.176 448.635 177.867 448.928 176.09H447.258ZM450.773 179H452.473V172.672C452.473 171.236 453.332 170.289 454.65 170.289C455.061 170.289 455.422 170.338 455.559 170.387V168.736C455.422 168.717 455.168 168.668 454.875 168.668C453.684 168.668 452.746 169.381 452.414 170.504H452.375V168.844H450.773V179ZM456.77 171.646C456.77 173.033 457.648 173.951 459.436 174.41L461.223 174.869C462.365 175.172 462.785 175.562 462.785 176.285C462.785 177.203 461.936 177.789 460.559 177.789C459.182 177.789 458.381 177.223 458.195 176.168H456.496C456.672 177.965 458.225 179.176 460.451 179.176C462.824 179.176 464.494 177.926 464.494 176.158C464.494 174.664 463.752 173.922 461.701 173.404L460.129 173.023C458.977 172.73 458.439 172.262 458.439 171.559C458.439 170.67 459.26 170.055 460.5 170.055C461.75 170.055 462.541 170.66 462.658 171.637H464.279C464.201 169.918 462.658 168.668 460.559 168.668C458.322 168.668 456.77 169.908 456.77 171.646ZM470.451 179H472.15V173.082C472.15 171.324 473.195 170.172 474.885 170.172C476.477 170.172 477.287 171.139 477.287 172.75V179H478.986V172.438C478.986 170.172 477.639 168.668 475.412 168.668C473.869 168.668 472.756 169.332 472.189 170.465H472.15V164.908H470.451V179ZM484.494 177.73C483.273 177.73 482.463 177.096 482.463 176.129C482.463 175.172 483.244 174.566 484.611 174.479L487.326 174.312V175.143C487.326 176.607 486.096 177.73 484.494 177.73ZM484.113 179.176C485.48 179.176 486.77 178.414 487.375 177.252H487.414V179H489.025V171.979C489.025 169.957 487.521 168.668 485.139 168.668C482.736 168.668 481.232 170.016 481.115 171.773H482.756C482.971 170.777 483.791 170.162 485.1 170.162C486.506 170.162 487.326 170.904 487.326 172.145V172.994L484.416 173.16C482.072 173.297 480.734 174.391 480.734 176.129C480.734 177.955 482.092 179.176 484.113 179.176ZM499.514 168.844H497.746L494.934 177.193H494.895L492.092 168.844H490.305L494.045 179H495.783L499.514 168.844ZM504.631 170.143C506.232 170.143 507.297 171.354 507.336 173.053H501.818C501.926 171.363 503.039 170.143 504.631 170.143ZM507.297 176.09C507.014 177.047 506.066 177.701 504.777 177.701C502.951 177.701 501.809 176.422 501.809 174.479V174.381H509.094V173.736C509.094 170.66 507.404 168.668 504.66 168.668C501.857 168.668 500.061 170.807 500.061 173.961C500.061 177.154 501.828 179.176 504.738 179.176C506.955 179.176 508.674 177.867 508.967 176.09H507.297ZM514.738 171.646C514.738 173.033 515.617 173.951 517.404 174.41L519.191 174.869C520.334 175.172 520.754 175.562 520.754 176.285C520.754 177.203 519.904 177.789 518.527 177.789C517.15 177.789 516.35 177.223 516.164 176.168H514.465C514.641 177.965 516.193 179.176 518.42 179.176C520.793 179.176 522.463 177.926 522.463 176.158C522.463 174.664 521.721 173.922 519.67 173.404L518.098 173.023C516.945 172.73 516.408 172.262 516.408 171.559C516.408 170.67 517.229 170.055 518.469 170.055C519.719 170.055 520.51 170.66 520.627 171.637H522.248C522.17 169.918 520.627 168.668 518.527 168.668C516.291 168.668 514.738 169.908 514.738 171.646ZM532.668 172.174C532.453 170.348 530.939 168.668 528.4 168.668C525.598 168.668 523.732 170.719 523.732 173.922C523.732 177.193 525.607 179.176 528.42 179.176C530.725 179.176 532.424 177.75 532.688 175.729H531.018C530.725 176.949 529.816 177.682 528.43 177.682C526.672 177.682 525.461 176.285 525.461 173.922C525.461 171.617 526.652 170.162 528.41 170.162C529.904 170.162 530.764 171.07 531.008 172.174H532.668ZM538.459 179.176C541.262 179.176 543.156 177.154 543.156 173.922C543.156 170.68 541.262 168.668 538.459 168.668C535.646 168.668 533.752 170.68 533.752 173.922C533.752 177.154 535.646 179.176 538.459 179.176ZM538.459 177.682C536.662 177.682 535.48 176.314 535.48 173.922C535.48 171.529 536.662 170.162 538.459 170.162C540.256 170.162 541.428 171.529 541.428 173.922C541.428 176.314 540.256 177.682 538.459 177.682ZM544.875 179H546.574V172.672C546.574 171.236 547.434 170.289 548.752 170.289C549.162 170.289 549.523 170.338 549.66 170.387V168.736C549.523 168.717 549.27 168.668 548.977 168.668C547.785 168.668 546.848 169.381 546.516 170.504H546.477V168.844H544.875V179ZM554.631 170.143C556.232 170.143 557.297 171.354 557.336 173.053H551.818C551.926 171.363 553.039 170.143 554.631 170.143ZM557.297 176.09C557.014 177.047 556.066 177.701 554.777 177.701C552.951 177.701 551.809 176.422 551.809 174.479V174.381H559.094V173.736C559.094 170.66 557.404 168.668 554.66 168.668C551.857 168.668 550.061 170.807 550.061 173.961C550.061 177.154 551.828 179.176 554.738 179.176C556.955 179.176 558.674 177.867 558.967 176.09H557.297ZM564.66 179.176C566.125 179.176 567.287 178.453 567.941 177.281H567.971V179H569.592V164.908H567.893V170.494H567.854C567.248 169.381 566.076 168.668 564.621 168.668C562.062 168.668 560.314 170.738 560.314 173.922C560.314 177.105 562.072 179.176 564.66 179.176ZM564.982 170.162C566.73 170.162 567.902 171.656 567.902 173.922C567.902 176.197 566.73 177.682 564.982 177.682C563.186 177.682 562.053 176.227 562.053 173.922C562.053 171.627 563.186 170.162 564.982 170.162ZM576.535 166.393V168.844H575.021V170.24H576.535V176.363C576.535 178.316 577.258 179.078 579.123 179.078C579.523 179.078 579.992 179.049 580.197 179V177.574C580.08 177.594 579.689 177.623 579.494 177.623C578.625 177.623 578.234 177.203 578.234 176.275V170.24H580.207V168.844H578.234V166.393H576.535ZM582.111 179H583.811V173.082C583.811 171.324 584.855 170.172 586.545 170.172C588.137 170.172 588.947 171.139 588.947 172.75V179H590.646V172.438C590.646 170.172 589.299 168.668 587.072 168.668C585.529 168.668 584.416 169.332 583.85 170.465H583.811V164.908H582.111V179ZM596.877 170.143C598.479 170.143 599.543 171.354 599.582 173.053H594.064C594.172 171.363 595.285 170.143 596.877 170.143ZM599.543 176.09C599.26 177.047 598.312 177.701 597.023 177.701C595.197 177.701 594.055 176.422 594.055 174.479V174.381H601.34V173.736C601.34 170.66 599.65 168.668 596.906 168.668C594.104 168.668 592.307 170.807 592.307 173.961C592.307 177.154 594.074 179.176 596.984 179.176C599.201 179.176 600.92 177.867 601.213 176.09H599.543ZM607.248 179H608.947V173.082C608.947 171.324 609.992 170.172 611.682 170.172C613.273 170.172 614.084 171.139 614.084 172.75V179H615.783V172.438C615.783 170.172 614.436 168.668 612.209 168.668C610.666 168.668 609.553 169.332 608.986 170.465H608.947V164.908H607.248V179ZM618.029 179H619.729V168.844H618.029V179ZM618.879 167.135C619.465 167.135 619.943 166.656 619.943 166.08C619.943 165.494 619.465 165.025 618.879 165.025C618.303 165.025 617.824 165.494 617.824 166.08C617.824 166.656 618.303 167.135 618.879 167.135ZM626.154 177.584C624.406 177.584 623.264 176.158 623.264 173.883C623.264 171.607 624.406 170.162 626.154 170.162C627.922 170.162 629.104 171.646 629.104 173.883C629.104 176.119 627.922 177.584 626.154 177.584ZM626.213 182.828C629.016 182.828 630.803 181.217 630.803 178.795V168.844H629.182V170.553H629.152C628.479 169.371 627.287 168.668 625.852 168.668C623.225 168.668 621.525 170.699 621.525 173.883C621.525 177.037 623.225 179.078 625.812 179.078C627.238 179.078 628.439 178.355 629.064 177.252H629.104V178.854C629.104 180.367 628.039 181.383 626.281 181.383C625.012 181.383 624.006 180.768 623.674 179.84H621.926C622.209 181.568 623.977 182.828 626.213 182.828ZM633.107 179H634.807V173.082C634.807 171.324 635.852 170.172 637.541 170.172C639.133 170.172 639.943 171.139 639.943 172.75V179H641.643V172.438C641.643 170.172 640.295 168.668 638.068 168.668C636.525 168.668 635.412 169.332 634.846 170.465H634.807V164.908H633.107V179ZM647.873 170.143C649.475 170.143 650.539 171.354 650.578 173.053H645.061C645.168 171.363 646.281 170.143 647.873 170.143ZM650.539 176.09C650.256 177.047 649.309 177.701 648.02 177.701C646.193 177.701 645.051 176.422 645.051 174.479V174.381H652.336V173.736C652.336 170.66 650.646 168.668 647.902 168.668C645.1 168.668 643.303 170.807 643.303 173.961C643.303 177.154 645.07 179.176 647.98 179.176C650.197 179.176 651.916 177.867 652.209 176.09H650.539ZM653.879 171.646C653.879 173.033 654.758 173.951 656.545 174.41L658.332 174.869C659.475 175.172 659.895 175.562 659.895 176.285C659.895 177.203 659.045 177.789 657.668 177.789C656.291 177.789 655.49 177.223 655.305 176.168H653.605C653.781 177.965 655.334 179.176 657.561 179.176C659.934 179.176 661.604 177.926 661.604 176.158C661.604 174.664 660.861 173.922 658.811 173.404L657.238 173.023C656.086 172.73 655.549 172.262 655.549 171.559C655.549 170.67 656.369 170.055 657.609 170.055C658.859 170.055 659.65 170.66 659.768 171.637H661.389C661.311 169.918 659.768 168.668 657.668 168.668C655.432 168.668 653.879 169.908 653.879 171.646ZM663.918 166.393V168.844H662.404V170.24H663.918V176.363C663.918 178.316 664.641 179.078 666.506 179.078C666.906 179.078 667.375 179.049 667.58 179V177.574C667.463 177.594 667.072 177.623 666.877 177.623C666.008 177.623 665.617 177.203 665.617 176.275V170.24H667.59V168.844H665.617V166.393H663.918ZM676.857 177.73C675.637 177.73 674.826 177.096 674.826 176.129C674.826 175.172 675.607 174.566 676.975 174.479L679.689 174.312V175.143C679.689 176.607 678.459 177.73 676.857 177.73ZM676.477 179.176C677.844 179.176 679.133 178.414 679.738 177.252H679.777V179H681.389V171.979C681.389 169.957 679.885 168.668 677.502 168.668C675.1 168.668 673.596 170.016 673.479 171.773H675.119C675.334 170.777 676.154 170.162 677.463 170.162C678.869 170.162 679.689 170.904 679.689 172.145V172.994L676.779 173.16C674.436 173.297 673.098 174.391 673.098 176.129C673.098 177.955 674.455 179.176 676.477 179.176ZM683.547 179H685.246V172.633C685.246 171.227 686.223 170.172 687.57 170.172C688.83 170.172 689.65 170.973 689.65 172.193V179H691.35V172.545C691.35 171.168 692.297 170.172 693.645 170.172C694.982 170.172 695.754 170.992 695.754 172.379V179H697.453V171.988C697.453 169.977 696.154 168.668 694.143 168.668C692.717 168.668 691.525 169.391 690.959 170.602H690.92C690.48 169.371 689.455 168.668 688.068 168.668C686.701 168.668 685.666 169.391 685.188 170.465H685.148V168.844H683.547V179ZM703.83 179.176C706.633 179.176 708.527 177.154 708.527 173.922C708.527 170.68 706.633 168.668 703.83 168.668C701.018 168.668 699.123 170.68 699.123 173.922C699.123 177.154 701.018 179.176 703.83 179.176ZM703.83 177.682C702.033 177.682 700.852 176.314 700.852 173.922C700.852 171.529 702.033 170.162 703.83 170.162C705.627 170.162 706.799 171.529 706.799 173.922C706.799 176.314 705.627 177.682 703.83 177.682ZM718.586 168.844H716.887V174.811C716.887 176.539 715.891 177.672 714.24 177.672C712.668 177.672 711.896 176.783 711.896 175.133V168.844H710.197V175.436C710.197 177.74 711.496 179.176 713.713 179.176C715.275 179.176 716.33 178.521 716.936 177.35H716.975V179H718.586V168.844ZM720.793 179H722.492V173.023C722.492 171.305 723.537 170.172 725.139 170.172C726.701 170.172 727.473 171.07 727.473 172.711V179H729.172V172.408C729.172 170.104 727.883 168.668 725.656 168.668C724.084 168.668 723 169.371 722.434 170.465H722.395V168.844H720.793V179ZM731.887 166.393V168.844H730.373V170.24H731.887V176.363C731.887 178.316 732.609 179.078 734.475 179.078C734.875 179.078 735.344 179.049 735.549 179V177.574C735.432 177.594 735.041 177.623 734.846 177.623C733.977 177.623 733.586 177.203 733.586 176.275V170.24H735.559V168.844H733.586V166.393H731.887ZM745.686 179.176C748.488 179.176 750.383 177.154 750.383 173.922C750.383 170.68 748.488 168.668 745.686 168.668C742.873 168.668 740.979 170.68 740.979 173.922C740.979 177.154 742.873 179.176 745.686 179.176ZM745.686 177.682C743.889 177.682 742.707 176.314 742.707 173.922C742.707 171.529 743.889 170.162 745.686 170.162C747.482 170.162 748.654 171.529 748.654 173.922C748.654 176.314 747.482 177.682 745.686 177.682ZM752.648 179H754.348V170.24H756.418V168.844H754.338V167.721C754.338 166.715 754.777 166.227 755.695 166.227C755.979 166.227 756.262 166.256 756.467 166.285V164.908C756.223 164.869 755.812 164.83 755.432 164.83C753.557 164.83 752.648 165.758 752.648 167.711V168.844H751.232V170.24H752.648V179ZM767.209 168.668C765.734 168.668 764.553 169.42 763.928 170.562H763.889V168.844H762.277V182.389H763.977V177.35H764.016C764.621 178.463 765.793 179.176 767.248 179.176C769.807 179.176 771.555 177.105 771.555 173.922C771.555 170.738 769.797 168.668 767.209 168.668ZM766.877 177.682C765.139 177.682 763.967 176.188 763.967 173.922C763.967 171.666 765.139 170.162 766.877 170.162C768.684 170.162 769.816 171.627 769.816 173.922C769.816 176.227 768.684 177.682 766.877 177.682ZM777.482 179.176C780.285 179.176 782.18 177.154 782.18 173.922C782.18 170.68 780.285 168.668 777.482 168.668C774.67 168.668 772.775 170.68 772.775 173.922C772.775 177.154 774.67 179.176 777.482 179.176ZM777.482 177.682C775.686 177.682 774.504 176.314 774.504 173.922C774.504 171.529 775.686 170.162 777.482 170.162C779.279 170.162 780.451 171.529 780.451 173.922C780.451 176.314 779.279 177.682 777.482 177.682ZM783.986 179H785.686V168.844H783.986V179ZM784.836 167.135C785.422 167.135 785.9 166.656 785.9 166.08C785.9 165.494 785.422 165.025 784.836 165.025C784.26 165.025 783.781 165.494 783.781 166.08C783.781 166.656 784.26 167.135 784.836 167.135ZM787.98 179H789.68V173.023C789.68 171.305 790.725 170.172 792.326 170.172C793.889 170.172 794.66 171.07 794.66 172.711V179H796.359V172.408C796.359 170.104 795.07 168.668 792.844 168.668C791.271 168.668 790.188 169.371 789.621 170.465H789.582V168.844H787.98V179ZM799.074 166.393V168.844H797.561V170.24H799.074V176.363C799.074 178.316 799.797 179.078 801.662 179.078C802.062 179.078 802.531 179.049 802.736 179V177.574C802.619 177.594 802.229 177.623 802.033 177.623C801.164 177.623 800.773 177.203 800.773 176.275V170.24H802.746V168.844H800.773V166.393H799.074ZM804.387 171.646C804.387 173.033 805.266 173.951 807.053 174.41L808.84 174.869C809.982 175.172 810.402 175.562 810.402 176.285C810.402 177.203 809.553 177.789 808.176 177.789C806.799 177.789 805.998 177.223 805.812 176.168H804.113C804.289 177.965 805.842 179.176 808.068 179.176C810.441 179.176 812.111 177.926 812.111 176.158C812.111 174.664 811.369 173.922 809.318 173.404L807.746 173.023C806.594 172.73 806.057 172.262 806.057 171.559C806.057 170.67 806.877 170.055 808.117 170.055C809.367 170.055 810.158 170.66 810.275 171.637H811.896C811.818 169.918 810.275 168.668 808.176 168.668C805.939 168.668 804.387 169.908 804.387 171.646ZM541.564 203.176C544.162 203.176 545.881 201.115 545.881 197.922C545.881 194.738 544.152 192.668 541.594 192.668C540.158 192.668 538.977 193.381 538.342 194.543H538.303V188.908H536.604V203H538.225V201.281H538.264C538.918 202.453 540.08 203.176 541.564 203.176ZM541.232 194.162C543.029 194.162 544.143 195.617 544.143 197.922C544.143 200.246 543.029 201.682 541.232 201.682C539.514 201.682 538.293 200.188 538.293 197.922C538.293 195.666 539.514 194.162 541.232 194.162ZM548.156 206.799C549.992 206.799 550.832 206.086 551.701 203.713L555.695 192.844H553.908L551.096 201.301H551.066L548.254 192.844H546.438L550.188 203.01L549.953 203.723C549.562 204.904 549.035 205.363 548.088 205.363C547.873 205.363 547.609 205.354 547.424 205.314V206.74C547.609 206.779 547.951 206.799 548.156 206.799ZM561.691 190.393V192.844H560.178V194.24H561.691V200.363C561.691 202.316 562.414 203.078 564.279 203.078C564.68 203.078 565.148 203.049 565.354 203V201.574C565.236 201.594 564.846 201.623 564.65 201.623C563.781 201.623 563.391 201.203 563.391 200.275V194.24H565.363V192.844H563.391V190.393H561.691ZM567.18 203H568.879V196.672C568.879 195.236 569.738 194.289 571.057 194.289C571.467 194.289 571.828 194.338 571.965 194.387V192.736C571.828 192.717 571.574 192.668 571.281 192.668C570.09 192.668 569.152 193.381 568.82 194.504H568.781V192.844H567.18V203ZM576.506 201.73C575.285 201.73 574.475 201.096 574.475 200.129C574.475 199.172 575.256 198.566 576.623 198.479L579.338 198.312V199.143C579.338 200.607 578.107 201.73 576.506 201.73ZM576.125 203.176C577.492 203.176 578.781 202.414 579.387 201.252H579.426V203H581.037V195.979C581.037 193.957 579.533 192.668 577.15 192.668C574.748 192.668 573.244 194.016 573.127 195.773H574.768C574.982 194.777 575.803 194.162 577.111 194.162C578.518 194.162 579.338 194.904 579.338 196.145V196.994L576.428 197.16C574.084 197.297 572.746 198.391 572.746 200.129C572.746 201.955 574.104 203.176 576.125 203.176ZM591.525 192.844H589.758L586.945 201.193H586.906L584.104 192.844H582.316L586.057 203H587.795L591.525 192.844ZM596.643 194.143C598.244 194.143 599.309 195.354 599.348 197.053H593.83C593.938 195.363 595.051 194.143 596.643 194.143ZM599.309 200.09C599.025 201.047 598.078 201.701 596.789 201.701C594.963 201.701 593.82 200.422 593.82 198.479V198.381H601.105V197.736C601.105 194.66 599.416 192.668 596.672 192.668C593.869 192.668 592.072 194.807 592.072 197.961C592.072 201.154 593.84 203.176 596.75 203.176C598.967 203.176 600.686 201.867 600.979 200.09H599.309ZM602.912 203H604.611V188.908H602.912V203ZM606.994 203H608.693V188.908H606.994V203ZM611.076 203H612.775V192.844H611.076V203ZM611.926 191.135C612.512 191.135 612.99 190.656 612.99 190.08C612.99 189.494 612.512 189.025 611.926 189.025C611.35 189.025 610.871 189.494 610.871 190.08C610.871 190.656 611.35 191.135 611.926 191.135ZM615.07 203H616.77V197.023C616.77 195.305 617.814 194.172 619.416 194.172C620.979 194.172 621.75 195.07 621.75 196.711V203H623.449V196.408C623.449 194.104 622.16 192.668 619.934 192.668C618.361 192.668 617.277 193.371 616.711 194.465H616.672V192.844H615.07V203ZM629.748 201.584C628 201.584 626.857 200.158 626.857 197.883C626.857 195.607 628 194.162 629.748 194.162C631.516 194.162 632.697 195.646 632.697 197.883C632.697 200.119 631.516 201.584 629.748 201.584ZM629.807 206.828C632.609 206.828 634.396 205.217 634.396 202.795V192.844H632.775V194.553H632.746C632.072 193.371 630.881 192.668 629.445 192.668C626.818 192.668 625.119 194.699 625.119 197.883C625.119 201.037 626.818 203.078 629.406 203.078C630.832 203.078 632.033 202.355 632.658 201.252H632.697V202.854C632.697 204.367 631.633 205.383 629.875 205.383C628.605 205.383 627.6 204.768 627.268 203.84H625.52C625.803 205.568 627.57 206.828 629.807 206.828ZM638.049 203.098C638.674 203.098 639.162 202.609 639.162 201.984C639.162 201.359 638.674 200.871 638.049 200.871C637.424 200.871 636.936 201.359 636.936 201.984C636.936 202.609 637.424 203.098 638.049 203.098Z" fill="white"/>
<defs>
<linearGradient id="paint0_linear_1798:70" x1="-670.5" y1="47" x2="-137.343" y2="994.388" gradientUnits="userSpaceOnUse">
<stop stop-color="#22D792"/>
<stop offset="1" stop-color="#349AF6"/>
</linearGradient>
</defs>
</svg>
