<svg width="30" height="26" viewBox="0 0 30 26" fill="none" xmlns="http://www.w3.org/2000/svg">
<path fill-rule="evenodd" clip-rule="evenodd" d="M15 2.16666H15.0125C19.6375 2.16666 23.6 5.36249 23.75 9.21916C23.7875 10.4 23.3875 11.6892 22.825 12.6858C22.825 12.6858 22.8125 12.6967 22.8125 12.7075L16.1 23.2808C15.875 23.6492 15.4375 23.8333 15 23.8333C14.5625 23.8333 14.125 23.6492 13.9 23.2808L7.18749 12.7075C7.18749 12.6967 7.17499 12.6858 7.17499 12.6858C6.61249 11.6892 6.21249 10.4 6.24999 9.21916C6.39999 5.36249 10.3625 2.16666 14.9875 2.16666H15ZM18.125 9.74999C18.125 11.2457 16.7259 12.4583 15 12.4583C13.2741 12.4583 11.875 11.2457 11.875 9.74999C11.875 8.25422 13.2741 7.04166 15 7.04166C16.7259 7.04166 18.125 8.25422 18.125 9.74999Z" fill="white"/>
</svg>
