<svg width="30" height="30" viewBox="0 0 30 30" fill="none" xmlns="http://www.w3.org/2000/svg">
<path d="M15.0125 2.5H15H14.9875C10.3625 2.5 6.39999 6.1875 6.24999 10.6375C6.21249 12 6.61249 13.4875 7.17499 14.6375C7.17499 14.6375 7.18749 14.65 7.18749 14.6625L13.9 26.8625C14.125 27.2875 14.5625 27.5 15 27.5C15.4375 27.5 15.875 27.2875 16.1 26.8625L22.8125 14.6625C22.8125 14.65 22.825 14.6375 22.825 14.6375C23.3875 13.4875 23.7875 12 23.75 10.6375C23.6 6.1875 19.6375 2.5 15.0125 2.5Z" fill="#B5C3CC"/>
<path d="M15 14.375C16.7259 14.375 18.125 12.9759 18.125 11.25C18.125 9.52411 16.7259 8.125 15 8.125C13.2741 8.125 11.875 9.52411 11.875 11.25C11.875 12.9759 13.2741 14.375 15 14.375Z" fill="#B5C3CC"/>
<path d="M15 14.375C16.7259 14.375 18.125 12.9759 18.125 11.25C18.125 9.52411 16.7259 8.125 15 8.125C13.2741 8.125 11.875 9.52411 11.875 11.25C11.875 12.9759 13.2741 14.375 15 14.375Z" stroke="white" stroke-miterlimit="10" stroke-linecap="round" stroke-linejoin="round"/>
</svg>
