<svg width="447" height="68" viewBox="0 0 447 68" fill="none" xmlns="http://www.w3.org/2000/svg">
<g filter="url(#filter0_d)">
<rect x="4" width="439" height="56" rx="10" fill="white" fill-opacity="0.98"/>
</g>
<path d="M118.832 32.3477C119.031 35.3359 121.516 37.2812 125.102 37.2812C128.992 37.2812 131.43 35.3477 131.43 32.2539C131.43 29.8281 130.012 28.4805 126.508 27.6016L124.738 27.1328C122.441 26.5352 121.504 25.7734 121.504 24.4961C121.504 22.8438 123.027 21.707 125.219 21.707C127.422 21.707 128.887 22.8203 129.074 24.6367H131.184C131.09 21.8008 128.652 19.8086 125.289 19.8086C121.773 19.8086 119.312 21.7773 119.312 24.5898C119.312 26.8867 120.695 28.2578 123.812 29.0547L125.98 29.6172C128.254 30.2031 129.25 31.082 129.25 32.5117C129.25 34.1758 127.586 35.3828 125.301 35.3828C122.887 35.3828 121.152 34.1758 120.953 32.3477H118.832ZM133.68 37H135.719V24.8125H133.68V37ZM134.699 22.7617C135.402 22.7617 135.977 22.1875 135.977 21.4961C135.977 20.793 135.402 20.2305 134.699 20.2305C134.008 20.2305 133.434 20.793 133.434 21.4961C133.434 22.1875 134.008 22.7617 134.699 22.7617ZM143.43 35.3008C141.332 35.3008 139.961 33.5898 139.961 30.8594C139.961 28.1289 141.332 26.3945 143.43 26.3945C145.551 26.3945 146.969 28.1758 146.969 30.8594C146.969 33.543 145.551 35.3008 143.43 35.3008ZM143.5 41.5938C146.863 41.5938 149.008 39.6602 149.008 36.7539V24.8125H147.062V26.8633H147.027C146.219 25.4453 144.789 24.6016 143.066 24.6016C139.914 24.6016 137.875 27.0391 137.875 30.8594C137.875 34.6445 139.914 37.0938 143.02 37.0938C144.73 37.0938 146.172 36.2266 146.922 34.9023H146.969V36.8242C146.969 38.6406 145.691 39.8594 143.582 39.8594C142.059 39.8594 140.852 39.1211 140.453 38.0078H138.355C138.695 40.082 140.816 41.5938 143.5 41.5938ZM151.668 37H153.707V29.8281C153.707 27.7656 154.961 26.4062 156.883 26.4062C158.758 26.4062 159.684 27.4844 159.684 29.4531V37H161.723V29.0898C161.723 26.3242 160.176 24.6016 157.504 24.6016C155.617 24.6016 154.316 25.4453 153.637 26.7578H153.59V24.8125H151.668V37ZM169.352 37H171.391V24.8125H169.352V37ZM170.371 22.7617C171.074 22.7617 171.648 22.1875 171.648 21.4961C171.648 20.793 171.074 20.2305 170.371 20.2305C169.68 20.2305 169.105 20.793 169.105 21.4961C169.105 22.1875 169.68 22.7617 170.371 22.7617ZM174.145 37H176.184V29.8281C176.184 27.7656 177.438 26.4062 179.359 26.4062C181.234 26.4062 182.16 27.4844 182.16 29.4531V37H184.199V29.0898C184.199 26.3242 182.652 24.6016 179.98 24.6016C178.094 24.6016 176.793 25.4453 176.113 26.7578H176.066V24.8125H174.145V37ZM207.227 24.8125H205.211L202.773 34.7266H202.727L199.961 24.8125H197.992L195.238 34.7266H195.191L192.754 24.8125H190.727L194.137 37H196.211L198.953 27.5664H199L201.754 37H203.828L207.227 24.8125ZM209.008 37H211.047V24.8125H209.008V37ZM210.027 22.7617C210.73 22.7617 211.305 22.1875 211.305 21.4961C211.305 20.793 210.73 20.2305 210.027 20.2305C209.336 20.2305 208.762 20.793 208.762 21.4961C208.762 22.1875 209.336 22.7617 210.027 22.7617ZM214.457 21.8711V24.8125H212.641V26.4883H214.457V33.8359C214.457 36.1797 215.324 37.0938 217.562 37.0938C218.043 37.0938 218.605 37.0586 218.852 37V35.2891C218.711 35.3125 218.242 35.3477 218.008 35.3477C216.965 35.3477 216.496 34.8438 216.496 33.7305V26.4883H218.863V24.8125H216.496V21.8711H214.457ZM221.148 37H223.188V29.8984C223.188 27.7891 224.441 26.4062 226.469 26.4062C228.379 26.4062 229.352 27.5664 229.352 29.5V37H231.391V29.125C231.391 26.4062 229.773 24.6016 227.102 24.6016C225.25 24.6016 223.914 25.3984 223.234 26.7578H223.188V20.0898H221.148V37ZM255.883 37V20.0898H253.434L247.598 34.1992H247.504L241.668 20.0898H239.219V37H241.188V23.9688H241.27L246.66 36.8828H248.441L253.832 23.9688H253.914V37H255.883ZM258.953 37H260.992V24.8125H258.953V37ZM259.973 22.7617C260.676 22.7617 261.25 22.1875 261.25 21.4961C261.25 20.793 260.676 20.2305 259.973 20.2305C259.281 20.2305 258.707 20.793 258.707 21.4961C258.707 22.1875 259.281 22.7617 259.973 22.7617ZM273.871 28.8086C273.613 26.6172 271.797 24.6016 268.75 24.6016C265.387 24.6016 263.148 27.0625 263.148 30.9062C263.148 34.832 265.398 37.2109 268.773 37.2109C271.539 37.2109 273.578 35.5 273.895 33.0742H271.891C271.539 34.5391 270.449 35.418 268.785 35.418C266.676 35.418 265.223 33.7422 265.223 30.9062C265.223 28.1406 266.652 26.3945 268.762 26.3945C270.555 26.3945 271.586 27.4844 271.879 28.8086H273.871ZM275.77 37H277.809V29.4062C277.809 27.6836 278.84 26.5469 280.422 26.5469C280.914 26.5469 281.348 26.6055 281.512 26.6641V24.6836C281.348 24.6602 281.043 24.6016 280.691 24.6016C279.262 24.6016 278.137 25.457 277.738 26.8047H277.691V24.8125H275.77V37ZM287.641 37.2109C291.004 37.2109 293.277 34.7852 293.277 30.9062C293.277 27.0156 291.004 24.6016 287.641 24.6016C284.266 24.6016 281.992 27.0156 281.992 30.9062C281.992 34.7852 284.266 37.2109 287.641 37.2109ZM287.641 35.418C285.484 35.418 284.066 33.7773 284.066 30.9062C284.066 28.0352 285.484 26.3945 287.641 26.3945C289.797 26.3945 291.203 28.0352 291.203 30.9062C291.203 33.7773 289.797 35.418 287.641 35.418ZM295.129 28.1758C295.129 29.8398 296.184 30.9414 298.328 31.4922L300.473 32.043C301.844 32.4062 302.348 32.875 302.348 33.7422C302.348 34.8438 301.328 35.5469 299.676 35.5469C298.023 35.5469 297.062 34.8672 296.84 33.6016H294.801C295.012 35.7578 296.875 37.2109 299.547 37.2109C302.395 37.2109 304.398 35.7109 304.398 33.5898C304.398 31.7969 303.508 30.9062 301.047 30.2852L299.16 29.8281C297.777 29.4766 297.133 28.9141 297.133 28.0703C297.133 27.0039 298.117 26.2656 299.605 26.2656C301.105 26.2656 302.055 26.9922 302.195 28.1641H304.141C304.047 26.1016 302.195 24.6016 299.676 24.6016C296.992 24.6016 295.129 26.0898 295.129 28.1758ZM311.57 37.2109C314.934 37.2109 317.207 34.7852 317.207 30.9062C317.207 27.0156 314.934 24.6016 311.57 24.6016C308.195 24.6016 305.922 27.0156 305.922 30.9062C305.922 34.7852 308.195 37.2109 311.57 37.2109ZM311.57 35.418C309.414 35.418 307.996 33.7773 307.996 30.9062C307.996 28.0352 309.414 26.3945 311.57 26.3945C313.727 26.3945 315.133 28.0352 315.133 30.9062C315.133 33.7773 313.727 35.418 311.57 35.418ZM319.926 37H321.965V26.4883H324.449V24.8125H321.953V23.4648C321.953 22.2578 322.48 21.6719 323.582 21.6719C323.922 21.6719 324.262 21.707 324.508 21.7422V20.0898C324.215 20.043 323.723 19.9961 323.266 19.9961C321.016 19.9961 319.926 21.1094 319.926 23.4531V24.8125H318.227V26.4883H319.926V37ZM327.215 21.8711V24.8125H325.398V26.4883H327.215V33.8359C327.215 36.1797 328.082 37.0938 330.32 37.0938C330.801 37.0938 331.363 37.0586 331.609 37V35.2891C331.469 35.3125 331 35.3477 330.766 35.3477C329.723 35.3477 329.254 34.8438 329.254 33.7305V26.4883H331.621V24.8125H329.254V21.8711H327.215Z" fill="black"/>
<path d="M58.2812 27.7188H70V16.7812C70 16.35 69.65 16 69.2188 16H58.2812V27.7188Z" fill="#4CAF50"/>
<path d="M56.7188 27.7188V16H45.7812C45.35 16 45 16.35 45 16.7812V27.7188H56.7188Z" fill="#F44336"/>
<path d="M56.7188 29.2812H45V40.2188C45 40.65 45.35 41 45.7812 41H56.7188V29.2812Z" fill="#2196F3"/>
<path d="M58.2812 29.2812V41H69.2188C69.65 41 70 40.65 70 40.2188V29.2812H58.2812Z" fill="#FFC107"/>
<defs>
<filter id="filter0_d" x="0" y="0" width="447" height="68" filterUnits="userSpaceOnUse" color-interpolation-filters="sRGB">
<feFlood flood-opacity="0" result="BackgroundImageFix"/>
<feColorMatrix in="SourceAlpha" type="matrix" values="0 0 0 0 0 0 0 0 0 0 0 0 0 0 0 0 0 0 127 0"/>
<feOffset dy="8"/>
<feGaussianBlur stdDeviation="2"/>
<feColorMatrix type="matrix" values="0 0 0 0 0 0 0 0 0 0 0 0 0 0 0 0 0 0 0.25 0"/>
<feBlend mode="normal" in2="BackgroundImageFix" result="effect1_dropShadow"/>
<feBlend mode="normal" in="SourceGraphic" in2="effect1_dropShadow" result="shape"/>
</filter>
</defs>
</svg>
