<svg width="30" height="30" viewBox="0 0 30 30" fill="none" xmlns="http://www.w3.org/2000/svg">
<path d="M14.85 19.3375C14.225 16.85 11.725 15 8.75 15C5.3 15 2.5 17.4875 2.5 20.55C4.9625 21.1125 7.1125 21.25 8.75 21.25C10.5625 21.25 12.1625 21.075 13.5 20.85C13.8625 20.2875 14.3125 19.775 14.85 19.3375Z" fill="#B5C3CC"/>
<path d="M8.75 11.25C10.4759 11.25 11.875 9.85089 11.875 8.125C11.875 6.39911 10.4759 5 8.75 5C7.02411 5 5.625 6.39911 5.625 8.125C5.625 9.85089 7.02411 11.25 8.75 11.25Z" fill="#B5C3CC"/>
<path d="M12.5 24.1625C15.45 24.825 18.0375 25 20 25C23.0375 25 25.6 24.6 27.5 24.1625C27.5 20.475 24.1375 17.5 20 17.5C15.8625 17.5 12.5 20.4875 12.5 24.1625Z" fill="#B5C3CC"/>
<path d="M20 13.75C22.0711 13.75 23.75 12.0711 23.75 10C23.75 7.92894 22.0711 6.25 20 6.25C17.9289 6.25 16.25 7.92894 16.25 10C16.25 12.0711 17.9289 13.75 20 13.75Z" fill="#B5C3CC"/>
</svg>
