<svg width="17" height="17" viewBox="0 0 17 17" fill="none" xmlns="http://www.w3.org/2000/svg">
<path d="M8.49999 0C5.37544 0 2.83331 2.54213 2.83331 5.66668C2.83331 6.60467 3.06783 7.53469 3.51364 8.35958L8.19011 16.8174C8.25236 16.9301 8.371 17 8.49999 17C8.62898 17 8.74762 16.9301 8.80988 16.8174L13.4881 8.35679C13.9322 7.53469 14.1667 6.60463 14.1667 5.66664C14.1667 2.54213 11.6245 0 8.49999 0ZM8.49999 8.5C6.93772 8.5 5.66667 7.22895 5.66667 5.66668C5.66667 4.1044 6.93772 2.83336 8.49999 2.83336C10.0623 2.83336 11.3333 4.1044 11.3333 5.66668C11.3333 7.22895 10.0623 8.5 8.49999 8.5Z" fill="#2F80ED"/>
</svg>
