<svg width="25" height="24" viewBox="0 0 25 24" fill="none" xmlns="http://www.w3.org/2000/svg">
<path d="M11.7328 22.4138C11.7331 22.4142 11.7334 22.4145 11.7337 22.4148C11.9643 22.6527 12.2793 22.7857 12.6088 22.7857C12.9384 22.7857 13.2535 22.6526 13.4841 22.4146C13.4843 22.4143 13.4846 22.4141 13.4848 22.4138L22.7638 12.8927C26.924 8.62501 23.9952 1.21429 18.0219 1.21429C15.0577 1.21429 13.3312 3.11716 12.6089 3.91941C11.8874 3.11699 10.1662 1.21429 7.19569 1.21429C1.24316 1.21429 -1.72516 8.60489 2.45467 12.8926C2.4547 12.8927 2.45472 12.8927 2.45474 12.8927L11.7328 22.4138Z" fill="#2E68D4" stroke="white"/>
</svg>
