<svg width="21" height="21" viewBox="0 0 21 21" fill="none" xmlns="http://www.w3.org/2000/svg">
<path d="M17.9685 11.2104H16.3445C16.51 11.6636 16.6005 12.1528 16.6005 12.6625V18.8005C16.6005 19.0131 16.5635 19.2171 16.4962 19.4068H19.1811C20.184 19.4068 21 18.5909 21 17.5879V14.2418C21 12.5703 19.6401 11.2104 17.9685 11.2104Z" fill="#2F80ED"/>
<path d="M4.39955 12.6626C4.39955 12.1527 4.48999 11.6637 4.65553 11.2104H3.03147C1.35992 11.2104 0 12.5704 0 14.2419V17.588C0 18.5909 0.815926 19.4069 1.81888 19.4069H4.50385C4.43655 19.2171 4.39955 19.0131 4.39955 18.8006V12.6626Z" fill="#2F80ED"/>
<path d="M12.3564 9.6311H8.64359C6.97204 9.6311 5.61212 10.991 5.61212 12.6626V18.8006C5.61212 19.1354 5.88356 19.4069 6.21842 19.4069H14.7816C15.1164 19.4069 15.3879 19.1354 15.3879 18.8006V12.6626C15.3879 10.991 14.028 9.6311 12.3564 9.6311Z" fill="#2F80ED"/>
<path d="M10.5 1.59305C8.48977 1.59305 6.85431 3.22851 6.85431 5.23881C6.85431 6.60238 7.60691 7.79327 8.71835 8.41852C9.24552 8.71506 9.85329 8.88454 10.5 8.88454C11.1468 8.88454 11.7545 8.71506 12.2817 8.41852C13.3932 7.79327 14.1457 6.60234 14.1457 5.23881C14.1457 3.22855 12.5103 1.59305 10.5 1.59305Z" fill="#2F80ED"/>
<path d="M4.09822 4.99115C2.59479 4.99115 1.3717 6.21424 1.3717 7.71767C1.3717 9.2211 2.59479 10.4442 4.09822 10.4442C4.47959 10.4442 4.84274 10.3652 5.17263 10.2232C5.74299 9.97764 6.21328 9.54295 6.50429 8.99847C6.70854 8.61632 6.82474 8.18037 6.82474 7.71767C6.82474 6.21428 5.60165 4.99115 4.09822 4.99115Z" fill="#2F80ED"/>
<path d="M16.9018 4.99115C15.3984 4.99115 14.1753 6.21424 14.1753 7.71767C14.1753 8.18041 14.2915 8.61637 14.4957 8.99847C14.7868 9.54299 15.257 9.97768 15.8274 10.2232C16.1573 10.3652 16.5204 10.4442 16.9018 10.4442C18.4052 10.4442 19.6283 9.2211 19.6283 7.71767C19.6283 6.21424 18.4052 4.99115 16.9018 4.99115Z" fill="#2F80ED"/>
</svg>
