<svg width="43" height="43" viewBox="0 0 43 43" fill="none" xmlns="http://www.w3.org/2000/svg">
<path fill-rule="evenodd" clip-rule="evenodd" d="M24.8504 8.76123L24.295 4.37165C24.2412 3.92373 23.865 3.58331 23.3991 3.58331H17.827C17.3791 3.58331 16.9849 3.92373 16.9312 4.37165L16.4474 8.22373C16.4116 8.54623 16.1787 8.8329 15.8741 8.9404C14.3691 9.49581 12.9358 10.3558 11.6995 11.4666L7.61451 9.74665C7.20242 9.56748 6.71867 9.72873 6.48576 10.1229L3.69076 14.9604C3.47576 15.3546 3.58326 15.8562 3.94159 16.125L7.47117 18.7946C7.09492 20.6041 7.09492 22.4496 7.45326 24.2054H7.47117L3.94159 26.875C3.58326 27.1437 3.47576 27.6454 3.70867 28.0396L6.50367 32.8771C6.73659 33.2712 7.22034 33.4325 7.63242 33.2533L11.7174 31.5333L11.6995 31.5512C12.3624 32.1425 13.1149 32.68 13.9212 33.1458C14.7274 33.6116 15.5516 33.9879 16.4116 34.2746V34.2387L16.967 38.6283C16.9849 39.0762 17.3791 39.4166 17.827 39.4166H23.417C23.865 39.4166 24.2412 39.0762 24.3129 38.6283L24.7966 34.7762C24.8325 34.4537 25.0654 34.1671 25.37 34.0596C26.875 33.5041 28.3083 32.6441 29.5445 31.5333L33.6295 33.2533C34.0416 33.4325 34.5254 33.2712 34.7583 32.8771L37.5533 28.0396C37.7862 27.6454 37.6787 27.1437 37.3204 26.875L33.7908 24.2054C34.167 22.3958 34.167 20.5504 33.8087 18.7946H33.7908L37.2845 16.125C37.6429 15.8562 37.7504 15.3546 37.5175 14.9604L34.7225 10.1229C34.4895 9.72873 34.0058 9.56748 33.5937 9.74665L29.5266 11.4666L29.5445 11.4487C28.8816 10.8575 28.1291 10.32 27.3229 9.85415C26.5166 9.38831 25.6925 9.01206 24.8325 8.7254" fill="white"/>
<path d="M20.6221 28.6666C24.5801 28.6666 27.7888 25.458 27.7888 21.5C27.7888 17.5419 24.5801 14.3333 20.6221 14.3333C16.6641 14.3333 13.4554 17.5419 13.4554 21.5C13.4554 25.458 16.6641 28.6666 20.6221 28.6666Z" fill="url(#paint0_linear)"/>
<path d="M20.6221 28.6666C24.5801 28.6666 27.7888 25.458 27.7888 21.5C27.7888 17.5419 24.5801 14.3333 20.6221 14.3333C16.6641 14.3333 13.4554 17.5419 13.4554 21.5C13.4554 25.458 16.6641 28.6666 20.6221 28.6666Z" stroke="white" stroke-miterlimit="10" stroke-linecap="round" stroke-linejoin="round"/>
<defs>
<linearGradient id="paint0_linear" x1="13.4554" y1="15.1216" x2="30.3841" y2="23.2837" gradientUnits="userSpaceOnUse">
<stop stop-color="#83C2FE"/>
<stop offset="1" stop-color="#3672F8"/>
</linearGradient>
</defs>
</svg>
