<svg width="30" height="30" viewBox="0 0 30 30" fill="none" xmlns="http://www.w3.org/2000/svg">
<path d="M16.8395 5.6125L16.452 2.55C16.4145 2.2375 16.152 2 15.827 2H11.9395C11.627 2 11.352 2.2375 11.3145 2.55L10.977 5.2375C10.952 5.4625 10.7895 5.6625 10.577 5.7375C9.52696 6.125 8.52696 6.725 7.66446 7.5L4.81446 6.3C4.52696 6.175 4.18946 6.2875 4.02696 6.5625L2.07696 9.9375C1.92696 10.2125 2.00196 10.5625 2.25196 10.75L4.71446 12.6125C4.45196 13.875 4.45196 15.1625 4.70196 16.3875H4.71446L2.25196 18.25C2.00196 18.4375 1.92696 18.7875 2.08946 19.0625L4.03946 22.4375C4.20196 22.7125 4.53946 22.825 4.82696 22.7L7.67696 21.5L7.66446 21.5125C8.12696 21.925 8.65196 22.3 9.21446 22.625C9.77696 22.95 10.352 23.2125 10.952 23.4125V23.3875L11.3395 26.45C11.352 26.7625 11.627 27 11.9395 27H15.8395C16.152 27 16.4145 26.7625 16.4645 26.45L16.802 23.7625C16.827 23.5375 16.9895 23.3375 17.202 23.2625C18.252 22.875 19.252 22.275 20.1145 21.5L22.9645 22.7C23.252 22.825 23.5895 22.7125 23.752 22.4375L25.702 19.0625C25.8645 18.7875 25.7895 18.4375 25.5395 18.25L23.077 16.3875C23.3395 15.125 23.3395 13.8375 23.0895 12.6125H23.077L25.5145 10.75C25.7645 10.5625 25.8395 10.2125 25.677 9.9375L23.727 6.5625C23.5645 6.2875 23.227 6.175 22.9395 6.3L20.102 7.5L20.1145 7.4875C19.652 7.075 19.127 6.7 18.5645 6.375C18.002 6.05 17.427 5.7875 16.827 5.5875" fill="white"/>
<path d="M14.3875 20C17.1489 20 19.3875 17.7614 19.3875 15C19.3875 12.2386 17.1489 10 14.3875 10C11.6261 10 9.3875 12.2386 9.3875 15C9.3875 17.7614 11.6261 20 14.3875 20Z" stroke="#3A93F1" stroke-width="1.5" stroke-miterlimit="10" stroke-linecap="round" stroke-linejoin="round"/>
</svg>
