<svg width="346" height="259" viewBox="0 0 346 259" fill="none" xmlns="http://www.w3.org/2000/svg">
<g clip-path="url(#clip0)">
<path d="M0 79.4907H346.216" stroke="white" stroke-width="0.25" stroke-miterlimit="10"/>
<path d="M346.216 163.751H0" stroke="white" stroke-width="0.25" stroke-miterlimit="10"/>
<path d="M0 95.2485H346.216" stroke="white" stroke-width="0.25" stroke-miterlimit="10"/>
<path d="M346.216 179.509H0" stroke="white" stroke-width="0.25" stroke-miterlimit="10"/>
<path d="M35.5944 57.9729C45.531 57.9729 53.5863 49.9332 53.5863 40.0154C53.5863 30.0979 45.531 22.0581 35.5944 22.0581C25.6577 22.0581 17.6024 30.0979 17.6024 40.0154C17.6024 49.9332 25.6577 57.9729 35.5944 57.9729Z" stroke="#22D792" stroke-width="4.75"/>
<path d="M167.942 219.283C169.543 219.931 170.278 221.744 169.629 223.341L162.363 240.823C161.714 242.42 159.898 243.154 158.298 242.507C156.697 241.859 155.962 240.046 156.611 238.449L163.877 220.967C164.526 219.369 166.342 218.636 167.942 219.283Z" fill="#4382FF"/>
<path d="M174.733 235.687C174.127 237.154 172.44 237.845 170.97 237.241L153.021 229.816C151.551 229.212 150.859 227.528 151.464 226.06C152.07 224.593 153.756 223.902 155.227 224.506L173.176 231.931C174.646 232.579 175.338 234.262 174.733 235.687Z" fill="#4382FF"/>
<path d="M35.2693 35.8284H307.615C311.723 35.8284 315.054 39.1522 315.054 43.253V200.639C315.054 204.74 311.723 208.063 307.615 208.063H35.2693C31.1606 208.063 27.8303 204.74 27.8303 200.639V43.253C27.8303 39.1522 31.1606 35.8284 35.2693 35.8284Z" fill="#4382FF"/>
<path d="M73.5691 46.3611V203.833" stroke="black" stroke-width="0.25"/>
<path d="M83.7757 54.0015H297.69C301.193 54.0015 304.005 56.8505 304.005 60.3038C304.005 63.8003 301.15 66.6061 297.69 66.6061H83.7757C80.2724 66.6061 77.4612 63.7571 77.4612 60.3038C77.4179 56.8073 80.2724 54.0015 83.7757 54.0015Z" fill="#8FE4FF"/>
<path d="M88.1007 140.927C88.1007 134.785 93.1177 129.845 99.2592 129.845H282.163C288.348 129.845 293.322 134.828 293.322 140.927V208.063H88.1007V140.927Z" fill="#8FE4FF"/>
<path d="M53.8471 44.3752H40.699V45.3141H53.8471V44.3752Z" fill="#8FE4FF"/>
<path d="M53.8471 47.0635H40.699V48.0024H53.8471V47.0635Z" fill="#8FE4FF"/>
<path d="M53.8471 49.751H40.699V50.6898H53.8471V49.751Z" fill="#8FE4FF"/>
<path d="M68.3355 93.7576H40.7852V94.6641H68.3355V93.7576Z" fill="#B3CAF8"/>
<path d="M68.3355 96.0454H40.7852V96.9519H68.3355V96.0454Z" fill="#B3CAF8"/>
<path d="M68.3355 98.3333H40.7852V99.2397H68.3355V98.3333Z" fill="#B3CAF8"/>
<path d="M68.3355 104.722H40.7852V105.629H68.3355V104.722Z" fill="#B3CAF8"/>
<path d="M68.3355 107.01H40.7852V107.916H68.3355V107.01Z" fill="#B3CAF8"/>
<path d="M68.3355 109.298H40.7852V110.204H68.3355V109.298Z" fill="#B3CAF8"/>
<path d="M68.3355 115.686H40.7852V116.593H68.3355V115.686Z" fill="#B3CAF8"/>
<path d="M68.3355 117.974H40.7852V118.881H68.3355V117.974Z" fill="#B3CAF8"/>
<path d="M68.3355 120.262H40.7852V121.169H68.3355V120.262Z" fill="#B3CAF8"/>
<path d="M68.3355 126.651H40.7852V127.557H68.3355V126.651Z" fill="#B3CAF8"/>
<path d="M68.3355 128.938H40.7852V129.845H68.3355V128.938Z" fill="#B3CAF8"/>
<path d="M68.3355 131.226H40.7852V132.133H68.3355V131.226Z" fill="#B3CAF8"/>
<path d="M68.3355 137.615H40.7852V138.521H68.3355V137.615Z" fill="#B3CAF8"/>
<path d="M68.3355 139.903H40.7852V140.81H68.3355V139.903Z" fill="#B3CAF8"/>
<path d="M68.3355 142.191H40.7852V143.097H68.3355V142.191Z" fill="#B3CAF8"/>
<path d="M68.3355 148.579H40.7852V149.486H68.3355V148.579Z" fill="#B3CAF8"/>
<path d="M68.3355 150.867H40.7852V151.774H68.3355V150.867Z" fill="#B3CAF8"/>
<path d="M68.3355 153.155H40.7852V154.061H68.3355V153.155Z" fill="#B3CAF8"/>
<path d="M68.3355 159.544H40.7852V160.45H68.3355V159.544Z" fill="#B3CAF8"/>
<path d="M68.3355 161.832H40.7852V162.738H68.3355V161.832Z" fill="#B3CAF8"/>
<path d="M68.3355 164.119H40.7852V165.026H68.3355V164.119Z" fill="#B3CAF8"/>
<path d="M69.1143 169.299H40.9152V197.314H69.1143V169.299Z" fill="#B3CAF8"/>
<path d="M69.1143 60.3035H40.9152V88.3186H69.1143V60.3035Z" fill="#B3CAF8"/>
<path d="M306.21 44.5049L302.318 48.3899" stroke="#78D2EE" stroke-width="0.2691" stroke-linecap="round"/>
<path d="M302.318 44.5049L306.21 48.3899" stroke="#78D2EE" stroke-width="0.2691" stroke-linecap="round"/>
<path d="M294.879 44.3752H290.381V48.4329H294.879V44.3752Z" stroke="#78D2EE" stroke-width="0.2691" stroke-linecap="round"/>
<path d="M278.271 46.3611H282.942" stroke="#78D2EE" stroke-width="0.2691" stroke-linecap="round"/>
<path d="M79.1042 66.6494H302.317" stroke="#78D2EE" stroke-width="0.25"/>
<path d="M130.053 86.0745H158.295C159.246 86.0745 160.025 86.8515 160.025 87.8011V116.032C160.025 116.982 159.246 117.759 158.295 117.759H130.009C129.058 117.759 128.279 116.982 128.279 116.032V87.8011C128.323 86.8515 129.101 86.0745 130.053 86.0745Z" fill="#192439"/>
<path d="M146.66 119.485H128.322V121.989H146.66V119.485Z" fill="#192439"/>
<path d="M144.196 107.356C148.089 107.356 151.245 104.205 151.245 100.319C151.245 96.4331 148.089 93.2832 144.196 93.2832C140.302 93.2832 137.146 96.4331 137.146 100.319C137.146 104.205 140.302 107.356 144.196 107.356Z" fill="#B3CAF8"/>
<path fill-rule="evenodd" clip-rule="evenodd" d="M156.824 117.759H131.48C131.22 117.025 131.091 116.248 131.091 115.471C131.091 110.248 136.929 106.017 144.152 106.017C151.375 106.017 157.214 110.248 157.214 115.471C157.214 116.248 157.084 117.025 156.824 117.759Z" fill="#B3CAF8"/>
<path d="M85.5049 86.0745H113.79C114.742 86.0745 115.52 86.8515 115.52 87.8011V116.032C115.52 116.982 114.742 117.759 113.79 117.759H85.5049C84.5534 117.759 83.7749 116.982 83.7749 116.032V87.8011C83.7749 86.8515 84.5534 86.0745 85.5049 86.0745Z" fill="#192439"/>
<path d="M102.113 119.485H83.7749V121.989H102.113V119.485Z" fill="#192439"/>
<path d="M106.579 101.448C107.203 97.6123 104.593 93.9979 100.75 93.3755C96.9064 92.7526 93.2851 95.3577 92.6614 99.1935C92.0378 103.029 94.6475 106.644 98.4907 107.266C102.334 107.889 105.955 105.284 106.579 101.448Z" fill="#B3CAF8"/>
<path fill-rule="evenodd" clip-rule="evenodd" d="M112.277 117.759H86.9325C86.673 117.025 86.5432 116.248 86.5432 115.471C86.5432 110.248 92.382 106.017 99.6047 106.017C106.827 106.017 112.666 110.248 112.666 115.471C112.666 116.248 112.536 117.025 112.277 117.759Z" fill="#B3CAF8"/>
<path d="M174.557 86.0745H202.842C203.794 86.0745 204.572 86.8515 204.572 87.8011V116.032C204.572 116.982 203.794 117.759 202.842 117.759H174.557C173.605 117.759 172.827 116.982 172.827 116.032V87.8011C172.87 86.8515 173.605 86.0745 174.557 86.0745Z" fill="#192439"/>
<path d="M191.208 119.485H172.87V121.989H191.208V119.485Z" fill="#192439"/>
<path d="M188.7 107.356C192.593 107.356 195.749 104.205 195.749 100.319C195.749 96.4331 192.593 93.2832 188.7 93.2832C184.806 93.2832 181.65 96.4331 181.65 100.319C181.65 104.205 184.806 107.356 188.7 107.356Z" fill="#B3CAF8"/>
<path fill-rule="evenodd" clip-rule="evenodd" d="M201.372 117.759H176.027C175.768 117.025 175.638 116.248 175.638 115.471C175.638 110.248 181.477 106.017 188.7 106.017C195.922 106.017 201.761 110.248 201.761 115.471C201.761 116.248 201.631 117.025 201.372 117.759Z" fill="#B3CAF8"/>
<path d="M219.321 86.0745H247.606C248.558 86.0745 249.336 86.8515 249.336 87.8011V116.032C249.336 116.982 248.558 117.759 247.606 117.759H219.321C218.369 117.759 217.591 116.982 217.591 116.032V87.8011C217.591 86.8515 218.369 86.0745 219.321 86.0745Z" fill="#192439"/>
<path d="M235.929 119.485H217.591V121.989H235.929V119.485Z" fill="#192439"/>
<path d="M233.464 107.356C237.357 107.356 240.513 104.205 240.513 100.319C240.513 96.4331 237.357 93.2832 233.464 93.2832C229.57 93.2832 226.414 96.4331 226.414 100.319C226.414 104.205 229.57 107.356 233.464 107.356Z" fill="#B3CAF8"/>
<path fill-rule="evenodd" clip-rule="evenodd" d="M246.136 117.759H220.791C220.532 117.025 220.402 116.248 220.402 115.471C220.402 110.248 226.241 106.017 233.463 106.017C240.686 106.017 246.525 110.248 246.525 115.471C246.525 116.248 246.352 117.025 246.136 117.759Z" fill="#B3CAF8"/>
<path d="M263.652 86.0745H291.937C292.889 86.0745 293.667 86.8515 293.667 87.8011V116.032C293.667 116.982 292.889 117.759 291.937 117.759H263.652C262.7 117.759 261.922 116.982 261.922 116.032V87.8011C261.922 86.8515 262.7 86.0745 263.652 86.0745Z" fill="#192439"/>
<path d="M280.26 119.485H261.922V121.989H280.26V119.485Z" fill="#192439"/>
<path d="M277.795 107.356C281.688 107.356 284.844 104.205 284.844 100.319C284.844 96.4331 281.688 93.2832 277.795 93.2832C273.901 93.2832 270.745 96.4331 270.745 100.319C270.745 104.205 273.901 107.356 277.795 107.356Z" fill="#B3CAF8"/>
<path fill-rule="evenodd" clip-rule="evenodd" d="M290.467 117.759H265.122C264.863 117.025 264.733 116.248 264.733 115.471C264.733 110.248 270.572 106.017 277.795 106.017C285.017 106.017 290.856 110.248 290.856 115.471C290.856 116.248 290.726 117.025 290.467 117.759Z" fill="#B3CAF8"/>
<path d="M246.611 113.615H252.017C252.753 113.615 253.315 114.176 253.315 114.91V120.651C253.315 121.385 252.753 121.946 252.017 121.946H246.611C245.876 121.946 245.314 121.385 245.314 120.651V114.91C245.314 114.219 245.919 113.615 246.611 113.615Z" fill="white" fill-opacity="0.6"/>
<path d="M248.904 116.507C248.904 116.291 249.077 116.075 249.336 116.075C249.552 116.075 249.769 116.248 249.769 116.507V119.097C249.769 119.313 249.596 119.529 249.336 119.529C249.12 119.529 248.904 119.356 248.904 119.097V116.507Z" fill="#1B2226"/>
<path d="M250.633 117.413C250.849 117.413 251.022 117.586 251.022 117.802C251.022 118.018 250.849 118.19 250.633 118.19H247.951C247.735 118.19 247.562 118.018 247.562 117.802C247.562 117.586 247.735 117.413 247.951 117.413H250.633Z" fill="#1B2226"/>
<path d="M290.985 113.615H296.392C297.127 113.615 297.689 114.176 297.689 114.91V120.651C297.689 121.385 297.127 121.946 296.392 121.946H290.985C290.25 121.946 289.688 121.385 289.688 120.651V114.91C289.688 114.219 290.25 113.615 290.985 113.615Z" fill="white" fill-opacity="0.6"/>
<path d="M293.235 116.507C293.235 116.291 293.408 116.075 293.668 116.075C293.884 116.075 294.1 116.248 294.1 116.507V119.097C294.1 119.313 293.927 119.529 293.668 119.529C293.451 119.529 293.235 119.356 293.235 119.097V116.507Z" fill="#1B2226"/>
<path d="M295.008 117.413C295.224 117.413 295.397 117.586 295.397 117.802C295.397 118.018 295.224 118.19 295.008 118.19H292.327C292.111 118.19 291.938 118.018 291.938 117.802C291.938 117.586 292.111 117.413 292.327 117.413H295.008Z" fill="#1B2226"/>
<path d="M157.343 113.615H162.749C163.485 113.615 164.047 114.176 164.047 114.91V120.651C164.047 121.385 163.485 121.946 162.749 121.946H157.343C156.608 121.946 156.046 121.385 156.046 120.651V114.91C156.046 114.219 156.608 113.615 157.343 113.615Z" fill="white" fill-opacity="0.6"/>
<path d="M159.593 116.507C159.593 116.291 159.766 116.075 160.025 116.075C160.241 116.075 160.458 116.248 160.458 116.507V119.097C160.458 119.313 160.285 119.529 160.025 119.529C159.809 119.529 159.593 119.356 159.593 119.097V116.507Z" fill="#1B2226"/>
<path d="M161.366 117.413C161.582 117.413 161.755 117.586 161.755 117.802C161.755 118.018 161.582 118.19 161.366 118.19H158.684C158.468 118.19 158.295 118.018 158.295 117.802C158.295 117.586 158.468 117.413 158.684 117.413H161.366Z" fill="#1B2226"/>
<path d="M112.796 113.615H118.202C118.937 113.615 119.499 114.176 119.499 114.91V120.651C119.499 121.385 118.937 121.946 118.202 121.946H112.796C112.06 121.946 111.498 121.385 111.498 120.651V114.91C111.498 114.219 112.104 113.615 112.796 113.615Z" fill="white" fill-opacity="0.6"/>
<path d="M115.088 116.507C115.088 116.291 115.261 116.075 115.521 116.075C115.737 116.075 115.953 116.248 115.953 116.507V119.097C115.953 119.313 115.78 119.529 115.521 119.529C115.305 119.529 115.088 119.356 115.088 119.097V116.507Z" fill="#1B2226"/>
<path d="M116.818 117.413C117.034 117.413 117.207 117.586 117.207 117.802C117.207 118.018 117.034 118.19 116.818 118.19H114.18C113.964 118.19 113.791 118.018 113.791 117.802C113.791 117.586 113.964 117.413 114.18 117.413H116.818Z" fill="#1B2226"/>
<path d="M201.891 113.615H207.297C208.032 113.615 208.594 114.176 208.594 114.91V120.651C208.594 121.385 208.032 121.946 207.297 121.946H201.891C201.155 121.946 200.593 121.385 200.593 120.651V114.91C200.593 114.219 201.155 113.615 201.891 113.615Z" fill="white" fill-opacity="0.6"/>
<path d="M204.14 116.507C204.14 116.291 204.313 116.075 204.573 116.075C204.789 116.075 205.005 116.248 205.005 116.507V119.097C205.005 119.313 204.832 119.529 204.573 119.529C204.356 119.529 204.14 119.356 204.14 119.097V116.507Z" fill="#1B2226"/>
<path d="M205.913 117.413C206.13 117.413 206.303 117.586 206.303 117.802C206.303 118.018 206.13 118.19 205.913 118.19H203.232C203.016 118.19 202.843 118.018 202.843 117.802C202.843 117.586 203.016 117.413 203.232 117.413H205.913Z" fill="#1B2226"/>
<path d="M151.548 144.436H104.838V175.947H151.548V144.436Z" fill="#205284"/>
<path d="M212.877 144.436H166.167V175.947H212.877V144.436Z" fill="#205284"/>
<path d="M274.162 144.436H227.452V175.947H274.162V144.436Z" fill="#205284"/>
<path d="M151.548 180.394H104.838V183.933H151.548V180.394Z" fill="#4382FF"/>
<path d="M212.877 180.394H166.167V183.933H212.877V180.394Z" fill="#4382FF"/>
<path d="M274.162 180.394H227.452V183.933H274.162V180.394Z" fill="#4382FF"/>
<path d="M151.548 185.703H104.838V189.243H151.548V185.703Z" fill="#4382FF"/>
<path d="M212.877 185.703H166.167V189.243H212.877V185.703Z" fill="#4382FF"/>
<path d="M274.162 185.703H227.452V189.243H274.162V185.703Z" fill="#4382FF"/>
<path d="M151.548 198.869H104.838V207.761H151.548V198.869Z" fill="#4382FF"/>
<path d="M212.877 198.869H166.167V207.761H212.877V198.869Z" fill="#4382FF"/>
<path d="M274.162 198.869H227.452V207.761H274.162V198.869Z" fill="#4382FF"/>
<path d="M99.8643 193.905H281.558" stroke="#121A2A" stroke-width="0.25"/>
<path d="M128.193 166.537C131.705 166.537 134.551 163.696 134.551 160.191C134.551 156.687 131.705 153.846 128.193 153.846C124.682 153.846 121.836 156.687 121.836 160.191C121.836 163.696 124.682 166.537 128.193 166.537Z" stroke="#283959" stroke-opacity="0.5" stroke-width="1.6813"/>
<path d="M131.264 159.933C131.48 160.062 131.48 160.364 131.264 160.451L126.896 162.954C126.68 163.084 126.42 162.911 126.42 162.695V157.688C126.42 157.472 126.68 157.299 126.896 157.429L131.264 159.933Z" fill="#B3CAF8"/>
<path d="M250.807 166.58C254.319 166.58 257.165 163.739 257.165 160.235C257.165 156.73 254.319 153.889 250.807 153.889C247.296 153.889 244.449 156.73 244.449 160.235C244.449 163.739 247.296 166.58 250.807 166.58Z" stroke="#283959" stroke-opacity="0.5" stroke-width="1.6813"/>
<path d="M253.878 159.933C254.094 160.062 254.094 160.364 253.878 160.451L249.51 162.954C249.293 163.084 249.034 162.911 249.034 162.695V157.688C249.034 157.472 249.293 157.299 249.51 157.429L253.878 159.933Z" fill="#B3CAF8"/>
<path d="M189.522 166.537C193.033 166.537 195.879 163.696 195.879 160.191C195.879 156.687 193.033 153.846 189.522 153.846C186.01 153.846 183.164 156.687 183.164 160.191C183.164 163.696 186.01 166.537 189.522 166.537Z" stroke="#283959" stroke-opacity="0.5" stroke-width="1.6813"/>
<path d="M192.593 159.933C192.809 160.062 192.809 160.364 192.593 160.451L188.225 162.954C188.009 163.084 187.749 162.911 187.749 162.695V157.688C187.749 157.472 188.009 157.299 188.225 157.429L192.593 159.933Z" fill="#B3CAF8"/>
<path d="M77.2882 207.804H304.091" stroke="black" stroke-opacity="0.53" stroke-miterlimit="10" stroke-linecap="round"/>
<path d="M252.339 72.856H215.459V76.4483H252.339V72.856Z" fill="#B3CAF8"/>
<path d="M295.506 72.856H258.626V76.4483H295.506V72.856Z" fill="#B3CAF8"/>
<path d="M122.84 72.856H85.9594V76.4483H122.84V72.856Z" fill="#B3CAF8"/>
<path d="M166.006 72.856H129.126V76.4483H166.006V72.856Z" fill="#B3CAF8"/>
<path d="M209.172 72.856H172.292V76.4483H209.172V72.856Z" fill="#B3CAF8"/>
<path opacity="0.89" d="M227.335 17.4123L245.412 26.4576C247.34 27.4199 248.111 29.7293 247.147 31.6057L238.085 49.6481C237.12 51.5729 234.806 52.3425 232.926 51.3803L214.849 42.335C212.921 41.3727 212.15 39.0633 213.114 37.1869L222.177 19.1444C223.141 17.2199 225.454 16.45 227.335 17.4123Z" fill="#151515" fill-opacity="0.2"/>
<path d="M225.549 12.3458L241.767 20.4611C243.497 21.3245 244.189 23.3965 243.324 25.08L235.193 41.2675C234.328 42.9941 232.252 43.6847 230.566 42.8215L214.347 34.7061C212.617 33.8428 211.925 31.7708 212.79 30.0873L220.921 13.8998C221.786 12.1731 223.862 11.4825 225.549 12.3458Z" fill="#B3CAF8"/>
<path d="M290.577 96.5638C287.506 113.14 283.873 121.859 276.694 126.176C276.564 126.262 276.477 126.306 276.347 126.392C275.872 126.651 275.396 126.91 274.877 127.169C270.639 129.155 265.276 129.932 258.312 130.061C257.534 130.061 256.799 130.061 255.977 130.061C251.565 130.061 247.067 129.37 242.656 128.162C233.573 125.615 225.01 120.737 218.782 114.78C218.609 114.651 218.479 114.478 218.306 114.348C218.176 114.219 218.09 114.133 217.96 114.003C217.83 113.917 217.744 113.787 217.657 113.701C217.614 113.658 217.614 113.658 217.571 113.615C217.398 113.442 217.225 113.269 217.052 113.053C216.749 112.751 216.446 112.406 216.187 112.104C215.279 111.068 214.457 110.032 213.722 108.996C212.727 107.614 211.862 106.19 211.17 104.722C210.435 103.211 209.829 101.701 209.44 100.147C209.007 98.5494 208.791 96.9954 208.791 95.3983C208.791 94.3191 208.878 93.2831 209.007 92.2039C209.656 87.5851 211.602 83.0958 214.63 79.1244C218.782 73.6423 224.88 69.1529 232.146 66.5629C237.509 64.6636 243.478 65.0089 249.835 65.0089C272.542 64.9658 290.577 79.7719 290.577 96.5638Z" fill="#543E36"/>
<path d="M205.806 145.774C204.249 133.471 208.099 115.946 206.844 100.837C206.715 99.197 207.882 97.7293 208.099 96.2185C208.488 93.8012 209.05 92.463 209.439 90.5205L260.215 103.73C259.826 116.032 256.039 145.833 252.665 148.466C250.07 150.495 223.236 158.767 211.905 158.767C209.396 158.767 203.903 156.22 204.206 152.422C204.293 151.515 204.595 150.695 205.028 149.961C205.72 148.666 206.023 147.198 205.806 145.774Z" fill="#543E36"/>
<path d="M280.196 171.631C272.974 164.897 274.66 133.169 277.645 118.19H247.586L230.502 152.939C230.502 152.939 230.329 156.695 230.502 160.709C230.675 165.544 233.357 169.731 232.881 173.659C232.232 179.271 232.405 186.091 231.367 187.386L280.196 171.631Z" fill="#543E36"/>
<path d="M197.596 121.126C197.596 121.126 202.008 116.939 204.084 113.701C206.938 109.212 208.169 106.901 208.169 106.901L211.794 133.373L200.97 129.241C197.207 128.55 195.434 124.234 197.596 121.126Z" fill="#543E36"/>
<path d="M210.218 140.55C209.266 140.378 207.925 140.162 206.541 139.86C205.417 139.601 204.292 139.342 203.341 139.083C203.254 139.04 203.211 139.04 203.125 138.996C203.038 138.953 202.952 138.953 202.822 138.91C202.13 138.694 201.611 138.435 201.265 138.219C199.319 137.14 200.789 133.428 201.524 133.298C202.389 133.342 202.908 131.442 202.692 130.32C202.562 129.716 203.081 129.327 203.081 129.327L206.931 131.183L207.277 131.356L209.742 132.565L210.088 138.133L210.218 140.55Z" fill="#543E36"/>
<path d="M211.126 137.875L204.336 151.817C204.466 150.393 204.682 148.839 204.509 148.321C204.206 147.544 203.99 146.465 202.606 145.601C200.66 144.393 198.93 142.709 201.308 139.472C201.438 139.299 201.611 139.213 201.871 139.083C201.914 139.083 202 139.04 202.044 138.997C202.044 138.997 202.087 138.997 202.13 138.954C202.952 138.652 204.163 138.436 205.504 138.306C205.72 138.306 205.893 138.263 206.109 138.263C207.104 138.177 208.099 138.134 209.007 138.047C209.785 138.047 210.521 137.961 211.126 137.875Z" fill="#543E36"/>
<path fill-rule="evenodd" clip-rule="evenodd" d="M290.577 96.564C287.506 113.14 283.873 121.86 276.693 126.176C276.563 126.263 276.477 126.306 276.347 126.392C276.347 126.522 276.304 126.651 276.304 126.781C276.261 127.083 276.218 127.342 276.218 127.644L274.877 127.169L260.691 127.644C261.037 126.09 264.021 111.241 253.252 109.298C242.656 107.399 241.531 120.694 241.531 120.694L233.573 117.413C233.573 117.413 234.784 105.327 226.783 102.78L229.508 95.7006L232.189 88.7076L214.673 79.0815C218.825 73.5993 224.923 69.11 232.189 66.52C237.552 64.6206 243.52 64.966 249.878 64.966C272.541 64.966 290.577 79.7721 290.577 96.564Z" fill="#192439"/>
<path d="M276.252 157.852L232.093 168.091L231.777 167.052C231.777 167.052 269.941 156.68 275.312 154.424C275.411 157.322 276.252 157.852 276.252 157.852Z" fill="#090E17" fill-opacity="0.2"/>
<path d="M307.141 204.61C305.065 198.394 288.674 179.962 280.326 171.026C262.724 176.206 228.426 182.854 228.426 182.854C210.564 205.473 207.19 219.028 199.146 259.086H309.434C309.477 259.086 309.217 210.826 307.141 204.61Z" fill="#4382FF"/>
<path d="M307.141 204.61C305.065 198.394 288.674 179.962 280.326 171.026C262.724 176.206 228.426 182.854 228.426 182.854C210.564 205.473 207.19 219.028 199.146 259.086H309.434C309.477 259.086 309.217 210.826 307.141 204.61Z" fill="black" fill-opacity="0.42"/>
<path d="M226.869 171.415C227.128 169.818 228.296 168.48 229.896 168.091L277.385 155.616C278.639 155.227 279.85 156.263 279.72 157.558C279.547 159.458 279.374 161.961 279.677 163.947C280.196 167.573 283.31 170.897 282.834 173.444C282.358 175.991 224.533 187.948 224.533 187.948L226.869 171.415Z" fill="#4382FF"/>
<path d="M226.869 171.415C227.128 169.818 228.296 168.48 229.896 168.091L277.385 155.616C278.639 155.227 279.85 156.263 279.72 157.558C279.547 159.458 279.374 161.961 279.677 163.947C280.196 167.573 283.31 170.897 282.834 173.444C282.358 175.991 224.533 187.948 224.533 187.948L226.869 171.415Z" fill="black" fill-opacity="0.42"/>
<path d="M267.751 156.212L277.887 153.984C279.326 153.538 280.715 154.727 280.566 156.212C280.368 158.391 280.169 161.263 280.517 163.541C281.112 167.701 284.684 171.514 284.139 174.436C284.018 175.084 275.377 174.436 238.622 183.295" stroke="#78D2EE" stroke-width="0.25" stroke-linecap="round"/>
<path d="M209.094 103.902C209.094 103.902 208.099 99.499 210.391 99.9307C212.684 100.362 218.479 100.837 220.771 102.78C223.064 104.722 223.237 107.312 223.237 107.312C223.237 107.312 220.123 106.578 218.176 105.456C215.927 104.204 209.353 105.37 209.094 103.902Z" fill="#2A2A2A" fill-opacity="0.5"/>
<path d="M231.278 167.708C230.423 167.708 227.918 168.317 227.2 170.75C226.481 173.184 225.489 182.484 225.083 186.83" stroke="white" stroke-width="0.25" stroke-linecap="round"/>
<path d="M205.165 122.853C205.078 123.241 207.284 123.932 208.279 124.666C210.095 126.004 210.657 128.292 205.77 130.364C205.77 130.364 209.014 129.846 210.138 128.421C211.263 126.997 210.398 123.198 205.165 122.853Z" fill="#493630"/>
<path opacity="0.5" d="M212.208 111.456C207.883 113.874 213.505 124.277 213.505 124.277C213.505 124.277 213.332 120.133 212.857 117.068C212.64 115.859 212.078 114.219 212.208 111.456Z" fill="#44322D"/>
<path d="M214.846 108.521C213.678 108.003 212.251 110.291 212.251 110.291C212.251 110.291 213.419 113.83 213.462 114.607C213.505 115.687 211.602 116.723 211.602 116.723C211.602 116.723 211.905 117.111 212.251 117.543C212.9 118.406 214.111 118.622 215.019 118.018L220.036 114.564C220.036 114.564 219.993 112.19 218.479 110.55C218.133 110.204 215.754 108.953 214.846 108.521Z" fill="#493630"/>
<path d="M217.442 114.435C215.885 113.356 212.165 110.42 212.165 110.42C212.165 110.42 213.549 112.492 213.592 113.787C213.636 115.514 212.208 117.111 212.208 117.111C212.208 117.111 216.923 114.694 217.442 114.435Z" fill="#FFF5EA"/>
<path d="M214.803 114.521C215.106 113.356 214.111 111.327 213.332 110.377C211.429 112.924 211.386 114.349 212.165 117.198C213.03 116.593 214.457 115.687 214.803 114.521Z" fill="#30281D"/>
<path d="M212.684 111.543C213.636 113.14 213.549 114.996 211.906 115.773C211.603 115.126 211.387 113.356 212.684 111.543Z" fill="#282218"/>
<path d="M213.418 109.125C212.813 109.557 211.688 110.463 211.688 111.413L217.441 114.392L217.614 113.485L213.418 109.125Z" fill="#493630"/>
<path d="M211.948 117.37C211.948 117.37 211.213 116.248 211.429 116.291C211.646 116.334 217.441 114.435 217.441 114.435L218.133 114.953L211.948 117.37Z" fill="#493630"/>
<path d="M211.213 116.161C211.473 115.643 214.327 114.91 216.49 114.392C214.803 113.83 211.862 111.974 211.43 111.37C210.911 110.593 211.127 109.341 211.17 109.341C211.43 109.341 211.386 110.42 211.862 111.111C212.165 111.543 215.279 113.485 217.528 114.219L218.393 114.521L217.485 114.737C214.846 115.341 211.905 116.118 211.646 116.464C211.43 116.852 211.343 117.197 211.386 117.197C211.473 117.241 210.824 116.852 211.213 116.161Z" fill="#282218"/>
<path d="M220.469 114.651C220.469 114.651 215.581 115.212 214.976 116.032C214.37 116.852 213.981 118.665 213.981 118.665L216.792 119.356L220.469 114.651Z" fill="#543E36"/>
<path opacity="0.7" d="M253.259 106.769C247.794 106.598 211.418 108.461 211.418 108.461V115.039L252.749 110.85C255.198 111.277 260.267 114.465 262.629 116.019C263.32 116.474 264.257 116.277 264.693 115.575C265.547 114.201 265.255 112.413 263.934 111.478C261.305 109.617 256.852 106.883 253.259 106.769Z" fill="#B3CAF8"/>
<path d="M253.536 117.847C252.325 114.696 248.26 115.905 246.011 117.2L245.665 121.257C244.757 120.308 244.151 116.121 244.93 114.005L249.298 110.595L254.704 111.07C255.872 112.667 259.764 116.034 257.861 120.869C256.867 123.459 252.542 127.776 249.255 129.33C251.244 126.826 254.791 120.998 253.536 117.847Z" fill="#3F2E2A"/>
<path d="M252.671 117.718C251.071 115.516 248.087 115.041 246.054 116.077L246.443 123.373L243.632 126.437L247.092 130.754L250.249 129.804L254.877 124.624C255.266 122.596 254.271 119.919 252.671 117.718Z" fill="#3F2E2A"/>
<path d="M246.271 121.646C246.271 121.646 247.741 119.79 249.125 119.531C252.282 118.883 253.753 125.531 256.218 123.502C259.938 120.437 256.521 114.264 250.423 113.746C243.416 113.142 246.271 121.646 246.271 121.646Z" fill="#493630"/>
<path d="M243.632 117.286L246.919 124.97C247.914 121.819 245.276 115.344 246.53 111.761C242.638 114.049 243.632 117.286 243.632 117.286Z" fill="#493630"/>
<path d="M257.905 113.919C254.704 108.696 252.023 108.394 248.347 109.948C245.708 111.07 244.108 113.789 243.849 116.638L243.762 117.631C247.741 111.415 253.666 108.955 256.218 113.746C260.024 120.826 255.786 124.711 252.239 125.79C249.168 126.739 247.092 123.416 245.103 119.487C241.773 124.538 241.383 128.682 245.881 131.445C248.563 133.085 251.288 130.452 253.926 128.121C257.991 124.452 261.149 119.185 257.905 113.919Z" fill="#493630"/>
<path d="M252.868 126.02C253.845 125.144 253.615 123.298 252.353 121.897C251.092 120.496 249.277 120.071 248.3 120.947C247.323 121.824 247.554 123.67 248.815 125.071C250.076 126.472 251.891 126.896 252.868 126.02Z" fill="white"/>
<path d="M250.466 123.243C250.855 123.675 250.812 124.279 250.379 124.668L242.551 131.661C242.118 132.049 241.513 132.006 241.124 131.574C240.734 131.143 240.778 130.538 241.21 130.15L249.038 123.157C249.428 122.768 250.076 122.811 250.466 123.243Z" fill="white"/>
<path d="M250.855 121.516L252.066 122.898C252.282 123.114 252.239 123.459 252.023 123.675C251.807 123.891 251.461 123.847 251.244 123.632L250.033 122.25C249.817 122.034 249.86 121.689 250.077 121.473C250.336 121.257 250.682 121.301 250.855 121.516Z" fill="#192439"/>
<path d="M248.087 123.977C248.087 123.977 247.179 123.459 248.995 121.085C249.514 120.437 245.752 115.128 245.752 115.128C245.319 115.603 246.444 120.308 245.492 121.862C244.541 123.416 244.93 124.927 246.054 125.747L248.087 123.977Z" fill="#493630"/>
<path d="M253.536 123.891C252.888 124.538 251.287 126.912 249.168 125.833C249.168 125.833 250.595 127.732 252.196 127.819C255.396 127.991 257.559 120.653 257.559 120.653C256.045 122.121 254.185 123.243 253.536 123.891Z" fill="#493630"/>
<path d="M213.274 113.403C213.274 120.442 212.173 126.148 210.815 126.148C210.374 126.148 208.514 126.148 208.514 126.148C207.77 123.957 208.356 118.156 208.356 113.403C208.356 109.952 207.926 102.953 208.356 100.658C208.356 100.658 210.122 100.658 210.815 100.658C212.173 100.658 213.274 106.364 213.274 113.403Z" fill="#4382FF"/>
<path d="M208.61 126.148C209.968 126.148 211.069 120.442 211.069 113.403C211.069 106.365 209.968 100.658 208.61 100.658C207.252 100.658 206.151 106.365 206.151 113.403C206.151 120.442 207.252 126.148 208.61 126.148Z" fill="#FFE458"/>
<path d="M206.198 108.599C207.161 108.662 207.207 108.241 207.697 108.861C207.697 110.759 207.64 114.239 207.41 112.979C207.18 111.718 205.16 111.214 205.16 111.214C205.16 111.214 204.559 108.492 206.198 108.599Z" fill="#8FE4FF"/>
<path d="M209.31 139.472C208.791 139.428 207.753 139.299 206.542 139.213C205.547 139.126 201.957 139.169 200.919 138.479C198.584 136.968 200.4 132.781 201.481 133.299C201.481 133.299 201.481 133.299 201.481 133.256C201.525 133.256 201.525 133.256 201.525 133.299C201.827 134.464 202.606 135.975 204.249 136.838C204.985 137.227 205.763 137.615 206.498 137.961C206.715 138.047 206.888 138.177 207.104 138.263C208.055 138.738 208.877 139.126 209.31 139.342C209.396 139.428 209.396 139.472 209.31 139.472Z" fill="#5B433B"/>
<path d="M207.277 140.766C207.623 140.507 209.31 139.515 209.31 139.515L202.087 138.997C201.741 139.126 201.481 139.299 201.308 139.471C199.492 141.543 200.097 143.356 201.135 144.479C201.135 144.436 205.85 141.846 207.277 140.766Z" fill="#5B433B"/>
<path d="M239.316 149.839L220.663 157.818C223.494 157.818 238.467 153.77 240.732 151.585C241.952 150.406 243.424 145.24 244.062 142.858L239.316 149.839Z" fill="#192439"/>
<path opacity="0.4" fill-rule="evenodd" clip-rule="evenodd" d="M242.626 133.779C237.147 149.427 225.211 178.595 221.014 179.154C221.014 179.153 221.014 179.152 221.014 179.152C220.978 179.178 220.942 179.204 220.905 179.23C215.381 183.113 205.162 178.127 198.081 168.092C191 158.058 189.739 146.775 195.264 142.892C196.251 142.198 197.387 141.787 198.629 141.638C203.986 139.736 215.393 135.744 222.238 133.779C231.35 131.161 240.106 129.576 240.106 129.576C240.106 129.576 241.606 130.247 242.141 131.076C242.723 131.977 242.626 133.779 242.626 133.779Z" fill="#B3CAF8"/>
<path d="M237.947 135.391C239.562 137.96 240.492 140.606 240.696 142.802C240.901 145.012 240.371 146.696 239.165 147.452C237.959 148.208 236.209 147.952 234.304 146.807C232.411 145.668 230.427 143.683 228.812 141.115C227.197 138.547 226.268 135.9 226.063 133.704C225.857 131.494 226.388 129.81 227.594 129.054C228.8 128.299 230.55 128.554 232.455 129.699C234.347 130.838 236.332 132.823 237.947 135.391Z" stroke="#78D2EE" stroke-width="0.25"/>
<path d="M229.215 144.71C232.244 149.047 234.108 153.571 234.68 157.373C235.255 161.19 234.522 164.205 232.466 165.635C230.41 167.066 227.321 166.709 223.933 164.849C220.557 162.997 216.95 159.685 213.921 155.348C210.893 151.01 209.029 146.486 208.456 142.684C207.881 138.867 208.615 135.852 210.671 134.422C212.727 132.991 215.815 133.348 219.204 135.208C222.579 137.06 226.187 140.372 229.215 144.71Z" stroke="#78D2EE" stroke-width="0.25"/>
<path d="M219.495 153.041C223.578 158.828 225.977 164.966 226.563 170.206C227.149 175.454 225.915 179.745 222.81 181.928C219.705 184.11 215.241 183.825 210.487 181.505C205.742 179.19 200.76 174.868 196.676 169.08C192.592 163.293 190.193 157.155 189.608 151.915C189.021 146.667 190.255 142.376 193.361 140.194C196.466 138.011 200.93 138.296 205.683 140.616C210.428 142.931 215.411 147.253 219.495 153.041Z" stroke="#78D2EE" stroke-width="0.25"/>
<path d="M242.117 131.194C242.5 131.803 242.705 132.43 242.735 132.946C242.765 133.471 242.616 133.825 242.365 133.982C242.114 134.14 241.729 134.12 241.269 133.864C240.817 133.613 240.339 133.156 239.957 132.548C239.574 131.939 239.369 131.311 239.339 130.795C239.308 130.271 239.458 129.916 239.709 129.759C239.96 129.601 240.345 129.621 240.804 129.877C241.257 130.128 241.734 130.585 242.117 131.194Z" stroke="#78D2EE" stroke-width="0.25"/>
<path d="M304.027 224.128C302.484 218.355 299.557 206.173 291.241 200.816C277.39 191.893 259.368 197.615 250.478 204.958C243.366 210.833 243.596 217.276 241.082 225.846" stroke="#78D2EE" stroke-width="0.25" stroke-linecap="round"/>
<path opacity="0.89" fill-rule="evenodd" clip-rule="evenodd" d="M316.857 146.245C311.717 146.245 307.551 150.403 307.551 155.533C307.551 160.663 311.717 164.822 316.857 164.822C321.997 164.822 326.164 160.663 326.164 155.533C326.164 150.403 321.997 146.245 316.857 146.245ZM298.468 155.533C298.468 145.397 306.701 137.18 316.857 137.18C327.013 137.18 335.246 145.397 335.246 155.533C335.246 165.67 327.013 173.887 316.857 173.887C306.701 173.887 298.468 165.67 298.468 155.533Z" fill="#151515" fill-opacity="0.2"/>
<path d="M313.267 162.825C320.429 162.825 326.235 157.031 326.235 149.883C326.235 142.735 320.429 136.94 313.267 136.94C306.106 136.94 300.3 142.735 300.3 149.883C300.3 157.031 306.106 162.825 313.267 162.825Z" stroke="#22D792" stroke-width="5"/>
<path opacity="0.89" fill-rule="evenodd" clip-rule="evenodd" d="M53.5331 169.946L46.4418 172.619C40.5803 174.857 37.6135 181.43 39.8567 187.28L44.2114 198.735L32.6928 203.097C26.8316 205.335 23.8647 211.907 26.1079 217.757L28.7853 224.835C31.0285 230.685 37.6134 233.646 43.4749 231.407L54.9759 227.052L59.3221 238.485C61.565 244.335 68.1498 247.296 74.0111 245.057L81.1028 242.385C86.964 240.146 89.9305 233.574 87.6876 227.724L83.3479 216.308L94.7789 211.98C100.64 209.741 103.607 203.169 101.364 197.319L98.6865 190.241C96.4431 184.391 89.9305 181.43 83.9971 183.668L72.5834 187.991L68.2225 176.519C65.9791 170.668 59.3943 167.708 53.5331 169.946Z" fill="black" fill-opacity="0.2"/>
<path opacity="0.7" d="M38.7357 182.18L44.8256 179.885C49.859 177.963 55.5135 180.506 57.4399 185.529L74.1556 229.502C76.0819 234.526 73.5345 240.169 68.5011 242.092L62.411 244.387C57.378 246.309 51.7231 243.767 49.7967 238.743L33.081 194.771C31.1546 189.747 33.7024 184.103 38.7357 182.18Z" fill="#B3CAF8"/>
<path opacity="0.89" d="M83.6009 197.314L85.9001 203.391C87.8264 208.415 85.2786 214.059 80.2452 215.981L36.1878 232.665C31.1545 234.588 25.4997 232.045 23.5734 227.021L21.2742 220.943C19.3479 215.92 21.8956 210.276 26.929 208.353L70.9866 191.67C76.0819 189.747 81.6746 192.29 83.6009 197.314Z" fill="#B3CAF8"/>
</g>
<defs>
<clipPath id="clip0">
<rect width="346" height="259" fill="white"/>
</clipPath>
</defs>
</svg>
