<svg width="18" height="28" viewBox="0 0 15 24" fill="none" xmlns="http://www.w3.org/2000/svg">
<path d="M7.3996 21.9612C7.34988 21.9342 7.30747 21.8942 7.27639 21.8449L4.66509 17.7552C4.68775 17.7584 4.71004 17.7623 4.73131 17.767C5.05701 17.8362 5.33993 17.9678 5.63951 18.1071L5.63984 18.1072C6.01976 18.284 6.41273 18.4667 6.93835 18.5453C7.20772 18.59 7.47973 18.6144 7.75234 18.6184C8.02735 18.6184 8.25885 18.5846 8.57925 18.5377H8.58014L8.58144 18.5376C8.69489 18.521 8.82342 18.5022 8.96865 18.4828C9.45844 18.4173 9.63215 18.3459 9.81603 18.2703L9.81642 18.2702C9.93969 18.2173 10.0661 18.173 10.1947 18.1375L7.82741 21.8449C7.79631 21.8942 7.7539 21.9342 7.70417 21.9612C7.657 21.9867 7.60482 22 7.55189 22C7.49895 22 7.44676 21.9867 7.3996 21.9612ZM7.21691 17.9189C7.00827 17.8835 6.80462 17.8205 6.61068 17.7315C6.42016 17.6468 6.23592 17.544 6.05778 17.4446C5.8453 17.326 5.62561 17.2033 5.39575 17.1119C5.27958 17.065 5.1602 17.0275 5.03866 16.9999C4.91073 16.971 4.78046 16.9552 4.64967 16.9528C4.63581 16.9525 4.6213 16.9524 4.60661 16.9524C4.46158 16.9535 4.31676 16.9641 4.17298 16.9843L3.08719 15.284C3.22413 15.2312 3.35322 15.1773 3.47803 15.1251L3.48014 15.1242C3.8671 14.9625 4.20129 14.8229 4.52139 14.8229C4.59186 14.8226 4.66217 14.8299 4.73129 14.8444C5.05707 14.9136 5.34004 15.0452 5.63965 15.1846H5.63981C6.01973 15.3613 6.41268 15.544 6.93829 15.6227C7.20767 15.6673 7.47967 15.6917 7.75228 15.6958C8.02738 15.6958 8.2589 15.6619 8.57939 15.615H8.58006L8.58136 15.6148L8.58247 15.6147C8.69558 15.5981 8.82373 15.5794 8.96857 15.56C9.45841 15.4945 9.63209 15.4232 9.81595 15.3475C10.023 15.2591 10.2382 15.1937 10.458 15.1523C10.6026 15.1224 10.7289 15.0937 10.8404 15.0684L10.8414 15.0682L10.8421 15.068H10.8427C11.1475 14.9988 11.3677 14.9489 11.6324 14.9489C11.799 14.9506 11.9652 14.9665 12.1294 14.9966C12.1499 15.0001 12.1712 15.0039 12.1927 15.008L10.9689 16.9246C10.8748 16.9406 10.7819 16.9631 10.6906 16.992H10.6904C10.588 17.0215 10.4477 17.0618 10.2306 17.1136C9.98849 17.1713 9.68309 17.2934 9.35986 17.4226H9.35972L9.35891 17.4229C8.75437 17.6645 8.06942 17.9383 7.47597 17.9383C7.38928 17.9387 7.30269 17.9322 7.21691 17.9189ZM7.47592 15.0161C7.38924 15.0164 7.30267 15.0099 7.21691 14.9965C7.00827 14.9611 6.80462 14.8982 6.61068 14.8092C6.4203 14.7245 6.23603 14.6216 6.05783 14.5222H6.05769C5.84533 14.4037 5.62575 14.2811 5.39575 14.1897C5.27957 14.1428 5.1602 14.1054 5.03866 14.0777C4.91073 14.0488 4.78046 14.033 4.64967 14.0307C4.63647 14.0304 4.62194 14.0303 4.60669 14.0303C4.0539 14.0303 3.38134 14.218 2.78792 14.3836H2.7877L2.78634 14.384L2.76892 14.3889C2.69446 14.4097 2.62425 14.4292 2.55384 14.4485L1.82221 13.3026C1.6179 13.0531 1.42819 12.7906 1.25417 12.5164C1.5615 12.4286 1.86343 12.3206 2.1582 12.1932L2.15903 12.1928C2.34386 12.1167 2.51843 12.0449 2.68659 11.9932C2.84949 11.9397 3.01879 11.9114 3.1893 11.909C3.26958 11.909 3.34971 11.9163 3.42881 11.9308C3.79678 11.9979 4.23426 12.1383 4.69745 12.2868L4.69793 12.287H4.69826C5.00885 12.3866 5.32997 12.4896 5.65304 12.5783C5.96867 12.6682 6.28954 12.7359 6.61356 12.781C6.82781 12.8114 7.04357 12.8283 7.2597 12.8316C7.51593 12.8316 7.68063 12.7952 7.88919 12.7492H7.88936C8.14136 12.6909 8.39616 12.6473 8.65263 12.6183C8.91552 12.5881 9.11574 12.5565 9.28287 12.519C9.43182 12.4855 9.53581 12.4513 9.64587 12.4153H9.64612C9.88832 12.3332 10.1362 12.2713 10.3875 12.2302C10.5586 12.1999 10.7053 12.1714 10.8347 12.146C11.19 12.0768 11.4466 12.0267 11.7551 12.0267C11.9488 12.0284 12.1421 12.0443 12.3337 12.0744C12.611 12.1127 12.8835 12.1833 13.1463 12.2849H13.1466C13.3727 12.3707 13.6047 12.4383 13.8405 12.4872C13.6818 12.7394 13.51 12.9819 13.3257 13.2137C13.316 13.2421 13.3029 13.2692 13.2869 13.2942L12.7908 14.071C12.6078 14.0348 12.423 14.0099 12.2373 13.9962C12.061 13.9833 11.8653 13.9781 11.562 13.9781C11.0091 13.9781 10.9478 13.9957 10.6902 14.0698C10.5876 14.0992 10.4473 14.1396 10.2305 14.1913C9.98827 14.2491 9.68273 14.3712 9.35927 14.5005L9.35872 14.5007C8.75418 14.7423 8.06922 15.0162 7.47578 15.0162L7.47592 15.0161ZM6.61348 12.0742C6.37245 12.0392 6.13575 11.9764 5.90761 11.8868C5.68596 11.8022 5.4714 11.6993 5.26386 11.5999H5.26364C5.01628 11.4813 4.76051 11.3586 4.49288 11.2672C4.35679 11.2201 4.21788 11.1828 4.07708 11.1554C3.92759 11.1264 3.77608 11.1106 3.62412 11.1083C3.6077 11.108 3.59084 11.1079 3.57407 11.1079C2.9304 11.1079 2.14727 11.2956 1.45633 11.4613H1.45591C1.20963 11.5203 0.977022 11.576 0.761607 11.621C0.504653 11.0752 0.307475 10.4999 0.173929 9.90652C0.169548 9.88695 0.165083 9.86685 0.160729 9.84676H1.89462C2.33249 9.84676 2.6887 9.54004 2.6887 9.16303C2.68856 9.07129 2.66824 8.98085 2.62935 8.89892C2.58977 8.81551 2.53478 8.7414 2.46765 8.681C2.31884 8.54808 2.13006 8.47616 1.93555 8.47827C1.92201 8.47827 1.90826 8.47862 1.89462 8.47927C1.73724 8.47927 1.6221 8.50484 1.50963 8.5646V8.50054C1.50963 8.17099 1.36437 7.86381 1.10056 7.63518C0.838283 7.40782 0.487929 7.28259 0.113975 7.28259C0.076011 7.28259 0.0376588 7.284 0 7.28671C0.110332 6.01308 0.507417 4.78622 1.15783 3.70938H3.88219C4.38537 3.70938 4.81046 3.24742 4.81046 2.70043C4.81137 2.44957 4.71998 2.20823 4.55575 2.02777C4.38837 1.84711 4.16539 1.73629 3.92744 1.71549C3.85353 1.51215 3.7352 1.33033 3.58219 1.18494C4.61878 0.510457 5.79325 0.110858 7.0062 0.0199599C8.21916 -0.0709383 9.4349 0.14954 10.5505 0.662735C11.6662 1.17593 12.6489 1.96674 13.4155 2.96824C14.1821 3.96974 14.7101 5.15245 14.9547 6.41629C14.971 6.50076 14.9863 6.58695 15 6.67228C14.6738 6.4466 14.2923 6.32762 13.903 6.3301C13.409 6.3301 12.9462 6.50526 12.5996 6.82325C12.2511 7.14312 12.0592 7.57298 12.0592 8.03373V8.12342C11.983 8.08022 11.9014 8.04876 11.8168 8.02999C11.7292 8.01148 11.6399 8.00272 11.5506 8.00384C11.5326 8.00292 11.5145 8.00242 11.4966 8.00242C11.2371 8.00049 10.9864 8.10165 10.7936 8.28598C10.7042 8.37162 10.6316 8.47522 10.5801 8.59079C10.5285 8.70628 10.5017 8.83247 10.5017 8.96027C10.5017 9.48764 10.9722 9.91655 11.5507 9.91655H14.8998C14.7794 10.4483 14.6078 10.9655 14.3879 11.4601C14.2734 11.4082 14.0968 11.3395 13.7449 11.2689C12.8704 11.0933 12.5958 11.0556 11.6734 11.0556C11.0295 11.0556 10.9582 11.0732 10.6582 11.1473C10.5391 11.1767 10.3762 11.217 10.123 11.2689C9.84071 11.3266 9.48476 11.4488 9.10806 11.5782H9.10767C8.40394 11.8198 7.60631 12.0936 6.91553 12.0936C6.81458 12.094 6.71365 12.0875 6.61348 12.0742ZM6.11942 5.9525H6.77573V7.92009C6.77573 8.40309 6.88682 8.77045 7.1059 9.01191C7.32497 9.25336 7.65819 9.37585 8.09634 9.37585C8.4663 9.37585 8.74697 9.3236 8.93058 9.22064V8.23896C8.80665 8.31525 8.66658 8.35709 8.52335 8.3606C8.44822 8.36222 8.37354 8.34795 8.30366 8.31864C8.24212 8.29155 8.18811 8.24823 8.14676 8.1928C8.1021 8.1305 8.07004 8.05909 8.05261 7.98303C8.03039 7.88697 8.01984 7.78828 8.02122 7.68938V5.95253H8.93058V4.97503H8.02127V3.67034L6.77579 4.04788V4.97503H6.11948L6.11942 5.9525ZM11.0445 2.75704C10.8995 2.76703 10.7617 2.82772 10.6527 2.92961C10.6031 2.97631 10.5634 3.03353 10.536 3.09757C10.5086 3.1616 10.4943 3.23102 10.4938 3.30133C10.4938 3.60357 10.7589 3.85892 11.0727 3.85892H12.8518C13.1088 3.85892 13.3177 3.66834 13.3177 3.43406C13.3177 3.37732 13.3058 3.32128 13.2829 3.26999C13.26 3.21868 13.2277 3.17268 13.188 3.13464C13.1024 3.05277 12.991 3.00785 12.8757 3.00871C12.8678 3.00871 12.8597 3.00891 12.8517 3.00935C12.7734 3.006 12.6955 3.0243 12.6259 3.06246V3.02259C12.6251 2.91984 12.6033 2.81849 12.5618 2.72562C12.5204 2.63275 12.4603 2.5506 12.3858 2.4849C12.2239 2.34056 12.0184 2.26282 11.8069 2.26587C11.4699 2.26592 11.1635 2.46321 11.0445 2.75704Z" fill="white"/>
</svg>
