<svg width="46" height="49" viewBox="0 0 46 49" fill="none" xmlns="http://www.w3.org/2000/svg">
<path d="M39.3597 26.1576H35.8022C36.1649 27.2151 36.363 28.3564 36.363 29.5459V43.8679C36.363 44.3638 36.2819 44.8398 36.1345 45.2826H42.0158C44.2127 45.2826 46 43.3786 46 41.0385V33.2309C46.0001 29.3307 43.0212 26.1576 39.3597 26.1576Z" fill="#2F80ED"/>
<path d="M9.63711 29.5461C9.63711 28.3565 9.83521 27.2153 10.1978 26.1578H6.64037C2.97887 26.1578 0 29.3309 0 33.2312V41.0388C0 43.3789 1.78727 45.2828 3.98422 45.2828H9.86558C9.71815 44.8399 9.63711 44.364 9.63711 43.8681V29.5461Z" fill="#2F80ED"/>
<path d="M27.0665 22.4725H18.9336C15.2721 22.4725 12.2933 25.6457 12.2933 29.546V43.868C12.2933 44.6492 12.8879 45.2827 13.6213 45.2827H32.3788C33.1123 45.2827 33.7068 44.6493 33.7068 43.868V29.546C33.7068 25.6457 30.728 22.4725 27.0665 22.4725Z" fill="#2F80ED"/>
<path d="M23 3.71704C18.5966 3.71704 15.0142 7.53312 15.0142 12.2238C15.0142 15.4055 16.6627 18.1842 19.0973 19.6431C20.2521 20.3351 21.5834 20.7305 23 20.7305C24.4167 20.7305 25.748 20.3351 26.9028 19.6431C29.3375 18.1842 30.9859 15.4054 30.9859 12.2238C30.9859 7.53321 27.4035 3.71704 23 3.71704Z" fill="#2F80ED"/>
<path d="M8.97701 11.6461C5.68378 11.6461 3.00464 14.5 3.00464 18.008C3.00464 21.516 5.68378 24.3699 8.97701 24.3699C9.81238 24.3699 10.6079 24.1856 11.3305 23.8542C12.5798 23.2813 13.61 22.267 14.2474 20.9965C14.6949 20.1049 14.9494 19.0876 14.9494 18.008C14.9494 14.5001 12.2702 11.6461 8.97701 11.6461Z" fill="#2F80ED"/>
<path d="M37.0231 11.6461C33.7299 11.6461 31.0507 14.5 31.0507 18.008C31.0507 19.0877 31.3052 20.105 31.7527 20.9965C32.3901 22.2671 33.4203 23.2814 34.6696 23.8542C35.3922 24.1856 36.1877 24.3699 37.0231 24.3699C40.3163 24.3699 42.9955 21.516 42.9955 18.008C42.9955 14.5 40.3163 11.6461 37.0231 11.6461Z" fill="#2F80ED"/>
</svg>
