<svg width="41" height="51" viewBox="0 0 41 51" fill="none" xmlns="http://www.w3.org/2000/svg">
<path d="M34.2327 27.0952C34.1756 20.6462 39.4346 17.5501 39.6725 17.3992C36.7131 13.0153 32.1076 12.4147 30.4646 12.344C26.5473 11.9426 22.8172 14.6789 20.8316 14.6789C18.846 14.6789 15.7757 12.4019 12.5277 12.4661C8.25203 12.5303 4.31574 14.9808 2.11447 18.8541C-2.32296 26.6487 0.982122 38.2011 5.3022 44.528C7.41783 47.6209 9.93628 51.1055 13.2477 50.977C16.4386 50.8486 17.6439 48.8894 21.4945 48.8894C25.3452 48.8894 26.43 50.977 29.8017 50.916C33.2304 50.8486 35.4063 47.7557 37.5061 44.6533C39.9294 41.0626 40.9317 37.5876 40.9888 37.4046C40.9127 37.3725 34.3025 34.8064 34.2327 27.0952Z" fill="black"/>
<path d="M27.8984 8.15877C29.6556 6.00375 30.8419 3.00723 30.5152 0.0205078C27.9838 0.123392 24.92 1.72914 23.1024 3.88417C21.4753 5.78876 20.048 8.83974 20.4348 11.7657C23.2578 11.9873 26.141 10.3106 27.8984 8.15877Z" fill="black"/>
</svg>
