<svg width="122" height="122" viewBox="0 0 122 122" fill="none" xmlns="http://www.w3.org/2000/svg">
<g filter="url(#filter0_d)">
<circle cx="60.9998" cy="50.9871" r="40.9871" fill="white"/>
</g>
<path d="M83.3333 72.75H44.6666C42.0083 72.75 39.8333 70.575 39.8333 67.9166V43.75C39.8333 41.0916 42.0083 38.9166 44.6666 38.9166H83.3333C85.9916 38.9166 88.1666 41.0916 88.1666 43.75V67.9166C88.1666 70.575 85.9916 72.75 83.3333 72.75Z" fill="url(#paint0_linear)"/>
<path fill-rule="evenodd" clip-rule="evenodd" d="M51.9167 34.0833C51.9167 31.4195 54.0862 29.25 56.75 29.25H71.25C73.9139 29.25 76.0834 31.4195 76.0834 34.0833V38.9167H71.25V34.0833H56.75V38.9167H51.9167V34.0833Z" fill="url(#paint1_linear)"/>
<defs>
<filter id="filter0_d" x="0.0126953" y="0" width="121.974" height="121.974" filterUnits="userSpaceOnUse" color-interpolation-filters="sRGB">
<feFlood flood-opacity="0" result="BackgroundImageFix"/>
<feColorMatrix in="SourceAlpha" type="matrix" values="0 0 0 0 0 0 0 0 0 0 0 0 0 0 0 0 0 0 127 0"/>
<feOffset dy="10"/>
<feGaussianBlur stdDeviation="10"/>
<feColorMatrix type="matrix" values="0 0 0 0 0 0 0 0 0 0 0 0 0 0 0 0 0 0 0.15 0"/>
<feBlend mode="normal" in2="BackgroundImageFix" result="effect1_dropShadow"/>
<feBlend mode="normal" in="SourceGraphic" in2="effect1_dropShadow" result="shape"/>
</filter>
<linearGradient id="paint0_linear" x1="39.8333" y1="40.7775" x2="87.5508" y2="73.6441" gradientUnits="userSpaceOnUse">
<stop stop-color="#14F1D9"/>
<stop offset="1" stop-color="#3672F8"/>
</linearGradient>
<linearGradient id="paint1_linear" x1="51.9167" y1="29.7817" x2="66.258" y2="47.0681" gradientUnits="userSpaceOnUse">
<stop stop-color="#14F1D9"/>
<stop offset="1" stop-color="#3672F8"/>
</linearGradient>
</defs>
</svg>
