<svg width="182" height="169" viewBox="0 0 182 169" fill="none" xmlns="http://www.w3.org/2000/svg">
<path d="M166.832 0H15.1679C11.1465 0.00578704 7.29126 1.97368 4.44776 5.47198C1.60425 8.9703 0.00470385 13.7134 0 18.6606V169L13.0742 152.915L16.0352 149.272H166.832C170.853 149.267 174.707 147.299 177.551 143.802C180.394 140.304 181.994 135.563 182 130.616V18.6606C181.996 13.7134 180.396 8.9703 177.552 5.47198C174.709 1.97368 170.853 0.00578704 166.832 0ZM121.332 105.728H60.6679C59.3272 105.728 58.0415 105.073 57.0936 103.906C56.1457 102.74 55.6131 101.158 55.6131 99.5087C55.6131 97.8597 56.1457 96.2778 57.0936 95.1116C58.0415 93.9454 59.3272 93.2905 60.6679 93.2905H121.332C122.672 93.2905 123.959 93.9454 124.907 95.1116C125.854 96.2778 126.387 97.8597 126.387 99.5087C126.387 101.158 125.854 102.74 124.907 103.906C123.959 105.073 122.672 105.728 121.332 105.728ZM121.332 80.8485H60.6679C59.3272 80.8485 58.0415 80.193 57.0936 79.0268C56.1457 77.8605 55.6131 76.2786 55.6131 74.6297C55.6131 72.98 56.1457 71.3988 57.0936 70.2319C58.0415 69.0657 59.3272 68.4108 60.6679 68.4108H121.332C122.672 68.4108 123.959 69.0657 124.907 70.2319C125.854 71.3988 126.387 72.98 126.387 74.6297C126.387 76.2786 125.854 77.8605 124.907 79.0268C123.959 80.193 122.672 80.8485 121.332 80.8485ZM121.332 55.9689H60.6679C59.3272 55.9689 58.0415 55.3137 57.0936 54.1475C56.1457 52.9812 55.6131 51.3994 55.6131 49.7501C55.6131 48.1008 56.1457 46.519 57.0936 45.3528C58.0415 44.1865 59.3272 43.5314 60.6679 43.5314H121.332C122.672 43.5314 123.959 44.1865 124.907 45.3528C125.854 46.519 126.387 48.1008 126.387 49.7501C126.387 51.3994 125.854 52.9812 124.907 54.1475C123.959 55.3137 122.672 55.9689 121.332 55.9689Z" fill="url(#paint0_linear_3113:1918)"/>
<defs>
<linearGradient id="paint0_linear_3113:1918" x1="-9.56147e-07" y1="9.295" x2="208.667" y2="117.641" gradientUnits="userSpaceOnUse">
<stop stop-color="#14F1D9"/>
<stop offset="1" stop-color="#3672F8"/>
</linearGradient>
</defs>
</svg>
