<svg width="1549" height="635" viewBox="0 0 1549 635" fill="none" xmlns="http://www.w3.org/2000/svg">
<path d="M1562.35 166.23L-112.014 374.137L-79.7289 634.14L1594.64 426.233L1562.35 166.23Z" fill="url(#paint0_linear)"/>
<path d="M723.891 413V399.688H737.648V394.086H723.891V385.016H738.961V379.18H716.812V413H723.891ZM753.141 392.398C756.188 392.398 758.273 394.602 758.414 397.812H747.75C747.984 394.672 750.141 392.398 753.141 392.398ZM758.508 405.312C757.875 407.234 755.953 408.477 753.445 408.477C749.953 408.477 747.68 406.016 747.68 402.43V402.008H765V399.922C765 392.281 760.383 387.336 753.07 387.336C745.641 387.336 740.953 392.539 740.953 400.555C740.953 408.594 745.594 413.539 753.328 413.539C759.539 413.539 764.039 410.234 764.789 405.312H758.508ZM778.242 408.453C775.922 408.453 774.375 407.281 774.375 405.406C774.375 403.625 775.828 402.477 778.383 402.289L783.68 401.961V403.789C783.68 406.508 781.219 408.453 778.242 408.453ZM775.992 413.398C779.133 413.398 782.25 411.828 783.656 409.156H783.797V413H790.406V395.727C790.406 390.664 786.211 387.336 779.766 387.336C773.109 387.336 768.961 390.688 768.703 395.562H774.961C775.289 393.711 776.906 392.445 779.461 392.445C782.039 392.445 783.68 393.805 783.68 396.148V397.812L777.352 398.188C771.094 398.562 767.578 401.211 767.578 405.781C767.578 410.305 771.211 413.398 775.992 413.398ZM796.664 382.086V387.875H793.125V393.031H796.664V406.227C796.664 411.125 798.961 413.094 804.867 413.094C806.25 413.094 807.422 412.977 808.125 412.812V407.773C807.703 407.844 807.07 407.891 806.461 407.891C804.445 407.891 803.508 406.977 803.508 405.055V393.031H808.148V387.875H803.508V382.086H796.664ZM835.102 387.875H828.258V402.266C828.258 405.594 826.359 407.773 823.312 407.773C820.289 407.773 818.625 405.992 818.625 402.641V387.875H811.781V404.07C811.781 409.93 815.391 413.469 820.828 413.469C824.625 413.469 827.109 411.641 828.352 408.477H828.492V413H835.102V387.875ZM839.555 413H846.398V398.961C846.398 395.422 848.367 393.359 851.742 393.359C852.727 393.359 853.664 393.523 854.227 393.758V387.734C853.758 387.594 853.078 387.477 852.281 387.477C849.328 387.477 847.195 389.211 846.305 392.398H846.164V387.875H839.555V413ZM867.469 392.398C870.516 392.398 872.602 394.602 872.742 397.812H862.078C862.312 394.672 864.469 392.398 867.469 392.398ZM872.836 405.312C872.203 407.234 870.281 408.477 867.773 408.477C864.281 408.477 862.008 406.016 862.008 402.43V402.008H879.328V399.922C879.328 392.281 874.711 387.336 867.398 387.336C859.969 387.336 855.281 392.539 855.281 400.555C855.281 408.594 859.922 413.539 867.656 413.539C873.867 413.539 878.367 410.234 879.117 405.312H872.836ZM882.445 395.258C882.445 398.961 884.883 401.445 889.641 402.523L894.281 403.555C896.531 404.094 897.375 404.797 897.375 406.062C897.375 407.703 895.805 408.734 893.203 408.734C890.484 408.734 888.82 407.516 888.492 405.406H881.812C882.188 410.305 886.312 413.539 893.016 413.539C899.648 413.539 904.195 410.281 904.195 405.336C904.195 401.586 902.156 399.594 897.117 398.469L892.312 397.438C890.109 396.922 889.031 396.078 889.031 394.836C889.031 393.219 890.578 392.141 892.945 392.141C895.477 392.141 897.094 393.383 897.234 395.398H903.539C903.445 390.523 899.344 387.336 893.039 387.336C886.594 387.336 882.445 390.477 882.445 395.258Z" fill="white"/>
<path d="M696.825 388.478C696.652 388.065 696.358 387.712 695.981 387.464C695.604 387.215 695.161 387.083 694.708 387.083H677.964L671.649 370.467C671.485 370.036 671.192 369.665 670.809 369.403C670.425 369.14 669.97 369 669.503 369C669.037 369 668.581 369.14 668.198 369.403C667.814 369.665 667.521 370.036 667.357 370.467L661.037 387.083H644.292C643.839 387.083 643.395 387.215 643.018 387.464C642.641 387.712 642.348 388.065 642.174 388.478C642.001 388.891 641.956 389.346 642.044 389.784C642.133 390.223 642.351 390.626 642.672 390.942L655.504 403.599L651.239 420.439C651.127 420.887 651.156 421.358 651.323 421.789C651.49 422.22 651.787 422.59 652.174 422.85C652.561 423.11 653.019 423.247 653.487 423.242C653.954 423.238 654.41 423.092 654.791 422.825L669.5 412.464L684.21 422.825C684.591 423.092 685.047 423.238 685.514 423.242C685.982 423.247 686.44 423.11 686.827 422.85C687.214 422.59 687.511 422.22 687.678 421.789C687.845 421.358 687.874 420.887 687.762 420.439L683.496 403.599L696.329 390.942C696.65 390.625 696.868 390.223 696.956 389.784C697.044 389.346 696.999 388.891 696.825 388.478Z" fill="white"/>
<defs>
<linearGradient id="paint0_linear" x1="-139.524" y1="152.581" x2="691.517" y2="1166.48" gradientUnits="userSpaceOnUse">
<stop stop-color="#83C2FE"/>
<stop offset="1" stop-color="#3672F8"/>
</linearGradient>
</defs>
</svg>
