<svg width="30" height="30" viewBox="0 0 30 30" fill="none" xmlns="http://www.w3.org/2000/svg">
<path fill-rule="evenodd" clip-rule="evenodd" d="M14.8 8C15.4628 8 16 8.52673 16 9.17647V14.9199C16.0498 14.9636 16.0971 15.01 16.1417 15.0588H20.8C21.4628 15.0588 22 15.5855 22 16.2353C22 16.8851 21.4628 17.4118 20.8 17.4118H16.1417C15.8121 17.7728 15.333 18 14.8 18C13.8059 18 13 17.2099 13 16.2353C13 15.7126 13.2317 15.2431 13.6 14.9199V9.17647C13.6 8.52673 14.1372 8 14.8 8Z" fill="white"/>
<path fill-rule="evenodd" clip-rule="evenodd" d="M15 1C17.2555 1 19.4026 1.54439 21.2854 2.49351C25.8543 4.79344 29 9.52146 29 15C29 22.7312 22.7312 29 15 29C9.52146 29 4.79344 25.8543 2.49351 21.2854C2.14584 20.5948 2.42387 19.7531 3.1145 19.4055C3.80512 19.0579 4.64683 19.3359 4.99449 20.0266C6.83856 23.6897 10.6225 26.2 15 26.2C21.1848 26.2 26.2 21.1848 26.2 15C26.2 10.6225 23.6897 6.83856 20.0266 4.99449C18.5217 4.23583 16.804 3.8 15 3.8C11.0427 3.8 8.12572 5.80084 5.29268 9.28867C5.26076 9.32797 5.22716 9.36508 5.19205 9.4H9.4C10.1732 9.4 10.8 10.0268 10.8 10.8C10.8 11.5732 10.1732 12.2 9.4 12.2H2.4C1.62681 12.2 1 11.5732 1 10.8V3.8C1 3.02681 1.62681 2.4 2.4 2.4C3.17319 2.4 3.8 3.02681 3.8 3.8V6.71406C6.75495 3.32697 10.2285 1 15 1Z" fill="white"/>
</svg>
