<svg width="13" height="17" viewBox="0 0 13 17" fill="none" xmlns="http://www.w3.org/2000/svg">
<path d="M6.49999 0C3.37544 0 0.833313 2.54213 0.833313 5.66668C0.833313 6.60467 1.06783 7.53469 1.51364 8.35958L6.19011 16.8174C6.25236 16.9301 6.371 17 6.49999 17C6.62898 17 6.74762 16.9301 6.80988 16.8174L11.4881 8.35679C11.9322 7.53469 12.1667 6.60463 12.1667 5.66664C12.1667 2.54213 9.62454 0 6.49999 0ZM6.49999 8.5C4.93772 8.5 3.66667 7.22895 3.66667 5.66668C3.66667 4.1044 4.93772 2.83336 6.49999 2.83336C8.06226 2.83336 9.33331 4.1044 9.33331 5.66668C9.33331 7.22895 8.06226 8.5 6.49999 8.5Z" fill="#2F80ED"/>
</svg>
