<svg width="48" height="48" viewBox="0 0 14 14" fill="none" xmlns="http://www.w3.org/2000/svg">
<path d="M7.00584 1.16666H7H6.99417C4.83583 1.16666 2.98666 2.88749 2.91666 4.96416C2.89916 5.59999 3.08583 6.29416 3.34833 6.83082C3.34833 6.83082 3.35416 6.83666 3.35416 6.84249L6.48667 12.5358C6.59167 12.7342 6.79584 12.8333 7 12.8333C7.20417 12.8333 7.40834 12.7342 7.51334 12.5358L10.6458 6.84249C10.6458 6.83666 10.6517 6.83082 10.6517 6.83082C10.9142 6.29416 11.1008 5.59999 11.0833 4.96416C11.0133 2.88749 9.16417 1.16666 7.00584 1.16666Z" fill="#3188F3"/>
<path d="M6.99996 6.70832C7.80537 6.70832 8.45829 6.0554 8.45829 5.24999C8.45829 4.44458 7.80537 3.79166 6.99996 3.79166C6.19455 3.79166 5.54163 4.44458 5.54163 5.24999C5.54163 6.0554 6.19455 6.70832 6.99996 6.70832Z" fill="#3188F3"/>
<path d="M6.99996 6.70832C7.80537 6.70832 8.45829 6.0554 8.45829 5.24999C8.45829 4.44458 7.80537 3.79166 6.99996 3.79166C6.19455 3.79166 5.54163 4.44458 5.54163 5.24999C5.54163 6.0554 6.19455 6.70832 6.99996 6.70832Z" stroke="white" stroke-miterlimit="10" stroke-linecap="round" stroke-linejoin="round"/>
</svg>
