<svg width="18" height="22" viewBox="0 0 18 22" fill="none" xmlns="http://www.w3.org/2000/svg">
<path fill-rule="evenodd" clip-rule="evenodd" d="M9 0.166687H9.0125C13.6375 0.166687 17.6 3.36252 17.75 7.21919C17.7875 8.40002 17.3875 9.68919 16.825 10.6859C16.825 10.6859 16.8125 10.6967 16.8125 10.7075L10.1 21.2809C9.875 21.6492 9.4375 21.8334 9 21.8334C8.5625 21.8334 8.125 21.6492 7.9 21.2809L1.18749 10.7075C1.18749 10.6967 1.17499 10.6859 1.17499 10.6859C0.612492 9.68919 0.212491 8.40002 0.249991 7.21919C0.399991 3.36252 4.36249 0.166687 8.9875 0.166687H9ZM12.125 7.75002C12.125 9.24578 10.7259 10.4584 9 10.4584C7.27413 10.4584 5.875 9.24578 5.875 7.75002C5.875 6.25425 7.27413 5.04169 9 5.04169C10.7259 5.04169 12.125 6.25425 12.125 7.75002Z" fill="white"/>
</svg>
