<svg width="55" height="55" viewBox="0 0 55 55" fill="none" xmlns="http://www.w3.org/2000/svg">
<path d="M54.8253 19.4782C54.6519 19.0652 54.3582 18.7121 53.9813 18.4637C53.6044 18.2153 53.1613 18.0828 52.708 18.0828H35.9642L29.6489 1.46732C29.4853 1.03634 29.1921 0.66492 28.8087 0.402709C28.4252 0.140499 27.9697 0 27.5032 0C27.0366 0 26.5811 0.140499 26.1976 0.402709C25.8142 0.66492 25.5211 1.03634 25.3574 1.46732L19.0367 18.0828H2.29182C1.83851 18.0827 1.39535 18.2152 1.01841 18.4636C0.641483 18.712 0.347721 19.0651 0.1743 19.4782C0.000878443 19.8913 -0.0444092 20.3459 0.0441674 20.7844C0.132744 21.2229 0.351204 21.6256 0.671905 21.9416L13.5045 34.5987L9.23878 51.4389C9.12655 51.8869 9.15599 52.358 9.32316 52.789C9.49033 53.2201 9.78721 53.5903 10.1739 53.8501C10.5607 54.1098 11.0187 54.2466 11.4866 54.2421C11.9544 54.2376 12.4097 54.092 12.7912 53.8249L27.5005 43.4638L42.2097 53.8249C42.5912 54.092 43.0465 54.2376 43.5144 54.2421C43.9822 54.2466 44.4403 54.1098 44.827 53.8501C45.2137 53.5903 45.5106 53.2201 45.6778 52.789C45.8449 52.358 45.8744 51.8869 45.7622 51.4389L41.4964 34.5987L54.329 21.9416C54.6495 21.6255 54.8677 21.2227 54.9561 20.7842C55.0444 20.3457 54.9989 19.8912 54.8253 19.4782V19.4782Z" fill="white"/>
</svg>
