<svg width="634" height="583" viewBox="0 0 634 583" fill="none" xmlns="http://www.w3.org/2000/svg">
<path opacity="0.05" d="M32.7524 226.141C36.0339 236.161 40.8012 246.485 41.9156 254.379C45.0114 275.939 45.3209 299.623 40.6774 321.106C38.8819 329.38 35.4147 336.515 35.4766 345.322C35.6004 359.668 41.8537 378.267 47.0545 390.717C50.9551 400.129 59.0039 425.104 66.7432 430.038C78.2592 437.326 563.975 487.579 556.917 430.646C553.511 403.242 575.553 319.284 565.461 295.903C562.056 288.008 558.464 277.229 563.975 269.41C569.361 261.743 581.682 263.413 588.308 257.643C601.371 246.333 603.167 225.154 593.818 210.654C585.955 198.509 574.314 201.697 563.356 200.786C534.009 198.357 514.877 149.091 503.238 120.851C501.504 116.676 496.427 98.5328 492.217 97.015C487.945 95.4968 488.997 100.279 485.902 101.115C475.128 103.923 471.661 102.025 462.312 91.9289C446.71 75.0766 424.916 58.9075 403.493 57.0856C359.844 53.3659 324.058 84.186 284.618 100.583C261.401 110.224 237.688 109.768 213.665 108.174C206.112 107.642 187.042 109.996 182.275 102.632C163.329 134.211 130.205 131.251 102.034 132.086C92.1281 132.39 78.445 130.265 69.6531 136.109C62.7188 140.664 57.58 152.659 52.8745 160.249C44.3922 173.837 34.5479 189.019 30.2139 205.113C28.6042 211.034 30.2139 218.473 32.7524 226.141Z" fill="#88B0FF"/>
<path d="M239.333 234.349L231.037 230.092V225.361L237.018 209.987L235.281 204.783L231.037 196.031H241.069L244.542 175.453L246.085 165.518L249.171 163.154H251.294L253.801 170.959L264.412 175.453L258.817 204.783L251.294 212.115L246.085 209.987L239.333 234.349Z" fill="#EED3AC"/>
<path d="M530.48 514.908C552.583 518.855 521.379 515.288 500.637 516.35C487.326 517.033 474.138 514.376 460.826 514.528C458.226 514.528 448.815 517.109 446.834 513.162C453.954 510.201 462.56 509.745 470.113 509.138C485.53 507.847 493.083 511.567 508.438 510.201C511.163 509.973 529.489 507.24 531.285 510.884C532.337 512.858 531.347 514.528 530.48 514.908Z" fill="#353535"/>
<path opacity="0.11" d="M211.994 533.202C214.285 530.545 215.894 531.912 218.495 532.063C226.481 532.595 234.406 532.595 242.393 532.595C260.287 532.67 277.87 527.585 295.763 526.673C313.037 525.763 330.188 524.852 347.524 524.927C358.544 524.927 372.165 526.673 382.753 522.726C382.258 518.779 377.862 518.627 376.314 517.717C383.434 517.717 390.368 517.944 397.364 515.895C403.246 514.149 402.504 513.541 398.355 510.656C390.368 505.115 381.205 503.976 371.794 503.445C353.715 502.458 335.636 504.508 317.557 503.217C300.407 502.003 282.328 501.623 265.24 502.837C264.93 505.418 266.231 507.544 268.212 508.152C259.544 508.379 251.062 510.808 242.641 513.161C234.468 515.439 224.748 515.287 217.318 519.614C209.455 524.168 200.478 527.281 191.439 528.268C191.252 528.875 191.129 529.255 190.881 529.862C195.463 536.466 210.446 531.607 211.994 533.202Z" fill="#353535"/>
<path d="M255.643 335.984C252.052 336.364 245.427 336.364 241.032 336.364L244.932 320.119C244.932 320.119 245.365 320.043 246.232 319.815C247.285 319.511 249.019 318.98 251.309 318.069L251.681 317.614C252.114 312.755 256.2 308.2 259.606 306.302L264.311 303.343C263.506 309.187 264.559 310.782 267.407 312.831L270.255 313.742L255.643 335.984Z" fill="#EED3AC"/>
<path d="M246.232 319.739V336.364H242.022L246.232 319.739Z" fill="#353535"/>
<path d="M286.848 201.924C285.795 201.924 284.805 202.001 283.938 202.38C283.876 240.26 287.281 277.001 293.162 312.3C300.345 355.57 314.894 498.055 312.542 518.855C314.399 518.627 316.133 518.551 317.804 518.551C319.476 518.551 321.21 518.703 322.944 518.855C320.776 506.254 321.024 487.352 319.662 474.371C317.433 452.432 314.152 430.721 312.109 408.707C309.137 376.294 299.044 266.298 296.32 243.751C294.711 230.468 291.367 215.893 291.986 202.38C290.377 202.228 288.519 201.924 286.848 201.924Z" fill="#B3CAF8"/>
<path d="M289.696 210.426H291.987L291.863 206.935L288.643 207.618L289.696 210.426Z" fill="#353535"/>
<path opacity="0.53" d="M409.871 104.91C413.648 106.049 417.053 112.046 419.592 115.234C424.421 121.383 427.702 129.96 429.87 137.855C433.027 149.47 433.151 165.259 429.003 176.19C426.279 183.402 421.821 190.69 416.063 193.802" fill="#B3CAF8"/>
<path d="M342.694 438.54C354.334 438.692 365.974 439.072 377.428 439.755C409.809 441.728 439.59 442.033 471.723 438.92C489.988 437.174 510.357 437.098 528.808 438.389C546.515 439.603 561.436 446.967 579.392 447.042C587.564 447.042 595.489 444.993 603.538 445.904" stroke="#FFE458" stroke-width="0.896625" stroke-miterlimit="10" stroke-linecap="round"/>
<path d="M25.0752 443.93C43.278 439.072 61.295 431.101 80.1788 431.101C90.3942 431.101 100.734 434.821 110.765 436.567C126.862 439.376 143.145 440.438 159.367 440.97C197.94 442.336 236.017 434.289 274.651 434.138C281.523 434.138 288.457 433.986 295.454 433.758" stroke="#FFE458" stroke-width="0.896625" stroke-miterlimit="10" stroke-linecap="round"/>
<path d="M259.11 409.542L308.951 404.001" stroke="#005B9D" stroke-width="0.896625" stroke-miterlimit="10" stroke-linecap="round"/>
<path d="M158.067 507.24C158.067 508.379 157.324 511.34 157.696 512.783C158.129 514.452 159.986 514.452 161.101 514.604C163.639 514.908 166.239 514.908 168.778 514.908C172.307 514.908 175.836 515.666 179.366 515.819C183.823 516.046 188.529 515.819 192.986 515.439C195.525 515.212 198.001 514.604 200.416 513.769C203.202 512.783 206.545 512.403 206.793 508.227C206.855 506.785 206.607 505.418 205.184 505.342C203.76 505.267 204.193 507.317 203.078 507.468" fill="#8FE4FF"/>
<path d="M289.881 203.594C289.696 238.893 282.266 271.611 276.57 305.012C276.137 307.441 275.765 309.795 275.332 312.224C274.837 315.033 274.403 317.765 273.97 320.574C273.536 323.382 273.103 326.267 272.67 329.152C271.927 334.315 271.246 339.476 270.626 344.714C266.602 377.811 264.62 411.668 262.02 444.765C260.411 465.641 252.362 497.752 254.529 518.551C250.814 518.096 247.656 518.096 244.127 518.476C246.418 505.874 246.294 487.048 247.718 473.992C250.133 452.052 253.538 430.418 255.705 408.404C257.811 387.376 258.925 366.273 260.473 345.169C260.844 340.159 261.215 335.225 261.649 330.215C261.897 327.179 262.206 324.066 262.454 321.03C262.764 317.689 263.135 314.35 263.444 311.085C263.63 309.491 263.816 307.897 264.002 306.379C266.478 285.351 269.945 264.628 272.67 243.676C274.403 230.391 280.595 212.552 280.1 199.04C282.638 198.736 287.653 202.684 289.881 203.594Z" fill="#4382FF"/>
<path d="M272.669 329.152C271.926 334.314 271.246 339.476 270.626 344.714C267.654 345.473 263.816 346.08 260.411 345.245C260.782 340.235 261.153 335.301 261.587 330.291L272.669 329.152Z" fill="#353535"/>
<path d="M242.95 207.618C247.656 213.235 252.424 213.084 256.572 207.162C257.501 205.796 258.43 204.277 259.296 202.684" stroke="#353535" stroke-width="0.896625" stroke-miterlimit="10" stroke-linecap="round"/>
<path d="M169.954 476.041C170.697 474.523 170.388 478.014 170.388 479.457C170.326 482.418 169.769 485.454 169.397 488.338C169.025 491.223 168.716 493.956 168.53 496.765C158.128 505.419 161.41 482.721 162.524 476.421" stroke="#353535" stroke-width="0.896625" stroke-miterlimit="10" stroke-linecap="round"/>
<path d="M200.106 511.036C197.63 511.036 194.843 511.036 191.933 510.961C190.881 511.188 189.766 511.188 188.652 511.188C186.856 511.188 185.185 511.415 183.451 511.871C181.594 512.327 179.737 512.175 177.879 512.175C174.535 512.175 171.193 512.023 167.849 511.72C165.62 511.492 163.081 511.492 160.915 510.429C160.481 510.201 160.11 509.973 159.676 509.67C159.429 509.442 159.119 509.215 158.872 508.986C157.633 507.696 157.014 504.508 156.89 502.61C156.766 500.408 155.9 492.059 155.775 489.781C155.652 488.187 159.924 489.781 160.296 490.084C162.153 491.831 163.143 493.197 165.744 492.818C167.601 492.514 169.149 491.375 170.449 490.009C171.193 489.25 172.245 489.174 173.049 489.857C175.279 491.83 178.993 493.045 179.922 494.26C186.361 498.662 193.729 500.712 200.849 503.369C207.041 505.722 207.412 510.961 200.106 511.036Z" fill="#4382FF"/>
<path d="M160.852 510.353C160.79 510.353 160.79 510.353 160.729 510.353C160.11 510.202 159.8 509.973 159.614 509.67C160.048 509.973 160.481 510.202 160.852 510.353Z" fill="#353535"/>
<path d="M170.883 317.538C171.997 315.488 176.084 313.742 178.436 315.716C181.841 318.601 180.727 326.191 180.727 330.367C180.665 346.005 180.851 361.414 181.099 376.977C181.284 389.73 184.256 401.876 184.813 414.629C185.37 426.774 185.68 438.845 187.6 450.838C189.333 461.922 187.476 472.929 188.9 483.784C183.08 486.213 174.722 482.873 168.592 482.417C161.472 481.962 153.857 484.695 147.231 483.556C143.207 459.113 140.173 432.012 140.235 407.113C140.297 391.855 140.792 376.597 140.917 361.339C141.04 351.166 143.764 342.285 144.322 332.264C144.508 328.696 142.712 318.828 145.003 316.172C146.427 314.577 153.918 316.019 155.962 316.096C160.358 316.399 165.991 316.93 170.883 317.538Z" fill="#4382FF"/>
<path d="M170.883 317.538C171.997 315.488 176.084 313.742 178.436 315.716C181.841 318.601 180.727 326.191 180.727 330.367C180.665 346.005 180.851 361.414 181.099 376.977C181.284 389.73 184.256 401.876 184.813 414.629C185.37 426.774 185.68 438.845 187.6 450.838C189.333 461.922 187.476 472.929 188.9 483.784C183.08 486.213 174.722 482.873 168.592 482.417C161.472 481.962 153.857 484.695 147.231 483.556C143.207 459.113 140.173 432.012 140.235 407.113C140.297 391.855 140.792 376.597 140.917 361.339C141.04 351.166 143.764 342.285 144.322 332.264C144.508 328.696 142.712 318.828 145.003 316.172C146.427 314.577 153.918 316.019 155.962 316.096C160.358 316.399 165.991 316.93 170.883 317.538Z" fill="black" fill-opacity="0.24"/>
<path d="M135.592 493.197C136.335 491.678 136.025 495.17 136.025 496.613C135.963 499.573 135.406 502.609 135.035 505.494C134.663 508.379 134.353 511.111 134.168 513.92C123.766 522.574 127.047 499.877 128.162 493.576" stroke="#353535" stroke-width="0.896625" stroke-miterlimit="10" stroke-linecap="round"/>
<path d="M165.682 528.192C163.205 528.192 160.419 528.192 157.509 528.115C156.457 528.344 155.343 528.344 154.228 528.344C152.433 528.344 150.76 528.571 149.027 529.027C147.17 529.483 145.312 529.33 143.455 529.33C140.112 529.33 136.768 529.178 133.424 528.875C131.196 528.647 128.658 528.647 126.49 527.585C126.057 527.357 125.686 527.129 125.252 526.825C125.004 526.598 124.695 526.37 124.447 526.142C123.209 524.852 122.589 521.664 122.466 519.766C122.342 517.564 121.475 509.214 121.352 506.937C121.228 505.342 125.499 506.937 125.871 507.24C127.729 508.986 128.719 510.352 131.32 509.973C133.177 509.669 134.725 508.531 136.025 507.164C136.768 506.405 137.82 506.33 138.626 507.013C140.854 508.986 144.569 510.201 145.498 511.415C151.937 515.818 159.305 517.868 166.425 520.525C172.679 522.878 173.049 528.115 165.682 528.192Z" fill="#4382FF"/>
<path d="M126.49 527.584C126.428 527.584 126.428 527.584 126.366 527.584C125.748 527.432 125.438 527.205 125.252 526.901C125.624 527.129 126.057 527.357 126.49 527.584Z" fill="#353535"/>
<path d="M109.154 322.016C109.154 338.793 108.659 357.922 113.488 373.712C116.337 382.973 122.466 394.587 121.537 404.835C120.918 411.515 118.38 419.107 117.204 426.09C115.47 435.883 112.56 446.435 112.002 456.759C111.322 469.815 111.383 483.328 111.322 496.309C111.322 497.144 110.703 496.309 110.145 496.992C114.417 502.458 128.905 497.675 135.097 496.992C139.988 496.46 146.427 496.157 149.337 499.877C152.246 496.536 152.433 485.529 153.67 480.519C156.209 470.271 155.218 459.491 155.59 448.94C156.085 432.316 161.595 415.842 161.844 399.977C161.967 393.145 159.305 384.643 158.624 377.66C158.066 372.041 157.943 361.87 155.404 357.391C155.033 348.357 156.395 338.565 155.9 329.835C155.466 322.092 151.256 322.016 145.684 320.043C138.192 317.385 130.391 318.6 122.528 318.068C118.751 317.765 111.445 317.765 109.154 322.016Z" fill="#4382FF"/>
<path d="M165.806 224.015C148.037 223.939 128.41 226.216 116.398 243.903C111.384 251.19 110.826 263.26 108.473 272.142C107.421 276.089 105.873 322.396 111.384 321.182C114.479 320.498 141.598 322.016 144.198 320.726L178.064 320.877C180.665 322.245 197.753 241.322 181.593 231.834C170.511 225.305 165.806 224.015 165.806 224.015Z" fill="#353535"/>
<path d="M164.258 212.704L162.834 229.176C162.524 232.744 159.924 235.326 157.014 234.946C154.104 234.566 151.999 231.378 152.309 227.81L153.732 211.337C154.042 207.77 156.642 205.189 159.553 205.569C160.977 205.72 162.277 206.631 163.143 207.921C163.948 209.212 164.444 210.882 164.258 212.704Z" fill="#EED3AC"/>
<path d="M164.258 212.704L163.515 221.054C159.739 220.067 156.519 215.74 153.547 213.008L153.671 211.337C153.98 207.77 156.581 205.189 159.491 205.569C160.915 205.72 162.214 206.631 163.081 207.921C163.948 209.212 164.444 210.882 164.258 212.704Z" fill="#353535"/>
<path d="M194.224 202.152C194.224 202.76 194.224 203.367 194.163 204.05C194.039 205.492 193.791 206.935 193.357 208.225C192.677 210.427 191.624 212.325 190.385 213.918C187.909 216.955 184.504 218.852 180.789 218.852C180.356 218.852 179.86 218.852 179.427 218.777L166.982 217.183C165.93 217.03 164.939 216.879 163.948 216.576C160.171 215.589 156.766 213.615 153.794 210.882C149.956 207.391 146.922 202.684 145.065 197.294C144.136 194.636 143.517 191.753 143.145 188.868C143.022 187.502 142.897 186.059 142.897 184.617C142.897 183.402 142.96 182.187 143.022 180.973L148.717 181.732L182.213 186.059C186.671 186.666 190.385 189.855 192.429 194.258C193.605 196.458 194.224 199.267 194.224 202.152Z" fill="#EED3AC"/>
<path d="M147.727 195.548C144.755 198.509 140.36 197.901 138.007 194.258C135.592 190.614 136.087 185.224 139.059 182.339" stroke="#353535" stroke-width="0.896625" stroke-miterlimit="10" stroke-linecap="round"/>
<path d="M173.855 211.945C174.165 213.691 177.136 214.677 178.064 213.463" stroke="#353535" stroke-width="0.896625" stroke-miterlimit="10" stroke-linecap="round"/>
<path d="M165.558 194.106C165.991 193.65 166.487 193.422 166.982 193.195C167.477 193.043 167.973 192.967 168.468 192.891C168.963 192.891 169.459 192.891 169.954 192.967C170.449 193.043 170.945 193.195 171.502 193.422H171.564C172.245 193.726 172.554 194.561 172.307 195.396C172.059 196.231 171.378 196.611 170.697 196.307C170.635 196.307 170.511 196.231 170.449 196.155C169.892 195.699 169.149 195.396 168.406 195.245C167.663 195.092 166.858 195.092 166.301 195.472H166.239C165.868 195.699 165.496 195.472 165.311 195.092C165.248 194.713 165.311 194.333 165.558 194.106Z" fill="#353535"/>
<path d="M185.928 198.509C185.804 198.28 185.619 198.053 185.309 197.825C184.999 197.597 184.69 197.446 184.318 197.294C183.575 196.99 182.77 196.914 182.027 196.99H181.965C181.594 196.99 181.284 196.687 181.284 196.231C181.284 195.851 181.47 195.548 181.718 195.396C182.647 195.016 183.637 194.941 184.628 195.016C185.123 195.092 185.619 195.168 186.176 195.396C186.671 195.624 187.228 195.928 187.723 196.458L187.847 196.611C188.342 197.218 188.404 198.204 187.909 198.812C187.414 199.419 186.609 199.495 186.114 198.888C186.114 198.812 185.989 198.66 185.928 198.509Z" fill="#353535"/>
<path d="M166.363 198.28C166.61 197.142 167.539 196.535 168.468 196.838C168.902 196.99 169.211 197.294 169.459 197.75" stroke="#353535" stroke-width="0.896625" stroke-miterlimit="10" stroke-linecap="round"/>
<path d="M182.151 200.406C182.46 199.951 182.894 199.647 183.451 199.647C184.38 199.647 185.185 200.558 185.185 201.697" stroke="#353535" stroke-width="0.896625" stroke-miterlimit="10" stroke-linecap="round"/>
<path d="M177.322 206.935C177.507 207.466 178.684 207.542 179.056 206.935C179.365 206.403 179.056 204.96 178.87 205.189" stroke="#353535" stroke-width="0.896625" stroke-miterlimit="10" stroke-linecap="round"/>
<path d="M207.412 187.805C206.793 187.35 205.865 187.653 205.803 188.336C205.803 190.69 204.502 192.816 202.149 194.106C198.249 196.155 192.863 195.016 189.643 192.511C187.847 191.145 187.043 189.475 186.609 188.185C186.424 187.502 185.371 187.273 184.875 187.729C183.08 189.475 180.356 190.082 178.374 189.323C176.641 188.716 175.464 186.97 175.093 185.148C173.978 186.211 171.688 188.033 167.911 188.792C160.791 190.158 151.504 186.894 148.408 181.124C148.037 180.441 145.375 175.28 149.213 171.484C152.68 168.068 158.624 168.675 159.182 168.751C159.182 165.715 161.038 163.134 164.072 162.223C166.053 161.615 169.707 161.388 171.935 163.21C173.112 164.196 173.421 165.335 173.483 166.018C175.65 164.424 182.337 160.098 191.996 160.705C200.663 161.236 211.932 165.715 212.737 171.105C212.984 172.851 212.117 174.444 210.879 175.735C215.894 176.798 219.423 180.062 219.61 183.402C219.733 185.68 218.309 188.565 214.78 189.323C212.365 189.931 209.579 189.323 207.412 187.805Z" stroke="#353535" stroke-width="0.896625" stroke-miterlimit="10" stroke-linecap="round"/>
<path d="M140.792 189.399C142.031 189.551 142.278 190.082 142.65 191.601" stroke="#353535" stroke-width="0.80585" stroke-miterlimit="10" stroke-linecap="round"/>
<path d="M142.278 189.702C142.65 189.095 143.145 188.565 143.764 188.412" stroke="#353535" stroke-width="0.80585" stroke-miterlimit="10" stroke-linecap="round"/>
<path d="M142.588 184.389C143.889 184.997 145.25 185.224 146.551 184.921C147.541 184.692 148.346 184.237 149.027 183.705" stroke="#353535" stroke-width="0.896625" stroke-miterlimit="10" stroke-linecap="round"/>
<path d="M154.104 165.715C153.237 164.425 151.937 163.057 150.203 162.223C144.012 159.11 138.13 165.032 137.759 165.411C136.706 166.474 133.363 169.966 133.734 174.824C133.796 175.811 134.044 176.798 134.415 177.785" stroke="#353535" stroke-width="0.896625" stroke-miterlimit="10" stroke-linecap="round"/>
<path d="M214.47 161.54C215.337 161.008 216.637 160.477 217.566 159.794" stroke="#353535" stroke-width="0.896625" stroke-miterlimit="10" stroke-linecap="round"/>
<path d="M218.495 170.042C219.733 169.89 221.095 169.814 222.334 170.194" stroke="#353535" stroke-width="0.896625" stroke-miterlimit="10" stroke-linecap="round"/>
<path d="M127.79 191.753C126.057 191.221 123.828 191.297 123.209 193.726" stroke="#353535" stroke-width="0.896625" stroke-miterlimit="10" stroke-linecap="round"/>
<path d="M119.185 181.883C120.423 181.277 121.847 181.353 123.086 181.276" stroke="#353535" stroke-width="0.896625" stroke-miterlimit="10" stroke-linecap="round"/>
<path d="M184.503 277.836C185.247 285.503 197.94 293.473 203.016 298.56C203.573 299.091 204.131 299.622 204.626 300.154C208.093 303.646 224.562 300.609 226.915 295.903C236.264 276.849 246.789 258.403 252.548 236.464C245.613 233.807 237.874 228.722 230.568 226.9C226.729 225.913 221.9 226.292 218.556 224.091C218.371 224.85 218.556 225.457 218.433 226.217C216.823 238.058 213.108 244.131 214.099 256.05C208.403 255.442 201.53 246.788 196.144 244.131C192.8 242.461 184.937 232.441 176.331 229.936" fill="#353535"/>
<path d="M141.721 252.102C155.343 254.987 180.108 284.061 185.866 294.309C190.757 302.963 203.078 310.099 225.12 313.818C232.302 315.033 246.232 315.943 246.232 315.943L238.679 345.625C238.679 345.625 223.696 345.852 194.534 337.654C171.193 331.05 152.246 305.695 152.246 305.695" stroke="#78D2EE" stroke-width="0.75" stroke-miterlimit="10" stroke-linecap="round"/>
<path d="M124.385 525.156C124.385 526.294 123.643 529.331 124.014 530.697C124.447 532.367 126.305 532.367 127.419 532.519C129.957 532.823 132.558 532.823 135.097 532.823C138.626 532.823 142.155 533.506 145.684 533.658C150.141 533.885 154.847 533.582 159.305 533.202C161.844 532.975 164.32 532.367 166.735 531.456C169.52 530.47 172.864 530.09 173.049 525.839C173.111 524.397 172.864 523.03 171.44 522.954C170.016 522.878 170.449 524.928 169.335 525.08" stroke="#005B9D" stroke-width="0.5" stroke-miterlimit="10" stroke-linecap="round"/>
<path d="M321.829 196.763C317.124 197.066 312.232 197.446 307.527 196.99C303.503 196.611 275.579 200.406 271.493 200.558C267.221 200.709 262.763 202.455 258.553 201.924C257.81 195.928 256.138 189.627 255.333 183.326C254.529 176.798 255.643 165.563 253.662 160.781C261.401 159.566 293.04 149.774 300.717 147.116C304.307 145.826 310.313 141.347 315.514 139.297C315.761 144.231 316.69 149.697 317 153.645C317.495 161.464 317.681 169.283 319.353 176.873C319.724 178.468 320.034 179.986 320.344 181.504C321.024 186.59 321.581 191.6 321.829 196.763Z" fill="white" stroke="#005B9D" stroke-width="0.75" stroke-miterlimit="10"/>
<path d="M407.147 195.928C396.807 197.142 362.012 201.317 350.619 201.621C346.348 201.772 325.607 207.314 323.625 204.05C323.439 201.393 323.192 198.812 322.882 196.307C322.263 191.297 321.396 186.363 320.344 181.429C320.034 179.91 319.725 178.392 319.353 176.798C317.682 169.207 317.495 161.388 317 153.569C316.753 149.621 315.824 144.08 315.514 139.221C315.514 138.994 315.514 138.766 315.452 138.462C315.329 135.958 315.452 133.528 315.886 131.706C323.439 127.455 333.345 127 341.332 124.115C347.09 122.066 373.776 115.234 379.657 113.412C385.663 111.59 391.05 109.92 397.117 109.237C398.356 109.085 398.541 108.25 399.532 107.339C402.689 114.019 402.008 126.62 402.565 134.591C403.309 145.446 403.866 156.301 404.299 167.233C404.67 175.583 404.795 188.336 407.147 195.928Z" fill="white" stroke="#005B9D" stroke-width="0.75" stroke-miterlimit="10"/>
<path d="M258.181 195.852C256.015 196.079 244.56 197.674 240.536 198.204C236.326 198.736 215.151 200.179 202.211 201.318C197.692 201.697 194.224 202.152 192.738 202.455C189.333 203.215 185.432 206.328 182.522 204.277C182.027 203.974 181.593 203.063 181.223 201.925C181.16 201.772 181.16 201.697 181.16 201.697C180.169 198.509 179.798 193.574 181.346 192.739C190.076 188.033 229.205 178.544 237.688 173.458C243.322 170.042 249.513 168.371 254.9 164.272C256.386 164.576 258.429 191.448 258.181 195.852Z" fill="#4382FF"/>
<path d="M274.341 143.852C273.908 160.249 275.332 192.436 279.108 208.074C281.276 207.997 295.268 208.453 292.915 205.416C292.978 184.237 290.625 162.45 289.82 141.347C285.485 142.486 278.923 143.625 274.341 143.852Z" fill="#4382FF"/>
<path d="M238.679 235.098C240.041 230.088 244.251 215.513 246.108 210.882" stroke="#353535" stroke-width="0.896625" stroke-miterlimit="10" stroke-linecap="round"/>
<path d="M245.86 169.51C246.17 166.095 250.071 158.807 251.928 164.652" stroke="#353535" stroke-width="0.896625" stroke-miterlimit="10" stroke-linecap="round"/>
<path d="M233.354 199.723C232.735 197.218 231.311 193.043 231.187 190.385C231.125 189.399 230.568 188.109 231.125 187.502C235.583 182.795 239.36 197.673 245.984 198.433" fill="#EED3AC"/>
<path d="M250.875 330.671C250.628 332.796 252.486 335.452 254.095 336.06C255.519 336.591 257.005 337.274 258.491 337.73C261.03 338.489 263.816 338.869 266.354 339.476C269.14 340.159 270.069 339.856 272.607 338.641C274.403 337.73 277.622 336.06 279.046 334.466C280.037 333.251 279.48 331.657 279.48 330.139C279.48 328.696 279.79 327.103 280.223 325.736C280.718 324.066 282.823 317.918 280.532 316.703C280.532 316.703 282.08 311.768 277.622 307.29C273.164 302.811 263.382 308.656 263.382 308.656C263.382 308.656 253.352 316.247 252.981 319.132C252.609 322.169 250.875 330.671 250.875 330.671Z" fill="#EED3AC"/>
<path d="M276.818 300.989C276.818 300.989 283.938 310.478 282.266 313.211C280.594 315.867 279.48 319.284 279.48 319.284L275.827 307.594L276.818 300.989Z" fill="#EED3AC"/>
<path opacity="0.2" d="M181.284 202.152C181.408 202.456 181.594 202.911 181.841 203.443C181.656 203.063 181.47 202.684 181.284 202.152Z" fill="#353535"/>
<path opacity="0.2" d="M194.224 202.152C194.224 202.76 194.224 203.367 194.163 204.05C194.039 205.492 193.791 206.935 193.357 208.225C192.677 210.426 191.624 212.325 190.386 213.918C188.343 212.476 186.485 210.654 185.681 209.819C184.628 208.757 182.894 205.569 181.903 203.519C182.09 203.898 182.337 204.126 182.522 204.277C185.432 206.328 189.395 203.215 192.739 202.456C193.11 202.38 193.606 202.228 194.224 202.152Z" fill="#353535"/>
<path opacity="0.2" d="M320.344 181.429L300.965 187.046C298.983 187.577 296.94 186.59 295.887 184.465L291.987 150.76L290.253 151.52L292.791 198.204L321.829 196.838L320.344 181.429Z" fill="#353535"/>
<path opacity="0.2" d="M275.146 176.646L277.499 199.875L258.491 201.848L257.439 192.436C257.439 192.436 269.635 191.6 271.555 188.564C273.474 185.527 275.146 176.646 275.146 176.646Z" fill="#353535"/>
<path opacity="0.2" d="M392.721 109.996L390.678 172.927C390.121 177.025 387.52 180.138 384.177 180.669L321.891 190.765L323.624 204.05C323.624 204.05 340.341 204.733 366.778 200.406C393.216 196.079 407.147 195.928 407.147 195.928L403.184 141.955L392.721 109.996Z" fill="#353535"/>
<path d="M506.333 504.356C504.043 461.542 505.157 420.322 520.512 380.696C529.117 358.454 537.104 335.832 547.32 314.653C550.045 308.96 565.523 283.378 573.696 292.563C577.906 297.27 572.21 312.376 570.538 316.779C564.099 333.327 556.36 349.117 550.911 366.273C545.277 384.264 542.305 404.001 538.095 422.599C534.195 439.755 528.251 455.925 524.721 473.004C523.607 478.47 507.448 519.007 506.333 504.356Z" fill="#4382FF"/>
<path d="M518.53 442.26C515.497 437.933 515.558 433.682 514.568 428.445C512.338 416.982 508.872 405.444 505.776 394.284C498.656 368.475 494.445 342.057 491.474 315.033C490.297 304.329 474.819 216.044 493.517 217.107C499.647 217.41 498.222 230.544 499.089 236.616C501.256 250.963 504.476 264.703 508.005 278.595C513.453 300.078 517.292 322.928 520.573 345.093C522.988 361.566 528.003 376.369 527.26 393.449C526.702 405.368 525.65 433.606 518.53 442.26Z" fill="#4382FF"/>
<path d="M517.663 451.066C514.94 448.409 514.506 445.296 513.144 441.653C510.172 433.606 506.271 425.787 502.68 418.197C494.384 400.585 488.255 381.986 482.868 362.705C480.763 355.114 459.031 293.246 472.838 290.665C477.358 289.83 477.853 299.699 479.215 303.95C482.496 314.046 486.459 323.535 490.669 333.1C497.17 347.827 502.68 363.919 507.695 379.557C511.41 391.247 516.858 401.117 518.282 413.793C519.335 422.675 521.874 443.55 517.663 451.066Z" fill="#4382FF"/>
<path d="M510.358 512.858C508.005 512.858 505.652 512.63 503.733 512.478C503.547 511.644 503.733 510.961 504.29 514.224C494.57 511.719 483.611 495.626 476.677 487.2C466.956 475.358 461.074 466.476 454.511 452.129C457.05 453.04 459.526 454.103 461.941 455.166C453.334 444.234 448.32 430.722 444.667 416.071C442.809 408.632 438.104 393.298 442.252 385.934C444.419 386.162 446.772 387.073 448.753 388.364C449.558 374.472 445.596 361.035 446.276 346.992C451.849 346.46 453.83 350.711 458.288 348.89C461.198 347.675 460.889 342.134 465.78 344.563C470.485 346.839 469.184 356.48 473.519 359.821C477.419 362.781 479.153 359.214 482.62 358.53C490.978 356.936 488.316 359.592 494.445 366.804C500.575 374.092 505.342 379.102 509.305 388.288C513.144 397.245 521.44 403.925 523.731 412.504C526.022 421.081 525.403 433.455 525.031 442.337C524.412 458.581 529.922 471.107 526.393 487.807C525.093 493.804 525.526 502.079 522.431 507.241C520.202 510.961 511.162 516.502 507.324 513.39C500.08 507.544 521.564 486.062 525.031 479.76C534.628 462.377 544.844 445.525 556.979 430.646C567.876 417.285 578.649 399.371 583.354 381.303C578.339 387.225 572.953 393.601 567.443 398.839C556.422 409.39 548.125 417.817 540.139 433.303C530.294 452.281 507.819 478.85 509.676 503.521" fill="#4382FF"/>
<path d="M520.078 506.86C525.713 502.685 535.866 497.448 542.677 491.83C546.888 488.338 556.669 477.71 545.277 475.357C553.45 472.928 566.514 462.756 564.594 450.61C558.651 449.396 556.299 454.482 551.964 457.822C549.859 446.814 544.535 447.953 537.538 446.511C533.576 445.752 533.451 442.867 528.87 445.676C526.332 447.27 524.474 450.914 523.05 453.647C517.911 463.515 517.106 471.486 517.478 483.252C517.664 488.49 517.601 491.602 516.735 496.84C516.24 499.649 514.134 505.57 520.078 506.86Z" fill="#4382FF"/>
<path d="M473.952 378.494C474.819 377.431 475.562 376.293 476.243 375.079C479.772 381.228 478.348 391.02 480.825 397.624C482.311 396.41 484.539 394.815 485.592 392.462C490.298 395.12 490.111 407.037 493.888 411.971C495.808 414.476 497.604 412.731 499.585 416.602C502.866 423.055 500.946 435.731 500.946 443.019" stroke="#78D2EE" stroke-width="0.5" stroke-miterlimit="10" stroke-linecap="round"/>
<path d="M530.665 408.327C533.761 380.62 540.943 347.902 550.911 323.003" stroke="#78D2EE" stroke-width="0.5" stroke-miterlimit="10" stroke-linecap="round"/>
<path d="M514.444 330.518C514.444 328.393 514.444 326.343 514.444 324.218C514.382 318.752 511.286 309.719 512.215 304.785C513.454 298.332 515.372 302.431 519.335 304.253C519.645 291.803 522.802 281.252 527.631 270.396C530.356 264.172 531.718 255.442 536.857 251.722C539.395 249.9 540.262 250.736 542.924 249.293C546.887 247.168 548.992 240.639 553.388 239.046C556.174 238.058 560.879 237.907 563.975 237.299C564.78 246.105 559.393 251.419 558.094 259.389C559.889 260.984 561.932 259.541 563.108 261.818C564.346 264.248 562.241 269.41 561.561 271.459C559.703 276.925 557.907 285.276 555.245 289.906C553.636 292.715 550.478 293.853 548.806 296.738C546.701 300.458 546.268 305.848 544.782 310.022C542.305 316.855 538.343 321.409 537.229 329.076C536.362 335.073 535.99 341.222 534.752 347.219C533.142 354.81 529.799 360.731 527.693 367.943C526.764 371.131 526.889 382.518 523.731 383.049C518.716 383.884 516.363 366.197 515.682 362.402C513.515 350.787 509.553 339.324 514.444 330.518Z" fill="#4382FF"/>
<path d="M427.888 150.457C427.888 158.199 428.074 167.385 425.163 174.444" stroke="white" stroke-width="1.5" stroke-miterlimit="10" stroke-linecap="round"/>
<path d="M279.604 208.074C279.604 208.074 288.829 208.225 289.881 207.618L289.634 214.222C289.386 216.576 283.257 216.652 278.799 213.691L279.604 208.074Z" fill="#353535"/>
<path d="M490.483 496.84C488.563 492.665 479.029 489.401 476.429 494.032C475.314 496.006 479.215 507.544 482.744 510.277C487.945 514.224 498.47 513.997 501.442 515.363C504.723 516.805 508.686 514.908 512.091 514.528C517.23 513.845 522.059 515.059 527.136 515.591C529.242 515.819 531.594 515.818 533.328 514.376C534.566 513.313 535.495 511.264 536.423 509.898C538.405 506.937 540.634 504.128 542.677 501.243C544.287 498.966 548.064 495.55 548.559 492.589C542.491 490.843 537.662 491.451 531.532 491.451C520.326 491.451 508.314 488.262 497.542 492.893C494.755 493.955 491.722 495.474 490.483 496.84Z" fill="#4382FF"/>
<path d="M499.151 490.54C501.256 487.276 507.633 480.443 511.039 481.506C510.791 489.553 514.939 483.708 518.53 481.506C523.669 478.243 524.226 485.302 529.055 483.784C531.47 483.025 530.603 483.025 532.771 484.087C535.618 485.454 537.599 485.15 540.571 485.15C544.658 485.15 547.382 488.414 547.692 493.501C547.815 495.247 547.32 496.993 547.444 498.738C547.567 500.332 548.249 501.623 548.125 503.293C548.001 506.025 546.391 507.62 546.391 510.353" stroke="#78D2EE" stroke-width="0.5" stroke-miterlimit="10" stroke-linecap="round"/>
<path d="M107.606 48.5833C95.9052 48.5833 86.0607 58.4519 83.3361 71.7363H72.5633C63.9572 71.7363 56.9609 80.3144 56.9609 90.866C56.9609 101.418 63.9572 109.996 72.5633 109.996H131.072C139.678 109.996 146.674 101.418 146.674 90.866C146.674 80.618 140.112 72.2677 131.877 71.7363C129.153 58.4519 119.309 48.5833 107.606 48.5833Z" fill="#8FE4FF"/>
<path d="M523.545 109.996C513.824 109.996 505.652 118.195 503.361 129.277C496.488 129.733 491.04 136.641 491.04 145.219C491.04 154.025 496.86 161.16 504.043 161.16H571.962C579.144 161.16 584.964 154.025 584.964 145.219C584.964 136.413 579.144 129.277 571.962 129.277H543.729C541.438 118.195 533.328 109.996 523.545 109.996Z" fill="#8FE4FF"/>
<path d="M418.415 199.952L408.014 201.773C405.599 202.228 403.308 200.103 402.936 197.142L392.411 107.036C392.04 104.075 393.773 101.266 396.188 100.81L406.59 98.9886C409.005 98.5338 411.295 100.659 411.667 103.62L422.192 193.65C422.502 196.763 420.829 199.496 418.415 199.952Z" fill="#4382FF"/>
<path opacity="0.2" d="M184.38 55.9467L186.299 60.7292L190.695 61.5642L187.538 65.2839L188.281 70.5977L184.38 68.0926L180.479 70.5977L181.223 65.2839L178.065 61.5642L182.399 60.7292L184.38 55.9467Z" fill="#8FE4FF"/>
<path opacity="0.2" d="M392.783 229.859L394.702 234.718L399.037 235.478L395.878 239.273L396.622 244.587L392.783 242.082L388.882 244.587L389.626 239.273L386.468 235.478L390.802 234.718L392.783 229.859Z" fill="#8FE4FF"/>
<path opacity="0.2" d="M511.72 49.4184L513.701 54.2767L518.035 55.0358L514.877 58.7554L515.62 64.0692L511.72 61.5642L507.819 64.0692L508.562 58.7554L505.404 55.0358L509.8 54.2767L511.72 49.4184Z" fill="#8FE4FF"/>
<path opacity="0.2" d="M319.787 49.4184L320.777 51.8475L322.944 52.2271L321.334 54.1248L321.706 56.7817L319.787 55.4913L317.867 56.7817L318.239 54.1248L316.628 52.2271L318.796 51.8475L319.787 49.4184Z" fill="#8FE4FF"/>
<path opacity="0.2" d="M591.775 182.946L592.765 185.376L594.932 185.755L593.384 187.653L593.756 190.31L591.775 189.095L589.855 190.31L590.227 187.653L588.617 185.755L590.784 185.376L591.775 182.946Z" fill="#8FE4FF"/>
<path opacity="0.2" d="M606.696 56.7818L607.687 59.135L609.853 59.5905L608.306 61.4123L608.677 64.0693L606.696 62.8547L604.777 64.0693L605.148 61.4123L603.538 59.5905L605.705 59.135L606.696 56.7818Z" fill="#8FE4FF"/>
<path opacity="0.2" d="M32.8764 56.7818L33.867 59.135L36.034 59.5905L34.4242 61.4123L34.7957 64.0693L32.8764 62.8547L30.8951 64.0693L31.2666 61.4123L29.7188 59.5905L31.8858 59.135L32.8764 56.7818Z" fill="#8FE4FF"/>
<path opacity="0.2" d="M76.2162 193.802L77.2069 196.231L79.3736 196.611L77.7641 198.509L78.1355 201.165L76.2162 199.875L74.235 201.165L74.6064 198.509L73.0586 196.611L75.2256 196.231L76.2162 193.802Z" fill="#8FE4FF"/>
<path d="M229.887 230.163C230.197 225.381 235.954 211.717 237.007 207.314C232.513 202.748 229.949 189.85 229.887 188.864" stroke="#353535" stroke-width="0.896625" stroke-miterlimit="10" stroke-linecap="round"/>
</svg>
