<svg width="41" height="56" viewBox="0 0 41 56" fill="none" xmlns="http://www.w3.org/2000/svg">
<path d="M20.2256 55.9012C20.0897 55.8325 19.9738 55.7307 19.8888 55.6053L12.7513 45.1951C12.8132 45.2032 12.8741 45.2132 12.9323 45.225C13.8225 45.4012 14.5958 45.7361 15.4147 46.0908L15.4156 46.0911C16.454 46.541 17.5281 47.0061 18.9648 47.2063C19.7011 47.3199 20.4446 47.3821 21.1897 47.3924C21.9414 47.3924 22.5742 47.3063 23.45 47.187H23.4524L23.4559 47.1865C23.766 47.1443 24.1174 47.0966 24.5143 47.0471C25.8531 46.8805 26.3279 46.6987 26.8305 46.5062L26.8315 46.5058C27.1685 46.3714 27.5139 46.2586 27.8656 46.1682L21.3949 55.6053C21.3099 55.7307 21.194 55.8325 21.0581 55.9012C20.9291 55.9662 20.7865 56 20.6418 56C20.4971 56 20.3545 55.9662 20.2256 55.9012ZM19.7262 45.6118C19.1559 45.5216 18.5993 45.3613 18.0692 45.1348C17.5485 44.9192 17.0448 44.6574 16.5579 44.4044C15.9772 44.1025 15.3767 43.7902 14.7484 43.5575C14.4308 43.4381 14.1045 43.3428 13.7723 43.2725C13.4227 43.1988 13.0666 43.1587 12.7091 43.1527C12.6712 43.1519 12.6316 43.1516 12.5914 43.1516C12.195 43.1543 11.7991 43.1814 11.4061 43.2327L8.43833 38.9046C8.81262 38.7704 9.16546 38.6331 9.50663 38.5002L9.51239 38.4979C10.5701 38.0864 11.4835 37.731 12.3585 37.731C12.5511 37.7304 12.7433 37.7487 12.9322 37.7858C13.8227 37.962 14.5961 38.297 15.415 38.6516H15.4155C16.4539 39.1014 17.528 39.5666 18.9647 39.7668C19.701 39.8804 20.4444 39.9426 21.1896 39.9529C21.9415 39.9529 22.5743 39.8667 23.4503 39.7474H23.4522L23.4557 39.7468L23.4587 39.7465C23.7679 39.7044 24.1182 39.6566 24.5141 39.6074C25.853 39.4407 26.3277 39.259 26.8303 39.0665C27.3963 38.8414 27.9844 38.6748 28.5851 38.5694C28.9804 38.4933 29.3257 38.4202 29.6304 38.3559L29.6331 38.3554L29.6351 38.3549H29.6368C30.4699 38.1789 31.0717 38.0517 31.7953 38.0517C32.2507 38.056 32.705 38.0966 33.1537 38.1731C33.2096 38.182 33.2679 38.1917 33.3268 38.2021L29.9817 43.0808C29.7246 43.1216 29.4704 43.1789 29.2209 43.2524H29.2203C28.9404 43.3273 28.557 43.4301 27.9637 43.5619C27.3019 43.7088 26.4671 44.0195 25.5836 44.3483H25.5832L25.581 44.3491C23.9286 44.9642 22.0564 45.6612 20.4343 45.6612C20.1974 45.6621 19.9607 45.6455 19.7262 45.6118ZM20.4342 38.2229C20.1973 38.2236 19.9606 38.2069 19.7262 38.173C19.1559 38.0828 18.5993 37.9226 18.0692 37.6961C17.5488 37.4805 17.0452 37.2187 16.5581 36.9656H16.5577C15.9772 36.6639 15.3771 36.3519 14.7484 36.1192C14.4308 35.9999 14.1045 35.9046 13.7723 35.8343C13.4227 35.7606 13.0666 35.7204 12.7091 35.7144C12.673 35.7138 12.6333 35.7134 12.5916 35.7134C11.0807 35.7134 9.24232 36.1913 7.62031 36.6129H7.6197L7.61599 36.6139L7.56839 36.6262C7.36487 36.6792 7.17295 36.729 6.9805 36.7781L4.98071 33.8612C4.42225 33.2261 3.90373 32.5578 3.42806 31.86C4.26811 31.6364 5.09336 31.3616 5.89908 31.0372L5.90136 31.0363C6.40655 30.8426 6.8837 30.6597 7.34334 30.5281C7.7886 30.3919 8.25136 30.3198 8.71742 30.3139C8.93684 30.3138 9.15588 30.3323 9.37209 30.3693C10.3779 30.5402 11.5736 30.8974 12.8397 31.2756L12.841 31.276H12.8419C13.6908 31.5296 14.5686 31.7918 15.4516 32.0175C16.3144 32.2463 17.1914 32.4187 18.0771 32.5335C18.6627 32.6109 19.2524 32.6539 19.8432 32.6622C20.5435 32.6622 20.9937 32.5695 21.5638 32.4525H21.5642C22.2531 32.3042 22.9495 32.193 23.6505 32.1193C24.3691 32.0425 24.9164 31.962 25.3732 31.8665C25.7803 31.7812 26.0645 31.6943 26.3654 31.6025H26.3661C27.0281 31.3935 27.7056 31.236 28.3925 31.1315C28.8601 31.0542 29.2612 30.9817 29.6149 30.9171C30.5859 30.7408 31.2874 30.6134 32.1305 30.6134C32.66 30.6177 33.1885 30.6583 33.7122 30.7349C34.4702 30.8324 35.215 31.0121 35.9331 31.2707H35.9339C36.5522 31.4892 37.1862 31.6612 37.8306 31.7855C37.397 32.4275 36.9273 33.0449 36.4235 33.6348C36.397 33.7073 36.3613 33.7761 36.3174 33.8398L34.9616 35.8171C34.4614 35.7251 33.9562 35.6615 33.4486 35.6268C32.9667 35.594 32.4318 35.5806 31.6029 35.5806C30.0915 35.5806 29.9241 35.6255 29.22 35.814C28.9395 35.8889 28.5559 35.9918 27.9634 36.1234C27.3013 36.2704 26.4661 36.5812 25.582 36.9104L25.5805 36.9109C23.9281 37.526 22.0559 38.223 20.4338 38.223L20.4342 38.2229ZM18.0768 30.7343C17.418 30.6454 16.7711 30.4854 16.1475 30.2574C15.5416 30.0419 14.9552 29.7801 14.3879 29.527H14.3873C13.7112 29.2252 13.0121 28.9128 12.2805 28.6802C11.9086 28.5604 11.5289 28.4653 11.144 28.3956C10.7354 28.3217 10.3213 28.2816 9.90593 28.2757C9.86106 28.275 9.81498 28.2747 9.76912 28.2747C8.00976 28.2747 5.86922 28.7525 3.98063 29.1742H3.97949C3.30632 29.3245 2.67053 29.4663 2.08173 29.5807C1.37939 28.1914 0.840433 26.7271 0.475407 25.2166C0.463431 25.1668 0.451228 25.1156 0.439327 25.0645H5.17862C6.37547 25.0645 7.3491 24.2837 7.3491 23.3241C7.34872 23.0906 7.29318 22.8604 7.1869 22.6518C7.07872 22.4395 6.92841 22.2508 6.74492 22.0971C6.33816 21.7588 5.82216 21.5757 5.2905 21.5811C5.25351 21.5811 5.21591 21.582 5.17862 21.5836C4.74846 21.5836 4.43375 21.6487 4.12631 21.8008V21.6377C4.12631 20.7989 3.72928 20.017 3.00821 19.435C2.29131 18.8563 1.33367 18.5375 0.311531 18.5375C0.207763 18.5375 0.102934 18.5411 0 18.548C0.301574 15.306 1.38694 12.1831 3.16473 9.44207H10.6113C11.9867 9.44207 13.1486 8.26617 13.1486 6.87382C13.1511 6.23526 12.9013 5.62094 12.4524 5.16158C11.9949 4.70175 11.3854 4.41964 10.735 4.36669C10.533 3.84912 10.2096 3.38629 9.79133 3.01621C12.6247 1.29935 15.8349 0.282184 19.1503 0.0508071C22.4657 -0.18057 25.7887 0.380646 28.8382 1.68696C31.8876 2.99328 34.5737 5.00625 36.6691 7.55552C38.7645 10.1048 40.2076 13.1153 40.8762 16.3324C40.9208 16.5474 40.9625 16.7668 41 16.984C40.1085 16.4095 39.0657 16.1067 38.0014 16.113C36.6512 16.113 35.3864 16.5589 34.4389 17.3683C33.4863 18.1825 32.9617 19.2767 32.9617 20.4495V20.6778C32.7535 20.5678 32.5304 20.4878 32.2993 20.44C32.0597 20.3929 31.8158 20.3705 31.5716 20.3734C31.5226 20.3711 31.4731 20.3698 31.4239 20.3698C30.7148 20.3649 30.0294 20.6224 29.5026 21.0916C29.2581 21.3096 29.0597 21.5733 28.919 21.8675C28.778 22.1614 28.7048 22.4826 28.7045 22.808C28.7045 24.1503 29.9907 25.2421 31.5718 25.2421H40.7261C40.3969 26.5956 39.9281 27.9122 39.3271 29.1712C39.0139 29.039 38.5312 28.8641 37.5694 28.6844C35.1792 28.2374 34.4286 28.1415 31.9072 28.1415C30.1473 28.1415 29.9525 28.1864 29.1325 28.375C28.807 28.4499 28.3616 28.5523 27.6696 28.6844C26.8979 28.8315 25.925 29.1425 24.8954 29.4718H24.8943C22.9708 30.0867 20.7906 30.7836 18.9024 30.7836C18.6265 30.7846 18.3506 30.7681 18.0768 30.7343ZM16.7264 15.1518H18.5203V20.1602C18.5203 21.3897 18.824 22.3248 19.4228 22.9394C20.0216 23.554 20.9324 23.8658 22.13 23.8658C23.1412 23.8658 23.9084 23.7328 24.4102 23.4707V20.9719C24.0715 21.1661 23.6886 21.2726 23.2971 21.2815C23.0918 21.2856 22.8877 21.2493 22.6967 21.1747C22.5285 21.1058 22.3808 20.9955 22.2678 20.8544C22.1457 20.6958 22.0581 20.514 22.0105 20.3204C21.9497 20.0759 21.9209 19.8247 21.9247 19.573V15.1519H24.4102V12.6637H21.9248V9.34268L18.5205 10.3037V12.6637H16.7266L16.7264 15.1518ZM30.1882 7.01793C29.7919 7.04335 29.4153 7.19783 29.1172 7.4572C28.9818 7.57607 28.8732 7.72172 28.7984 7.88472C28.7236 8.04771 28.6843 8.22442 28.6831 8.40338C28.6831 9.17274 29.4078 9.8227 30.2654 9.8227H35.1283C35.8306 9.8227 36.4017 9.33758 36.4017 8.74125C36.4016 8.5968 36.3691 8.45417 36.3066 8.32362C36.2439 8.19299 36.1558 8.0759 36.0472 7.97909C35.8132 7.7707 35.5087 7.65635 35.1937 7.65853C35.1719 7.65853 35.1497 7.65905 35.1281 7.66017C34.9139 7.65162 34.7011 7.69821 34.5107 7.79536V7.69388C34.5087 7.43232 34.449 7.17433 34.3357 6.93794C34.2223 6.70154 34.0582 6.49243 33.8546 6.3252C33.412 5.9578 32.8503 5.75991 32.2723 5.76766C31.3511 5.76781 30.5136 6.27 30.1882 7.01793Z" fill="white"/>
</svg>
