<svg width="1221" height="625" viewBox="0 0 1221 625" fill="none" xmlns="http://www.w3.org/2000/svg">
<path d="M540.611 204.949L535.346 211.97L531.838 215.482L524.82 219.343L523.765 222.503C523.765 222.503 520.957 225.313 521.31 227.069C521.662 228.826 521.662 231.985 521.662 231.985C521.662 231.985 516.749 236.549 514.643 237.953C512.536 239.357 509.728 242.517 509.728 242.517C509.728 242.517 507.974 244.625 506.921 245.327C505.869 246.027 504.115 248.135 502.71 250.242C501.305 252.35 499.902 253.752 499.2 254.805C498.498 255.858 496.392 258.317 495.339 262.179C494.287 266.043 491.479 270.606 491.479 270.606L490.776 272.361C491.128 278.331 491.126 279.384 491.83 281.492C492.531 283.598 493.234 282.894 492.531 287.46C491.83 292.023 491.83 293.78 491.128 295.887C490.426 297.992 488.32 301.854 487.62 303.612C486.917 305.367 489.023 308.526 489.023 308.526C489.023 308.526 490.077 313.092 489.374 314.145C488.672 315.2 489.725 317.306 489.725 317.306C489.725 317.306 493.936 319.762 495.341 321.168C496.744 322.572 499.202 324.68 499.552 325.733C499.905 326.787 502.711 331.703 503.062 332.755C503.413 333.808 506.221 337.669 506.923 338.724C507.625 339.778 511.134 343.641 511.134 343.641C511.134 343.641 515.697 347.149 516.751 348.555C517.803 349.959 520.962 350.661 522.013 351.714C523.067 352.767 525.523 352.414 526.926 353.47C528.331 354.523 531.137 352.767 532.542 353.47C533.946 354.172 537.808 352.768 538.86 352.066C539.913 351.364 542.368 348.907 544.124 349.959C545.878 351.01 546.931 349.959 548.336 350.31C549.737 350.661 551.844 348.907 553.247 348.907C554.652 348.907 558.16 347.502 559.213 347.502C560.267 347.502 563.777 345.393 565.181 345.393C566.583 345.393 568.339 343.992 570.093 344.692C571.847 345.393 571.145 343.29 574.304 344.341C577.463 345.393 578.516 344.341 579.568 345.393C580.622 346.447 582.027 345.396 583.08 346.8C584.132 348.202 585.886 349.255 586.237 350.661C586.586 352.066 588.693 353.472 588.693 353.472L590.799 353.821C590.799 353.821 593.609 351.715 594.309 353.121C595.011 354.525 598.17 354.175 598.17 354.175L601.327 357.685L602.381 359.089C602.381 359.089 604.488 364.708 604.135 366.814C603.784 368.92 603.784 373.485 602.732 374.538C601.68 375.592 600.978 380.157 600.978 380.157C600.978 380.157 599.573 381.561 602.732 384.37C605.891 387.181 607.997 389.637 609.05 391.039C610.104 392.445 612.912 396.309 613.26 398.766C613.612 401.223 614.314 402.626 615.719 405.787C617.122 408.947 618.876 409.298 619.227 412.812C619.579 416.321 620.279 416.323 619.929 418.778C619.578 421.237 618.525 421.588 619.578 423.343C620.63 425.099 622.032 428.26 621.684 429.313C621.333 430.366 620.63 434.93 620.63 434.93L619.929 437.038L616.771 443.009L614.665 446.167C613.963 448.624 612.56 451.082 612.911 454.594C613.26 458.105 611.156 458.104 613.963 461.614C616.771 465.127 618.173 468.989 619.929 472.15C621.684 475.309 622.737 478.469 623.086 480.575C623.438 482.683 624.842 483.386 625.543 486.194C626.243 489.004 626.596 490.406 626.596 492.162C626.596 493.917 626.243 498.483 626.948 499.536C627.648 500.589 628.001 503.751 628.351 505.155C628.702 506.561 627.297 506.912 629.404 509.371C631.51 511.827 632.914 513.231 634.317 514.988C635.72 516.745 635.369 516.041 636.424 518.499C637.476 520.956 638.879 522.363 639.232 524.468C639.582 526.574 639.932 531.84 640.986 534.299C642.038 536.757 643.442 539.216 643.442 539.216C643.442 539.216 647.304 541.673 648.707 541.322C650.109 540.971 652.918 537.813 655.025 538.865C657.131 539.918 658.886 538.865 660.64 538.865C662.394 538.865 664.149 536.757 665.905 536.757C667.659 536.757 670.115 533.948 671.521 534.651C672.925 535.352 674.677 533.946 676.433 532.191C678.189 530.438 679.241 529.034 682.399 526.224C685.558 523.415 685.207 523.413 687.312 521.658C689.418 519.902 691.525 516.039 693.98 515.337C696.436 514.635 697.138 512.18 697.839 510.423C698.543 508.667 698.892 507.614 699.946 506.208C701 504.806 700.297 506.564 702.052 501.997C703.808 497.431 705.916 495.677 707.67 494.623C709.424 493.57 710.477 491.464 711.529 491.111C712.582 490.759 714.338 492.164 713.636 489.004C712.936 485.845 713.636 481.28 712.936 480.227C712.233 479.171 711.179 482.683 711.531 477.415C711.885 472.15 715.742 466.882 715.742 466.882C715.742 466.882 721.006 460.211 722.762 459.158C724.518 458.105 724.867 457.052 727.326 455.647C729.78 454.244 735.045 450.733 735.045 448.976C735.045 447.22 737.152 442.655 737.152 441.601C737.152 440.548 737.152 439.495 736.452 433.525C735.749 427.558 737.152 428.96 735.047 423.343C732.942 417.725 732.588 410.702 731.186 408.947C729.782 407.191 730.483 402.625 730.483 401.223C730.483 399.819 732.942 396.307 733.995 394.903C735.047 393.498 739.609 387.879 739.609 387.879C739.609 387.879 746.627 379.804 749.085 375.943C751.542 372.079 753.998 368.569 755.752 367.165C757.508 365.761 761.719 362.598 764.175 359.088C766.632 355.578 771.545 348.907 771.898 347.851C772.247 346.8 775.053 343.288 775.053 343.288C775.053 343.288 778.914 338.722 779.617 336.265C780.317 333.807 783.826 320.113 783.124 320.815C782.425 321.519 778.212 322.219 776.807 322.57C775.406 322.923 778.916 324.325 768.735 323.625C758.56 322.921 753.296 324.678 753.296 324.678C750.136 323.974 747.68 327.486 746.626 322.57C745.573 317.657 744.87 314.847 742.767 311.336C740.66 307.824 739.255 306.42 736.1 301.854C732.942 297.291 733.29 299.396 730.482 295.887C727.675 292.376 726.972 293.427 725.218 288.864C723.464 284.3 722.06 286.056 719.954 279.735C717.847 273.413 716.444 272.711 715.392 269.201C714.338 265.691 712.936 264.635 712.233 261.476C711.531 258.315 703.46 242.165 702.406 241.11C701.352 240.059 699.598 234.438 699.949 235.493C700.301 236.546 705.215 240.057 705.215 240.057C705.215 240.057 708.021 239.003 709.075 239.003C710.128 239.003 714.339 242.867 714.339 244.269C714.339 245.675 721.713 252.347 723.465 257.262C725.219 262.178 727.329 265.689 727.677 267.093C728.024 268.497 731.537 274.116 732.942 276.224C734.344 278.331 738.906 282.543 739.608 284.651C740.309 286.758 746.98 293.78 746.98 298.344C746.98 302.909 750.136 308.877 750.488 310.281C750.84 311.685 757.155 313.443 757.155 313.443L765.58 311.336C765.58 311.336 778.212 303.258 779.617 303.258C781.019 303.258 792.253 297.992 792.253 297.992C792.253 297.992 796.814 293.78 799.971 291.323C803.13 288.864 806.64 284.301 807.343 282.192C808.043 280.085 809.448 279.735 812.255 276.573C815.063 273.413 818.923 270.254 816.468 268.146C814.01 266.04 812.606 266.742 809.097 263.231C805.588 259.721 805.938 260.423 803.481 255.857C801.024 251.294 803.832 246.026 798.566 251.294C793.304 256.56 795.409 257.964 790.143 259.02C784.881 260.072 782.773 263.583 780.317 260.072C777.862 256.56 775.406 258.668 773.999 253.4C772.596 248.133 771.542 247.781 771.193 245.676C770.843 243.569 771.193 243.569 768.385 238.301C765.578 233.034 767.683 224.958 769.437 229.523C771.193 234.087 773.999 234.789 778.563 237.95C783.124 241.109 785.232 243.569 789.442 243.92C793.653 244.269 797.163 243.92 797.865 244.62C798.566 245.324 799.268 244.271 801.024 244.971C802.779 245.675 803.478 243.92 804.181 246.726C804.883 249.536 808.743 249.887 810.497 251.642C812.253 253.397 812.253 252.696 816.817 253.397C821.381 254.1 827.699 254.1 827.699 254.1L834.364 253.748L842.086 254.448C842.086 254.448 847.703 257.609 849.105 257.609C850.509 257.609 850.859 261.473 854.369 263.579C857.879 265.686 858.581 266.036 860.686 268.494C862.795 270.953 862.441 272.006 865.248 274.463C868.057 276.923 872.621 274.113 873.323 273.062C874.021 272.007 877.531 270.252 876.833 273.062C876.13 275.87 880.339 274.815 879.287 281.489C878.234 288.158 877.531 286.403 879.287 290.969C881.041 295.533 888.762 309.577 889.115 313.791C889.467 318.004 891.57 316.6 891.921 320.464C892.274 324.325 894.377 325.729 894.377 328.539C894.377 331.348 896.836 332.049 897.185 334.158C897.539 336.265 901.398 334.507 902.451 334.158C903.505 333.805 908.416 329.241 908.416 329.241C908.416 329.241 910.526 328.54 910.172 325.027C909.82 321.519 910.172 322.219 910.172 316.953C910.172 311.687 908.067 311.687 909.119 306.422C910.172 301.155 912.978 297.993 913.682 295.536C914.383 293.079 917.191 288.866 918.593 288.513C919.997 288.162 927.719 284.301 929.475 281.841C931.229 279.384 934.037 276.575 936.845 273.767C939.652 270.959 944.565 267.447 945.619 268.5C946.672 269.553 946.321 269.202 948.076 269.202C949.831 269.202 952.99 270.608 955.445 270.959C957.903 271.31 962.817 277.278 963.87 280.439C964.922 283.599 964.221 282.896 968.081 287.462C971.942 292.025 975.452 289.215 975.452 294.834C975.452 300.453 975.452 300.101 977.207 302.208C978.961 304.316 981.066 298.346 983.171 299.049C985.276 299.753 985.627 298.347 987.381 303.965C989.135 309.584 990.188 309.584 990.542 315.201C990.891 320.819 990.189 315.552 990.189 320.115C990.189 324.681 989.837 325.032 990.542 329.244C991.242 333.461 993.696 334.865 993.348 335.567C993.348 335.567 995.453 329.598 994.75 325.383C994.052 321.171 994.75 315.203 996.506 313.448C998.26 311.69 1000.02 309.936 1001.42 314.501C1002.82 319.064 1003.53 315.554 1006.68 320.82C1009.84 326.088 1012.65 325.032 1013 327.491C1013.35 329.949 1015.11 330.302 1017.56 332.406C1020.02 334.514 1022.13 332.057 1024.93 329.949C1027.74 327.842 1035.46 320.117 1035.82 316.956C1036.16 313.797 1039.32 314.498 1033.71 306.425C1028.09 298.349 1028.09 295.539 1022.13 290.624C1016.16 285.708 1012.65 285.357 1017.22 279.036C1021.78 272.715 1023.88 268.503 1026.69 270.26C1029.5 272.015 1034.41 271.662 1034.41 278.687C1034.41 285.708 1033.01 293.433 1037.92 285.006C1042.83 276.579 1045.29 271.664 1043.88 273.071C1042.48 274.475 1047.04 270.262 1047.04 270.262C1047.04 270.262 1047.4 267.101 1053.36 265.697C1059.33 264.29 1061.08 263.59 1063.19 262.537C1065.29 261.482 1071.26 254.459 1072.31 251.3C1073.37 248.14 1076.17 242.522 1075.47 240.065C1074.77 237.605 1071.26 225.67 1070.56 226.019C1069.86 226.372 1070.21 226.372 1065.65 221.456C1061.08 216.541 1057.92 213.029 1057.22 210.922C1056.52 208.814 1054.77 208.463 1056.87 205.655C1058.98 202.847 1060.03 203.198 1060.38 200.74C1060.73 198.283 1063.54 196.176 1058.27 197.932C1053.01 199.687 1056.87 198.636 1052.31 198.285C1047.75 197.932 1035.82 200.742 1041.78 193.369C1047.75 185.995 1049.5 181.432 1050.55 181.432C1051.61 181.432 1056.87 175.462 1057.22 181.08C1057.57 186.697 1059.68 185.292 1060.03 188.803C1060.38 192.315 1067.4 184.942 1067.4 184.942C1067.4 184.942 1069.86 185.644 1071.61 187.399C1073.37 189.154 1073.37 194.773 1073.37 194.773C1073.37 194.773 1071.96 193.017 1075.82 195.826C1079.69 198.637 1083.89 197.23 1083.89 203.2C1083.89 209.168 1083.89 209.521 1086.35 210.925C1088.81 212.329 1091.26 211.629 1093.37 209.872C1095.48 208.117 1098.99 201.796 1098.99 201.796C1098.99 201.796 1099.34 199.338 1093.72 195.826C1088.11 192.316 1084.6 189.859 1082.49 188.103C1080.39 186.348 1081.09 181.081 1083.19 178.972C1085.3 176.865 1086.35 175.812 1085.65 173.004C1084.95 170.193 1086.7 168.087 1091.97 168.438C1097.23 168.79 1098.28 168.088 1098.28 168.088C1098.28 168.088 1099.34 168.789 1099.34 166.683C1099.34 164.577 1106 154.744 1104.25 154.744C1102.49 154.744 1104.6 152.287 1103.55 148.425C1102.49 144.561 1107.06 138.594 1103.2 135.784C1099.34 132.975 1098.28 131.569 1095.83 127.357C1093.37 123.142 1093.72 122.442 1084.6 121.387C1075.47 120.334 1071.26 123.495 1069.15 120.687C1067.05 117.878 1066 124.899 1064.59 116.472C1063.19 108.045 1066.7 102.426 1066.7 102.426C1066.7 102.426 1072.31 98.9161 1073.72 96.4576C1075.12 93.9991 1080.73 92.9461 1085.3 94.7026C1089.86 96.4576 1096.53 96.1066 1102.15 97.1627C1107.76 98.2141 1107.41 101.726 1110.22 97.1627C1113.03 92.5951 1110.22 90.4907 1112.32 88.0322C1114.43 85.5737 1116.89 81.7112 1118.64 84.1681C1120.39 86.6282 1123.91 89.0836 1126.72 85.9231C1129.52 82.7642 1130.58 82.4132 1130.58 82.4132L1131.98 83.8187C1131.98 83.8187 1135.14 82.0606 1135.14 85.2196C1135.14 88.3816 1138.3 91.8931 1136.54 94.3501C1134.78 96.8101 1132.33 96.4576 1132.33 102.426C1132.33 108.398 1132.33 107.343 1136.19 112.26C1140.05 117.174 1142.51 112.96 1143.21 118.229C1143.91 123.495 1144.61 122.444 1148.47 125.953C1152.33 129.463 1151.63 129.463 1154.44 131.571C1157.25 133.678 1158.65 135.786 1158.65 132.274C1158.65 128.763 1159 127.008 1158.65 123.848C1158.3 120.689 1161.46 118.229 1159.35 112.962C1157.25 107.696 1159 108.047 1154.79 104.184C1150.58 100.323 1147.77 104.888 1146.37 99.2686C1144.96 93.6512 1153.03 91.1927 1155.14 90.4907C1157.25 89.7903 1160.4 85.5752 1161.1 88.3847C1161.81 91.1927 1155.84 101.376 1166.02 90.4907C1176.2 79.6068 1171.64 84.1713 1171.64 84.1713C1171.64 84.1713 1176.9 83.4693 1177.95 84.1713C1179 84.8748 1181.82 81.0108 1180.76 81.3633C1179.71 81.7159 1169.53 75.7443 1169.53 75.7443L1162.16 71.5324C1162.16 71.5324 1164.62 69.7759 1166.37 70.1284C1168.13 70.4794 1168.48 66.6169 1170.24 66.2644C1171.99 65.9134 1183.92 68.7244 1186.38 70.1284C1188.84 71.5324 1197.61 71.8834 1196.55 71.1814C1195.5 70.4779 1189.89 66.2659 1189.54 64.8604C1189.19 63.4564 1176.9 60.6469 1173.04 60.9979C1169.18 61.3474 1165.67 62.4003 1162.51 61.3474C1159.35 60.2944 1154.79 57.4849 1152.34 57.4849C1149.88 57.4849 1119 51.5164 1117.59 51.8674C1116.19 52.2184 1114.08 58.8888 1113.03 57.8359C1111.98 56.7829 1110.22 56.7813 1105.31 55.3773C1100.4 53.9734 1093.73 52.9188 1084.95 52.2184C1076.18 51.5164 1070.21 52.9204 1067.76 50.1109C1065.3 47.3029 1060.04 48.3559 1054.07 48.0034C1048.1 47.6539 1041.09 48.0034 1037.93 48.0034C1034.77 48.0034 1027.4 47.6539 1025.64 47.3014C1023.89 46.9488 1021.78 44.4919 1019.68 44.1425C1017.57 43.7899 1017.92 43.0895 1013.71 42.3875C1009.5 41.6839 1009.85 37.121 1008.45 40.982C1007.04 44.846 1007.74 43.7915 1005.64 45.1954C1003.53 46.601 1001.43 49.4089 1000.02 49.4089C998.622 49.4089 993.007 49.7599 991.951 49.0579C990.897 48.3559 989.143 47.6539 985.633 47.6539C982.123 47.6539 982.123 48.0034 977.561 47.3014C972.999 46.5994 969.489 46.9488 965.278 44.8444C961.066 42.7369 961.066 41.3329 957.557 41.6839C954.05 42.0365 954.05 40.982 949.134 40.982C944.222 40.982 938.257 43.7915 935.096 44.1425C931.94 44.4934 924.921 43.7899 922.463 42.7369C920.004 41.6839 919.304 39.227 910.178 40.2784C901.054 41.3329 895.79 41.3329 897.544 38.5234C899.299 35.7155 901.404 32.906 902.457 32.555C903.511 32.204 905.965 30.449 904.21 29.7471C902.457 29.0435 900.701 27.9921 896.491 27.6395C892.278 27.2885 892.628 29.0435 886.313 28.3415C879.996 27.6395 889.823 25.8846 876.839 26.2356C863.854 26.5881 860.695 27.6395 859.292 27.6395C857.887 27.6395 856.131 24.8316 852.623 29.0435C849.113 33.257 844.197 35.7139 837.18 36.0649C830.162 36.4175 829.81 35.3629 823.144 37.8199C816.475 40.2768 812.262 37.1179 813.667 42.7354C815.069 48.3528 816.826 50.4603 816.826 51.5133C816.826 52.5663 813.667 59.5893 809.808 55.3758C805.945 51.1623 798.927 34.6594 802.086 45.8959C805.243 57.1308 812.261 60.9948 805.595 62.7498C798.928 64.5047 799.627 62.0478 798.574 61.3442C797.523 60.6422 798.574 55.7268 798.223 52.9173C797.871 50.1093 797.171 48.3528 795.768 46.9488C794.366 45.5433 794.714 43.4373 791.907 42.7354C789.099 42.0334 791.556 40.6278 786.994 40.6278C782.432 40.6278 778.573 37.8183 779.625 44.1393C780.676 50.4588 781.728 46.2468 784.535 52.2153C787.342 58.1837 792.607 53.9703 788.748 58.1837C784.887 62.3972 774.71 60.9932 772.253 59.2383C769.796 57.4817 770.499 59.9403 765.934 56.7798C761.371 53.6193 762.778 51.1608 757.514 53.6193C752.25 56.0778 750.494 60.6422 748.388 58.8857C746.281 57.1292 741.37 61.3427 739.614 59.2383C737.858 57.1308 730.839 57.1308 729.437 59.2383C728.032 61.3442 723.821 60.9932 717.855 63.8027C711.89 66.6107 713.642 64.1522 706.273 70.1222C698.901 76.0906 694.69 81.0061 692.236 77.1436C689.778 73.2827 676.441 66.6107 681.706 65.5561C686.972 64.5032 689.427 62.3972 692.236 64.8542C695.044 67.3111 699.608 66.6107 700.306 64.8542C701.008 63.0976 704.168 61.3427 699.955 59.2367C695.744 57.1292 695.393 58.5332 688.726 56.0762C682.057 53.6177 688.726 54.3213 679.6 52.9157C670.475 51.5117 666.613 50.8098 664.157 50.1078C661.703 49.4058 658.192 50.1078 654.683 49.7568C651.172 49.4058 648.718 48.7038 645.557 49.0548C642.4 49.4058 640.646 48.7038 636.433 51.8643C632.22 55.0248 629.061 56.4288 626.254 58.8857C623.448 61.3427 616.079 66.2597 613.972 68.0162C611.866 69.7712 604.495 75.3886 603.794 77.4962C603.092 79.6037 604.495 81.3586 601.687 82.7626C598.879 84.1666 596.073 84.1666 593.966 84.5176C591.86 84.8686 593.966 81.3571 591.86 84.8686C589.755 88.3801 590.456 101.02 592.21 99.264C593.964 97.5074 592.912 91.8915 600.633 97.1596C608.354 102.424 613.269 101.722 612.917 106.638C612.566 111.553 618.181 111.202 618.882 112.257C619.584 113.308 623.094 110.851 623.094 110.851C623.094 110.851 630.815 105.936 630.815 103.479C630.815 101.02 635.728 95.403 635.728 95.403C635.728 95.403 632.217 93.6481 632.217 90.1366C632.217 86.6266 633.272 85.5706 633.972 82.0591C634.674 78.5491 630.112 82.0606 640.641 75.3871C651.167 68.7166 651.871 73.2827 651.871 73.2827C651.871 73.2827 653.272 74.6866 651.518 76.7926C649.764 78.9001 646.605 84.5191 645.904 85.2196C645.2 85.9231 649.062 91.5406 650.815 91.5406C652.571 91.5406 656.081 90.135 658.187 90.486C660.294 90.8386 663.802 89.4346 664.854 90.1366C665.908 90.8386 668.364 92.9445 666.608 94.701C664.854 96.456 660.992 98.562 658.187 97.8615C655.377 97.1611 651.166 92.2425 653.623 99.2655C656.081 106.288 653.272 108.043 651.166 107.692C649.062 107.341 644.499 103.832 645.2 109.098C645.904 114.363 640.64 117.874 639.586 117.874C638.532 117.874 636.428 117.523 636.428 117.523C636.428 117.523 633.268 117.171 631.515 117.171C629.759 117.171 626.25 118.926 625.197 120.331C624.143 121.735 622.74 120.684 620.986 120.684C619.232 120.684 620.986 118.576 617.476 117.874C613.968 117.172 611.861 116.47 609.756 117.874C607.65 119.278 604.492 119.98 603.087 118.927C601.684 117.874 603.791 115.414 600.981 116.821C598.174 118.225 596.068 122.088 595.015 122.44C593.963 122.79 598.174 122.44 593.963 122.79C589.752 123.142 587.997 124.197 585.891 124.897C583.784 125.601 586.593 129.813 582.732 131.217C578.871 132.621 581.681 129.462 577.819 132.621C573.958 135.783 573.255 138.591 571.853 138.942C570.448 139.294 570.801 139.995 567.642 140.346C564.483 140.697 564.835 141.048 563.078 141.399C561.324 141.75 563.43 142.453 559.57 141.75C555.708 141.048 552.901 142.453 553.603 143.857C554.304 145.261 567.289 149.124 557.463 148.773C547.637 148.422 550.796 150.177 552.901 151.581C555.007 152.985 556.058 154.389 557.112 154.741C558.166 155.092 559.919 159.307 559.919 159.307C559.919 159.307 562.727 158.955 560.973 161.413C559.219 163.872 561.675 164.574 559.919 167.734C558.165 170.895 558.165 168.787 556.762 169.489C555.358 170.19 553.252 172.65 549.39 170.542C545.529 168.435 542.724 167.382 538.16 167.032C533.598 166.68 536.755 165.979 533.598 168.435C530.439 170.895 529.737 173.703 530.09 176.862C530.44 180.02 530.791 184.235 529.737 186.343C528.685 188.449 528.685 190.556 529.385 193.717C530.088 196.876 532.195 198.283 532.195 198.283C532.195 198.283 537.108 198.983 538.16 199.336C539.213 199.687 541.319 198.634 544.126 200.387C546.934 202.144 549.742 202.847 551.496 200.74C553.25 198.634 560.27 196.175 562.378 194.07C564.483 191.962 565.886 191.262 564.834 189.154C563.781 187.047 566.94 181.78 568.694 180.727C570.448 179.674 574.309 178.62 574.309 178.62L578.52 172.3C578.52 172.3 582.03 168.436 583.784 168.789C585.538 169.14 595.365 172.653 594.665 168.088C593.963 163.522 595.366 162.118 596.419 163.873C597.471 165.628 600.279 164.926 600.279 164.926C600.279 164.926 601.683 164.226 602.735 165.279C603.788 166.33 605.191 170.898 607.297 171.949C609.404 173.004 611.158 174.057 612.563 174.757C613.966 175.461 615.371 174.757 618.179 177.216C620.986 179.674 623.794 181.08 624.143 182.131C624.497 183.184 626.953 185.643 626.953 185.643C626.953 185.643 629.409 186.345 628.707 187.75C628.005 189.154 624.497 193.369 622.741 194.07C620.986 194.772 616.425 193.366 618.179 194.772C619.932 196.175 622.391 197.932 623.443 196.877C624.497 195.825 631.163 188.802 631.163 188.802C631.163 188.802 630.812 189.153 631.163 187.045C631.515 184.941 631.163 182.482 632.918 183.535C634.673 184.59 635.727 185.994 636.428 184.59C637.13 183.184 637.831 183.888 636.076 182.835C634.32 181.78 630.11 175.812 628.004 175.461C625.897 175.108 620.632 171.597 620.632 171.597C620.632 171.597 619.581 170.544 617.124 167.736C614.666 164.926 613.966 165.628 613.261 163.17C612.561 160.713 610.453 157.552 614.315 158.254C618.178 158.956 620.632 161.413 624.142 163.521C627.651 165.628 626.951 166.329 630.109 168.436C633.266 170.544 633.62 172.651 636.074 172.3C638.53 171.949 641.34 173.704 641.34 176.865C641.34 180.025 642.04 183.535 642.741 184.239C643.445 184.942 645.548 186.346 646.251 187.75C646.953 189.154 648.358 192.666 649.409 194.07C650.463 195.474 651.515 196.528 652.568 198.285C653.62 200.04 653.971 197.932 655.023 198.636C656.077 199.338 657.481 198.985 657.481 197.581C657.481 196.177 657.83 193.719 657.83 193.719C657.83 193.719 662.746 192.315 661.343 191.611C659.938 190.909 655.725 186.696 656.077 185.292C656.428 183.888 656.077 181.08 657.83 181.431C659.586 181.78 661.341 184.941 665.202 182.131C669.063 179.322 673.625 177.918 672.22 182.131C670.818 186.345 672.574 187.045 672.22 191.611C671.871 196.177 673.626 194.772 676.084 197.23C678.54 199.689 680.294 200.041 682.048 200.742C683.803 201.445 686.61 201.094 689.42 201.445C692.228 201.796 693.982 200.391 696.439 201.094C698.893 201.796 704.51 200.742 705.564 201.445C706.618 202.147 710.829 200.041 711.179 202.498C711.529 204.957 712.934 202.147 711.882 207.764C710.829 213.382 709.424 217.244 709.424 217.244C705.564 224.618 704.16 226.375 702.405 226.726C700.652 227.077 699.598 228.13 696.441 227.779C693.282 227.426 689.421 227.779 684.859 226.726C680.297 225.671 671.872 227.779 668.364 225.671C664.854 223.565 659.941 225.32 657.833 222.863C655.728 220.405 652.22 220.756 650.815 219.352C649.412 217.948 648.71 214.087 648.71 219.705C648.71 225.324 645.551 225.673 644.85 228.482C644.146 231.29 645.9 229.886 642.04 229.535C638.179 229.183 637.127 231.29 631.512 227.078C625.896 222.865 623.089 222.865 620.282 221.108C617.473 219.352 614.666 224.267 611.86 218.652C609.051 213.033 605.191 217.597 604.84 213.033C604.489 208.466 604.84 208.821 605.191 206.011C605.545 203.202 609.402 200.745 607.648 199.692C605.892 198.639 607.296 196.882 604.84 197.937C602.383 198.99 598.874 199.341 596.066 200.394C593.258 201.448 602.383 200.394 588.696 201.448C575.009 202.501 571.147 203.905 571.147 203.905C571.147 203.905 570.094 203.203 568.339 204.607C566.585 206.011 564.127 208.119 561.672 207.066C559.216 206.011 557.811 206.362 555.706 206.715C553.6 207.066 552.198 204.96 549.74 206.715C547.283 208.468 544.477 209.172 543.423 208.468C542.331 207.75 540.569 204.943 540.569 204.943L540.611 204.949Z" fill="#EBEBEB"/>
<path d="M775.398 435.98C774.345 439.844 770.485 445.46 770.485 445.46L763.464 448.972C763.464 448.972 761.011 451.079 759.605 451.43C758.201 451.779 754.692 453.538 754.692 453.538C754.692 453.538 751.534 452.834 752.585 455.993C753.638 459.153 753.99 463.017 753.637 464.069C753.288 465.123 753.288 467.231 753.288 470.04C753.288 472.848 752.236 476.358 750.48 477.06C748.726 477.764 746.97 478.466 747.321 480.924C747.674 483.383 747.674 490.755 747.674 490.755L752.237 497.778C752.237 497.778 753.641 496.725 756.449 496.725C759.254 496.725 762.063 494.27 762.063 494.27C762.063 494.27 765.224 494.969 764.87 491.109C764.519 487.245 766.276 482.682 765.923 481.628C765.573 480.575 769.083 476.009 769.083 474.957C769.083 473.903 772.593 468.991 772.593 467.233C772.593 465.478 775.049 462.668 775.399 460.564C775.75 458.455 776.101 453.541 776.803 452.137C777.506 450.733 777.857 449.327 777.857 447.923C777.857 446.519 777.857 443.71 777.857 443.71L775.362 435.972L775.398 435.98Z" fill="#EBEBEB"/>
<path d="M1050.19 483.388C1049.14 484.79 1048.44 499.891 1047.74 501.646C1047.04 503.4 1045.63 512.531 1046.34 514.635C1047.04 516.744 1048.09 524.468 1047.39 526.926C1046.69 529.383 1047.74 537.108 1045.98 536.757C1044.23 536.405 1043.53 537.11 1043.53 538.161C1043.53 539.216 1045.98 541.32 1045.98 541.32C1045.98 541.32 1050.2 541.322 1051.95 540.969C1053.71 540.618 1057.22 538.862 1060.02 538.862C1062.83 538.862 1064.59 536.754 1067.04 536.754C1069.5 536.754 1074.76 535.001 1076.17 535.701C1077.57 536.402 1079.68 531.488 1082.13 532.542C1084.59 533.595 1089.86 530.084 1092.31 530.084C1094.77 530.084 1095.82 526.22 1098.63 526.925C1101.44 527.627 1106.7 525.521 1109.16 526.571C1111.61 527.627 1115.48 523.061 1117.23 526.571C1118.99 530.084 1124.25 531.488 1124.25 533.243C1124.25 534.998 1123.9 538.862 1123.9 538.862L1128.11 538.509C1128.11 538.509 1134.77 534.296 1135.83 534.296C1136.88 534.296 1139.34 530.786 1139.34 532.542C1139.34 534.296 1137.23 538.161 1136.53 539.915C1135.83 541.671 1137.23 543.779 1137.23 543.779C1137.23 543.779 1140.74 545.534 1139.34 548.693C1137.93 551.853 1139.69 551.153 1139.34 553.608C1138.99 556.067 1139.34 555.012 1140.74 556.416C1142.15 557.822 1144.61 560.283 1146.71 559.929C1148.82 559.576 1149.51 557.472 1151.27 558.525C1153.02 559.578 1156.53 558.876 1157.59 560.282C1158.64 561.684 1150.92 565.195 1164.26 559.229C1177.59 553.257 1178.99 551.853 1180.75 549.746C1182.51 547.64 1184.61 545.534 1186.01 544.128C1187.42 542.724 1186.37 543.075 1190.58 539.915C1194.79 536.756 1194.79 538.16 1198.65 532.19C1202.51 526.223 1205.32 524.115 1206.02 523.061C1206.72 522.006 1208.13 521.657 1208.48 517.44C1208.83 513.228 1211.63 509.366 1211.63 507.962C1211.63 506.559 1212.69 504.453 1212.34 501.993C1211.98 499.535 1213.74 496.027 1211.63 492.515C1209.53 489.002 1212.69 487.601 1209.53 486.192C1206.37 484.788 1204.26 485.492 1203.56 483.034C1202.86 480.575 1200.05 480.926 1199 474.256C1197.95 467.585 1193.73 466.88 1193.73 466.88C1193.73 466.88 1189.52 465.125 1190.58 464.425C1191.63 463.721 1191.98 458.804 1191.63 457.4C1191.28 455.996 1191.28 452.836 1190.23 450.731C1189.18 448.622 1188.47 445.816 1187.42 443.356C1186.37 440.899 1184.61 440.195 1183.91 437.387C1183.21 434.579 1182.15 433.523 1181.8 432.823C1181.45 432.121 1180.75 428.611 1180.05 432.47C1179.35 436.333 1177.94 443.705 1177.94 443.705C1177.94 443.705 1175.13 449.677 1174.08 451.432C1173.03 453.185 1171.98 457.751 1170.22 457.399C1168.47 457.048 1167.41 459.157 1166.01 458.803C1164.61 458.45 1162.5 459.155 1161.45 458.102C1160.4 457.048 1157.59 454.24 1156.18 453.887C1154.78 453.538 1153.73 450.73 1152.67 450.73C1151.62 450.73 1149.86 448.27 1150.22 446.866C1150.57 445.462 1150.92 442.303 1151.27 440.897C1151.62 439.493 1153.73 436.331 1153.73 436.331C1153.73 436.331 1153.73 434.225 1151.97 434.225C1150.22 434.225 1149.86 434.225 1146 433.873C1142.14 433.52 1141.09 433.171 1139.69 433.171C1138.29 433.171 1141.09 432.469 1137.23 433.522C1133.37 434.578 1131.62 437.386 1129.16 439.844C1126.71 442.301 1128.81 441.598 1126.71 442.301C1124.6 443.005 1124.95 440.545 1123.54 444.409C1122.14 448.271 1124.25 449.323 1123.19 450.026C1122.14 450.73 1114.77 447.569 1114.77 447.569C1114.77 447.569 1116.53 447.217 1115.12 445.462C1113.72 443.705 1112.31 441.25 1110.21 442.303C1108.1 443.356 1106.34 444.059 1104.94 445.814C1103.54 447.569 1103.54 448.973 1102.49 450.377C1101.43 451.781 1098.63 451.781 1098.28 453.187C1097.93 454.592 1097.93 458.102 1096.87 458.453C1095.82 458.806 1095.47 457.052 1094.42 456.7C1093.37 456.349 1093.72 453.539 1093.02 455.296C1092.31 457.051 1091.61 456.698 1090.56 459.508C1089.5 462.317 1089.15 464.776 1088.1 465.127C1087.05 465.479 1088.1 465.829 1084.94 467.585C1081.79 469.34 1081.08 469.34 1076.52 471.448C1071.96 473.555 1073.01 473.555 1069.85 473.905C1066.7 474.257 1065.99 475.31 1063.89 475.661C1061.78 476.012 1060.38 476.362 1058.27 478.469C1056.17 480.577 1054.41 481.277 1053.01 481.63C1051.61 481.982 1050.26 483.361 1050.26 483.361L1050.19 483.388Z" fill="#EBEBEB"/>
<path d="M1070.9 344.691C1069.5 346.8 1064.94 353.118 1063.18 353.47C1061.43 353.82 1059.67 355.578 1058.27 355.225C1056.86 354.873 1053.71 355.225 1052.65 359.79C1051.6 364.354 1049.85 366.813 1048.79 366.46C1047.74 366.109 1050.54 373.131 1044.58 370.324C1038.62 367.515 1040.72 372.783 1040.02 374.188C1039.32 375.591 1041.07 379.455 1041.42 380.859C1041.77 382.263 1042.82 384.721 1044.23 386.826C1045.63 388.933 1046.68 391.39 1049.14 390.691C1051.6 389.986 1059.32 390.691 1059.32 390.691C1059.32 390.691 1062.13 391.744 1063.88 391.744C1065.64 391.744 1065.99 391.042 1067.04 391.042C1068.09 391.042 1070.2 387.529 1069.85 387.18C1069.5 386.826 1068.45 385.774 1070.55 383.667C1072.65 381.559 1075.11 380.859 1075.46 378.4C1075.81 375.943 1074.76 375.943 1075.81 374.536C1076.87 373.132 1079.32 373.486 1078.62 372.079C1077.92 370.675 1079.32 371.026 1077.92 368.215C1076.52 365.407 1074.76 364.353 1076.16 360.841C1077.57 357.331 1078.97 356.628 1078.62 354.522C1078.27 352.413 1080.38 351.712 1077.92 349.254C1075.46 346.798 1074.41 346.095 1072.66 345.39L1070.92 344.672L1070.9 344.691Z" fill="#EBEBEB"/>
<path d="M1139.69 379.806C1141.1 379.455 1146.01 375.943 1146.36 382.264C1146.71 388.584 1147.06 386.827 1149.17 390.339C1151.28 393.85 1152.68 394.906 1155.13 393.15C1157.59 391.392 1160.4 391.392 1161.1 388.234C1161.8 385.074 1161.8 385.074 1163.91 385.074C1166.02 385.074 1166.72 384.723 1167.77 386.13C1168.82 387.531 1169.52 386.127 1174.09 388.585C1178.65 391.044 1182.51 390.339 1185.32 392.799C1188.13 395.256 1189.53 394.908 1193.39 396.31C1197.25 397.714 1195.5 395.608 1199.01 399.471C1202.52 403.332 1201.12 404.385 1202.87 406.141C1204.62 407.896 1206.03 404.736 1205.32 408.949C1204.62 413.162 1199.71 408.949 1207.08 414.916C1214.45 420.887 1215.5 421.942 1217.96 423.695C1220.42 425.452 1222.17 427.559 1220.07 427.559C1217.96 427.559 1211.29 427.559 1210.59 426.505C1209.89 425.452 1206.73 424.748 1204.62 422.291C1202.52 419.836 1197.96 418.078 1196.91 415.972C1195.85 413.863 1194.45 413.162 1192.69 413.162C1190.94 413.162 1189.18 415.268 1186.73 417.727C1184.27 420.184 1185.33 416.325 1182.16 417.376C1179 418.43 1175.5 417.023 1173.74 415.619C1171.98 414.215 1172.34 412.109 1169.53 413.162C1166.72 414.215 1164.97 413.513 1166.02 411.407C1167.07 409.298 1166.37 406.49 1166.37 406.49C1166.37 406.49 1167.43 402.979 1164.97 402.279C1162.51 401.578 1162.51 399.12 1160.06 398.415C1157.6 397.714 1153.74 395.958 1153.74 395.958C1153.74 395.958 1153.39 395.958 1152.34 395.607C1151.28 395.254 1151.28 395.254 1148.47 394.554C1145.67 393.85 1143.56 394.55 1142.16 392.797C1140.75 391.042 1141.46 388.584 1141.46 388.584C1141.46 388.584 1147.07 389.286 1141.46 385.072L1135.84 380.86C1135.84 380.86 1136.54 380.508 1136.19 379.806C1135.83 379.088 1139.7 379.79 1139.7 379.79L1139.69 379.806Z" fill="#EBEBEB"/>
<path d="M981.76 350.65C981.76 350.65 983.514 352.408 986.322 352.055C989.129 351.703 991.232 357.673 992.991 359.779C994.744 361.886 995.799 362.939 999.658 365.398C1003.52 367.855 1003.17 363.29 1008.43 370.664C1013.7 378.037 1011.24 373.474 1013.7 378.037C1016.15 382.606 1017.56 385.061 1018.96 386.117C1020.36 387.17 1021.42 389.977 1021.77 391.031C1022.12 392.084 1024.57 395.243 1024.57 396.298C1024.57 397.351 1025.28 400.16 1023.17 402.617C1021.07 405.076 1019.31 405.427 1019.31 405.427C1019.31 405.427 1015.1 403.319 1013.7 401.213C1012.29 399.107 1010.54 397.351 1008.08 393.139C1005.62 388.924 1002.82 384.359 1001.41 382.253C1000.01 380.144 997.903 378.037 996.85 375.932C995.798 373.823 992.99 367.505 991.586 366.802C990.183 366.098 989.831 363.994 987.373 361.535C984.919 359.077 985.268 356.971 984.216 355.567C983.163 354.163 980.708 350.999 980.708 350.999L981.737 350.656L981.76 350.65Z" fill="#EBEBEB"/>
<path d="M299.167 624.534C296.709 623.13 291.445 620.671 289.691 619.267C287.937 617.863 282.673 610.135 282.673 610.135L278.811 602.761C278.811 602.761 274.25 597.144 275.303 595.038C276.355 592.93 278.462 591.526 278.462 590.473C278.462 589.42 280.567 586.609 278.811 585.558C277.057 584.503 277.057 584.154 276.003 580.993C274.951 577.834 274.951 575.022 273.547 574.321C272.142 573.621 271.09 569.055 269.687 568.704C268.283 568.351 266.878 565.894 266.878 565.894L264.772 537.453C264.772 537.453 264.069 524.463 263.369 521.652C262.665 518.844 264.421 512.876 262.665 507.608C260.911 502.341 263.018 496.022 261.964 493.914C260.911 491.807 262.665 485.84 261.613 480.222C260.561 474.605 265.824 467.582 261.613 465.476C257.402 463.367 260.561 460.208 257.051 460.208C253.542 460.208 251.085 458.451 247.926 455.996C244.767 453.538 238.8 448.972 237.046 447.215C235.292 445.462 229.676 440.896 227.921 439.492C226.167 438.088 224.412 432.118 223.008 430.361C221.605 428.608 220.903 423.341 218.797 420.181C216.69 417.022 213.884 411.755 213.181 410.701C212.479 409.648 204.758 400.519 204.758 400.519L205.459 394.901C205.459 394.901 210.723 391.741 210.022 390.688C209.32 389.633 210.374 388.579 207.915 386.474C205.458 384.365 205.809 380.503 207.915 378.75C210.022 376.991 213.179 371.374 213.179 371.374L218.443 362.598C218.443 362.598 222.656 358.03 222.656 354.871C222.656 351.712 228.622 349.606 225.112 346.797C221.602 343.986 223.358 341.529 222.304 339.421C221.25 337.315 221.953 335.911 225.112 333.804C228.271 331.696 233.885 323.973 233.885 323.973C233.885 323.973 238.097 322.918 239.149 322.918C240.202 322.918 241.958 311.68 245.117 319.054C248.275 326.428 249.328 322.566 248.275 327.832C247.221 333.099 249.679 332.047 251.082 330.643C252.485 329.236 250.379 331.696 253.187 325.374C255.994 319.054 254.943 316.948 256.697 318.705C258.451 320.461 259.153 320.812 262.312 321.865C265.469 322.918 266.523 322.566 267.574 324.673C268.626 326.781 268.277 323.971 274.243 325.026C280.208 326.08 288.631 322.918 287.579 326.428C286.526 329.94 284.42 326.077 289.333 329.94C294.246 333.804 294.949 334.504 297.756 335.208C300.562 335.91 303.02 335.559 307.233 339.772C311.444 343.984 312.496 344.337 313.549 346.441C314.601 348.55 316.356 347.145 318.111 349.25C319.865 351.36 322.323 351.36 324.778 351.36C327.234 351.36 324.778 349.25 328.639 352.062C332.501 354.87 335.308 355.219 337.062 360.838C338.816 366.46 342.326 366.106 339.518 371.725C336.711 377.344 331.096 379.801 333.552 379.45C336.008 379.097 340.572 376.99 341.975 377.342C343.378 377.692 344.08 376.289 346.186 377.342C348.293 378.395 348.644 375.938 348.293 378.395C347.941 380.854 347.941 378.395 347.941 380.854C347.941 383.311 347.239 378.395 351.45 379.45C355.662 380.503 353.204 377.341 358.118 381.907C363.032 386.473 363.032 385.069 364.785 387.526C366.54 389.981 368.295 386.123 369.349 387.175C370.403 388.226 373.56 387.524 376.719 388.228C379.878 388.928 377.771 386.122 382.686 389.281C387.598 392.44 392.512 391.387 393.565 394.196C394.617 397.004 397.427 395.951 398.829 397.708C400.23 399.464 400.934 397.004 402.338 399.464C403.742 401.92 407.955 401.218 407.252 403.675C406.548 406.135 408.302 404.729 407.601 408.239C406.901 411.754 404.442 417.371 402.338 418.774C400.232 420.179 400.234 421.934 398.829 423.689C397.425 425.447 397.776 421.934 396.021 426.85C394.266 431.767 394.617 432.469 393.214 437.032C391.811 441.594 392.863 437.031 391.811 441.596C390.758 446.16 391.46 448.97 390.407 454.238C389.355 459.503 389.706 459.504 389.004 463.367C388.302 467.229 390.758 461.614 387.599 469.686C384.442 477.764 384.091 477.41 383.039 480.923C381.984 484.436 383.389 481.625 379.529 483.732C375.668 485.841 377.775 485.136 373.211 486.542C368.65 487.946 363.034 489.353 361.28 489.702C359.526 490.052 352.506 492.159 354.612 496.371C356.719 500.586 356.719 501.288 354.612 506.556C352.506 511.821 349.349 513.579 349.349 516.035C349.349 518.492 347.944 520.948 347.594 522.705C347.242 524.462 350.752 520.949 346.542 526.217C342.33 531.483 341.98 530.079 340.575 533.239C339.172 536.398 340.575 533.94 339.172 536.398C337.768 538.855 334.258 539.908 334.258 539.908C334.258 539.908 334.608 541.665 333.204 540.963C331.8 540.262 332.152 541.314 326.886 539.908C321.623 538.504 320.921 534.996 320.219 537.451C319.518 539.908 320.57 541.315 323.729 543.772C326.886 546.231 332.152 546.931 330.747 549.391C329.344 551.85 329.344 551.85 328.291 553.254C327.237 554.659 329.695 553.605 327.237 554.659C324.782 555.712 323.377 560.278 322.324 560.278C321.272 560.278 320.569 562.033 319.165 561.331C317.762 560.628 314.254 558.171 313.55 559.575C312.849 560.977 311.444 557.818 311.795 562.734C312.147 567.649 312.849 570.459 311.093 571.513C309.339 572.566 305.126 571.513 305.126 571.513L304.424 569.757L301.969 570.459C301.969 570.459 300.916 574.672 302.67 575.374C304.424 576.076 304.074 576.777 305.828 578.884C307.583 580.992 306.531 584.854 306.531 584.854C306.531 584.854 306.531 585.909 304.777 587.664C303.023 589.419 302.319 590.824 301.969 591.877C301.616 592.93 299.511 597.496 302.67 597.144C305.828 596.791 308.287 595.036 308.287 600.655C308.287 606.273 309.69 604.87 307.936 608.731C306.18 612.594 304.777 612.945 304.426 616.454C304.077 619.966 304.778 620.317 305.48 622.424C306.182 624.532 307.937 623.477 306.182 624.532C304.435 625.53 299.181 624.485 299.181 624.485L299.167 624.534Z" fill="#EBEBEB"/>
<path d="M208.623 338.716L206.167 335.206C206.167 335.206 205.115 333.097 203.359 332.748C201.603 332.398 197.743 327.832 197.743 327.832C197.743 327.832 195.989 326.428 195.989 323.971C195.989 321.513 194.584 317.652 195.636 313.438C196.69 309.226 197.041 303.958 196.69 302.553C196.338 301.149 198.445 300.798 195.989 299.392C193.531 297.988 188.618 297.637 185.459 297.637C182.302 297.637 178.44 298.692 177.738 299.041C177.036 299.392 181.599 288.509 182.3 286.754C183.002 284.999 186.161 277.272 186.161 276.221C186.161 275.166 187.213 274.815 185.109 273.413C183.004 272.007 179.494 271.305 177.387 272.358C175.282 273.413 175.633 270.954 173.879 275.166C172.125 279.381 170.369 283.946 168.263 284.648C166.158 285.351 161.946 287.457 161.946 287.457C161.946 287.457 156.682 287.106 154.927 286.755C153.173 286.404 145.802 282.542 144.399 280.085C142.996 277.626 142.294 272.358 142.294 269.903C142.294 267.444 146.153 260.072 145.802 258.315C145.451 256.56 149.664 249.537 149.312 248.483C148.96 247.43 150.014 243.918 151.066 242.514C152.119 241.11 157.384 239.354 158.787 237.95C160.191 236.544 162.648 234.791 165.104 234.087C167.56 233.384 169.668 232.683 171.422 232.683C173.176 232.683 177.738 228.821 178.44 232.683C179.143 236.544 182.302 235.14 184.056 235.491C185.81 235.844 186.163 237.599 188.969 233.034C191.777 228.468 194.584 227.064 194.584 228.117C194.584 229.172 199.146 227.768 199.848 228.821C200.549 229.874 201.954 228.117 204.41 230.225C206.867 232.332 210.376 232.683 210.025 233.735C209.674 234.788 211.428 234.788 211.428 235.842C211.428 236.895 212.833 233.384 212.833 239.703C212.833 246.024 214.587 249.887 214.587 249.887C214.587 249.887 217.043 255.155 218.095 254.1C219.148 253.047 221.253 250.239 221.253 250.239C221.253 250.239 224.763 248.132 222.307 240.758C219.849 233.385 221.605 231.278 220.903 228.819C220.2 226.361 220.2 224.955 224.412 221.796C228.623 218.637 238.8 211.615 241.257 210.211C243.713 208.807 249.328 204.944 249.328 204.944C249.328 204.944 251.433 203.891 251.785 201.082C252.136 198.274 258.803 193.357 259.156 191.953C259.508 190.549 264.07 187.039 264.07 187.039C264.07 187.039 268.982 184.228 268.631 182.474C268.28 180.719 274.949 177.56 276.001 177.56C277.054 177.56 282.67 179.314 282.67 176.153C282.67 172.994 282.67 172.291 286.18 169.483C289.688 166.675 294.251 162.46 296.006 162.46C297.76 162.46 303.727 159.303 306.183 158.599C308.641 157.895 316.362 154.384 309.342 158.599C302.323 162.811 306.885 160.354 305.482 163.865C304.08 167.375 303.024 171.941 309.693 166.673C316.362 161.407 316.009 160.352 318.467 160.003C320.924 159.652 319.168 161.056 324.432 159.299C329.698 157.544 330.049 156.842 330.049 156.842C330.049 156.842 332.506 154.735 331.101 153.684C329.698 152.629 332.506 151.225 327.24 153.331C321.976 155.438 322.327 155.789 318.818 154.735C315.309 153.682 310.044 154.031 313.904 150.52C317.765 147.01 322.678 145.955 319.519 144.551C316.362 143.147 308.29 144.904 307.237 145.253C306.183 145.604 303.727 144.902 301.621 145.253C299.516 145.604 300.218 142.447 301.621 141.744C303.026 141.04 307.588 138.932 313.203 137.528C318.818 136.125 332.506 135.774 335.663 135.774C338.821 135.774 343.032 136.477 345.489 134.721C347.945 132.966 352.86 130.158 353.562 128.751C354.265 127.347 357.071 125.241 357.071 125.241C357.071 125.241 360.229 122.08 358.475 120.676C356.721 119.272 354.965 116.112 353.562 116.814C352.158 117.516 353.212 121.731 350.404 117.165C347.596 112.602 347.947 111.898 346.544 110.845C345.14 109.792 343.735 110.493 344.789 105.579C345.842 100.663 345.491 98.5558 345.491 98.5558C345.491 98.5558 346.544 94.3438 345.491 93.9928C344.437 93.6403 343.737 92.5889 341.983 93.6403C340.227 94.6933 330.401 99.6103 328.296 100.663C326.19 101.716 323.381 96.4498 324.434 93.9928C325.488 91.5328 324.785 92.9383 323.381 89.4284C321.978 85.9169 316.363 85.2133 314.257 85.2133C312.15 85.2133 307.239 82.0528 305.834 84.1604C304.431 86.2663 297.062 92.9368 295.655 93.6403C294.252 94.3438 292.147 87.6719 291.095 98.5558C290.041 109.443 294.955 112.602 289.341 113.304C283.726 114.006 278.811 117.165 278.811 117.165C278.811 117.165 274.25 117.517 274.25 120.325C274.25 123.136 272.496 129.805 270.388 130.507C268.283 131.211 263.018 130.158 261.264 128.05C259.51 125.943 261.615 118.219 261.615 118.219L264.774 115.059C264.774 115.059 242.313 111.549 242.662 110.143C243.015 108.739 235.995 106.282 235.293 104.175C234.592 102.067 234.239 97.5028 234.943 95.7478C235.644 93.9929 245.12 85.5659 250.033 83.8109C254.946 82.0544 263.369 78.1935 265.826 77.4899C268.283 76.7879 272.493 77.1389 273.898 75.384C275.301 73.6275 275.652 70.4685 275.652 70.4685C275.652 70.4685 274.951 65.5515 276.354 66.2535C277.757 66.957 280.214 68.01 280.565 69.063C280.918 70.116 280.918 72.5745 283.373 69.7634C285.831 66.9555 288.99 65.9009 291.796 64.4985C294.604 63.093 298.814 63.4455 301.273 62.0416C303.729 60.6376 307.94 59.2321 308.291 55.7206C308.642 52.2106 307.239 53.2636 305.483 52.9111C303.729 52.5616 306.185 53.2636 300.219 56.0716C294.252 58.8795 296.008 56.7735 291.796 58.8795C287.585 60.987 287.233 61.338 286.883 59.5831C286.531 57.8265 287.585 55.0186 287.585 55.0186C287.585 55.0186 287.937 54.666 285.48 53.9656C283.023 53.2636 283.023 54.3166 282.672 51.1577C282.321 47.9972 284.426 43.4327 280.918 44.8367C277.408 46.2406 274.25 43.7837 271.793 50.8051C269.336 57.8265 260.913 65.2021 258.806 63.4455C256.702 61.6906 256.351 61.338 254.595 61.338C252.839 61.338 250.384 59.2321 247.225 58.8811C244.066 58.5301 234.589 58.5301 232.134 58.8811C229.677 59.2336 226.871 57.4771 224.763 59.5846C222.658 61.6906 219.5 64.5001 219.5 65.5546C219.5 66.6076 216.341 61.6906 215.289 62.0431C214.236 62.3941 211.427 60.6392 208.271 60.6392C205.112 60.6392 203.005 58.8826 201.954 58.8826C200.902 58.8826 203.005 56.0731 201.954 55.7221C200.902 55.3727 178.087 54.6691 178.087 54.6691C178.087 54.6691 170.719 51.8612 167.912 52.2122C165.104 52.5632 157.384 52.9126 151.415 53.9672C145.448 55.0201 136.675 58.5316 133.868 58.8826C131.06 59.2352 124.744 59.2352 123.691 57.4787C122.637 55.7237 124.042 56.0747 122.637 55.7237C121.234 55.3743 122.288 54.6707 119.129 52.2138C115.97 49.7552 120.534 47.6493 114.216 47.6493C107.899 47.6493 104.039 47.2967 98.4239 47.6493C92.8076 48.0003 81.2273 50.8082 79.824 50.4572C78.4208 50.1062 67.1897 52.2138 65.434 51.1608C63.6799 50.1062 54.9047 55.0217 53.1521 54.6707C51.398 54.3197 44.7292 55.0233 42.9751 56.0762C41.2194 57.1308 32.7965 59.2352 35.6047 60.9917C38.4113 62.7467 38.0605 64.5016 38.4113 65.5562C38.7637 66.6092 35.6047 69.0661 35.6047 69.0661C35.6047 69.0661 34.9015 69.0661 31.0424 67.6621C27.1818 66.2566 22.9704 65.5562 21.2147 66.6092C19.4606 67.6621 16.3016 69.7712 17.0032 71.1752C17.7065 72.5792 22.618 75.7397 23.3212 74.6851C24.0228 73.6321 25.7785 71.5262 27.8835 71.8772C29.99 72.2297 33.1489 70.4732 30.3408 73.9847C27.5326 77.4946 25.0753 79.2511 23.3212 79.6037C21.5671 79.9531 17.3556 80.3041 13.495 80.6567C9.63283 81.0092 9.98366 79.2527 6.47542 82.7642C2.96719 86.2741 1.56233 84.1682 0.860686 88.0306C0.159039 91.8916 -0.542609 91.8916 0.860686 92.9461C2.26398 93.9991 -1.94746 94.3501 1.21151 95.4031C4.36892 96.4576 8.22954 97.5106 7.87872 98.562C7.52633 99.6165 11.3885 97.1596 9.28201 99.966C7.17551 102.777 5.77377 105.232 9.98366 102.424C14.1951 99.6165 16.6509 101.721 20.1607 99.966C23.6705 98.211 27.1802 97.86 29.2852 96.456C31.3917 95.0505 32.4442 92.9461 35.6031 91.89C38.7621 90.837 36.6556 92.2426 37.0064 93.9975C37.3573 95.7525 37.0064 96.1035 39.1129 94.698C41.2179 93.294 41.2179 94.3485 44.026 92.592C46.8326 90.837 49.9916 89.0805 52.0981 90.1335C54.203 91.188 54.9047 91.188 56.3095 91.188C57.7128 91.188 54.5554 90.8355 57.7128 91.188C60.8718 91.5375 56.3095 90.1335 66.8373 92.592C77.3667 95.0489 80.1749 93.294 80.875 97.1565C81.5782 101.019 82.9815 96.8039 84.7356 99.2624C86.4897 101.719 87.5437 99.615 88.5962 103.827C89.6487 108.042 88.5962 119.628 87.8946 121.032C87.1929 122.436 86.8421 122.436 87.1929 125.596C87.5437 128.755 91.7552 143.856 90.3519 144.907C88.9486 145.959 85.7896 146.311 85.7896 146.311L84.0355 152.631C84.0355 152.631 81.2289 157.897 78.7716 160.706C76.3143 163.514 73.1568 167.027 71.4012 169.483C69.647 171.941 68.2422 176.156 65.7864 178.613C63.3307 181.07 61.2242 180.017 61.9258 185.284C62.6275 190.55 61.9258 196.168 62.6275 200.032C63.3307 203.894 65.0848 209.161 66.4881 211.268C67.8914 213.374 68.9454 213.374 71.4012 215.129C73.8585 216.884 77.0175 218.993 76.6651 220.748C76.3143 222.503 77.0159 233.39 77.0159 233.39C77.0159 233.39 79.1224 236.9 79.4717 240.763C79.8241 244.627 82.2798 248.488 82.2798 248.488L84.3863 253.054C84.3863 253.054 85.4388 253.406 86.8436 256.212C88.2469 259.022 88.2469 259.022 88.5978 260.424C88.9501 261.831 88.9501 261.479 88.9501 261.831C88.9501 262.181 88.5978 255.861 87.8961 254.105C87.1945 252.35 87.1945 250.244 86.4928 248.137C85.7912 246.029 86.8436 243.57 84.7387 240.412C82.6338 237.253 82.6338 236.9 81.5813 233.74C80.5288 230.581 79.124 227.069 80.5288 226.366C81.9321 225.665 82.9846 221.101 85.7927 226.366C88.5993 231.632 88.9517 230.23 89.3025 234.443C89.6518 238.657 90.7058 240.062 91.7583 241.816C92.8108 243.57 95.2665 249.542 96.6714 251.997C98.0747 254.456 96.6714 250.593 99.8288 255.509C102.988 260.424 103.34 261.477 105.094 265.34C106.848 269.202 107.902 269.202 108.955 272.01C110.007 274.821 109.306 274.118 108.602 277.277C107.901 280.436 109.304 283.949 109.304 283.949C109.304 283.949 114.217 285.704 114.568 286.757C114.919 287.81 119.832 289.565 120.535 290.97C121.237 292.376 125.799 294.129 125.799 294.129C125.799 294.129 129.66 296.588 131.061 297.29C132.466 297.992 136.679 298.695 136.679 298.695C136.679 298.695 139.486 299.399 140.538 299.748C141.591 300.099 144.75 300.099 144.75 300.099C144.75 300.099 147.558 297.993 148.61 298.695C149.663 299.396 152.12 297.29 153.173 299.045C154.225 300.801 156.332 300.801 157.384 302.207C158.437 303.611 159.489 303.611 161.245 305.366C163 307.121 164.755 306.77 166.509 308.173C168.263 309.577 169.666 309.577 171.773 309.577C173.878 309.577 173.877 309.577 175.282 309.93C176.684 310.281 177.387 308.875 178.791 310.634C180.194 312.389 181.246 313.441 182.299 315.196C183.351 316.951 185.809 316.951 186.159 319.761C186.51 322.569 187.212 322.221 187.212 324.676C187.212 327.135 188.615 328.188 189.669 328.891C190.72 329.592 194.581 333.102 194.581 333.102L199.845 334.156L204.056 337.317L208.5 338.721L208.623 338.716Z" fill="#EBEBEB"/>
<path d="M321.105 12.5266L342.162 9.89333C342.162 9.89333 349.531 9.89332 353.217 7.2601C356.901 4.62687 353.217 4.62687 364.272 2.52091C375.327 0.413395 372.169 -0.639585 377.96 0.413394C383.75 1.46793 385.329 1.46793 391.647 2.52091C397.963 3.57389 399.543 1.9952 405.332 3.57389C411.123 5.15414 413.755 4.62687 418.493 4.62687H433.233C440.603 4.62687 447.447 0.413394 450.079 3.04662C452.71 5.67985 454.29 4.62687 463.24 5.67985C472.188 6.73283 475.874 4.62531 479.559 5.67985C483.245 6.73283 489.563 5.15414 496.931 5.67985C504.3 6.20556 507.986 5.15414 510.618 5.15414C513.25 5.15414 515.881 1.46637 519.566 4.62687C523.252 7.78737 527.989 3.57389 528.515 7.78737C529.042 12.0008 535.885 8.84035 529.042 12.0008C522.198 15.1613 523.251 14.6341 518.512 18.8475C513.776 23.061 521.671 26.7472 511.669 30.435C501.667 34.1212 500.087 28.3275 497.455 34.6485C494.823 40.9679 497.455 42.5482 496.93 45.7087C496.403 48.8676 495.35 49.3949 492.191 52.0281C489.034 54.6613 489.034 52.0281 481.664 53.6083C474.293 55.1886 469.029 56.7688 465.872 56.7688C462.713 56.7688 455.869 59.4021 453.763 60.455C451.656 61.5096 457.449 63.0883 446.393 66.2488C435.338 69.4093 432.704 68.8836 429.547 73.0955C426.388 77.3105 427.44 77.8378 425.335 80.471C423.229 83.1042 416.912 93.6387 413.753 91.0055C410.596 88.3722 409.015 88.8979 406.383 86.2647C403.751 83.6315 402.172 79.9453 400.592 77.8378C399.013 75.7303 398.486 70.4638 397.96 67.3033C397.435 64.1428 392.695 56.7704 397.96 57.8234C403.224 58.8764 406.383 58.3506 407.963 57.2977C409.542 56.2431 411.122 52.5569 411.122 52.5569C411.122 52.5569 410.596 46.7632 409.015 43.6027C407.436 40.4422 408.49 37.809 405.858 34.65C403.226 31.4895 403.226 32.0168 399.54 28.8563C395.855 25.6958 396.908 24.1156 391.117 23.5899C385.326 23.0641 383.746 21.4823 381.64 22.0096C379.535 22.5353 372.692 18.3218 380.06 17.7961C387.431 17.2689 394.274 18.3218 394.274 18.3218C394.274 18.3218 403.75 14.1084 400.592 13.5827C397.435 13.0554 405.329 8.31464 397.96 9.89489C390.59 11.4751 382.168 13.5827 380.062 14.1084C377.957 14.6341 372.692 15.1613 367.428 16.7416C362.165 18.3218 355.846 17.7961 352.688 21.4823C349.529 25.1685 352.688 25.6958 349.529 25.1685C346.372 24.6428 352.161 21.4823 344.793 25.1685C337.422 28.8563 339.529 28.329 335.844 27.2761C332.158 26.2231 329.526 24.6428 329.526 24.6428C329.526 24.6428 334.266 24.1156 327.421 23.5899C320.578 23.0641 320.578 23.0641 317.946 19.9021C315.314 16.7416 316.893 16.7416 318.471 15.6886C320.031 14.6341 321.091 12.5266 321.091 12.5266H321.105Z" fill="#EBEBEB"/>
<path d="M309.52 36.2272C306.888 38.8604 300.57 42.5482 302.151 44.1284C303.731 45.7087 304.783 51.5024 307.942 49.9221C311.099 48.3419 307.415 43.0754 319.522 47.2889C331.631 51.5024 330.577 46.7632 333.209 53.0826C335.841 59.4021 337.946 64.1413 336.366 65.7231C334.789 67.3033 334.262 68.8836 328.996 70.4638C323.732 72.0441 321.626 74.1516 325.312 76.7832C328.996 79.4165 335.841 82.0497 338.998 83.6315C342.157 85.2102 351.633 85.739 346.894 80.4726C342.156 75.2061 347.947 73.6243 347.947 73.6243C347.947 73.6243 356.897 80.4726 353.739 72.5713C350.58 64.6716 348.474 64.6716 350.58 64.6716C352.687 64.6716 356.897 67.3049 356.897 67.3049L359.003 63.0914L356.897 56.2447L350.053 49.398C350.053 49.398 355.843 44.1315 347.947 43.0786C340.051 42.0256 340.576 42.0256 336.365 39.3908C332.153 36.7576 331.628 35.7046 323.731 37.2848C315.835 38.8651 313.203 39.9181 313.203 39.9181L309.539 36.2272H309.52Z" fill="#EBEBEB"/>
<path d="M192.127 42.5481C195.286 39.3876 203.708 32.0152 206.867 34.1212C210.025 36.2272 214.762 32.5409 218.448 35.7014C222.132 38.8619 226.344 42.5481 229.503 43.6011C232.661 44.6541 236.346 40.9679 239.505 42.5481C242.662 44.1284 253.717 34.6485 251.612 42.0224C249.506 49.3964 254.244 51.5024 248.453 52.0296C242.662 52.5569 236.346 56.7704 233.712 55.1901C231.08 53.6099 228.974 52.0296 224.763 54.1372C220.551 56.2431 222.658 56.2431 217.919 55.1901C213.182 54.1372 212.13 56.2431 211.077 54.6629C210.023 53.0842 206.866 53.6099 207.391 48.8691C207.917 44.13 209.496 44.6557 206.337 44.6557C203.18 44.6557 200.548 45.1829 198.441 43.6027C196.352 42.0224 192.142 42.5481 192.142 42.5481H192.127Z" fill="#EBEBEB"/>
</svg>
